STARTFONT 2.1
COMMENT
COMMENT Converted from OpenType font "OpenSans-Bold.ttf" by "otf2bdf 3.0".
COMMENT
FONT -FreeType-Open Sans-Bold-R-Normal--50-360-100-100-P-270-ISO10646-1
SIZE 36 100 100
FONTBOUNDINGBOX 94 68 -28 -15
STARTPROPERTIES 19
FOUNDRY "FreeType"
FAMILY_NAME "Open Sans"
WEIGHT_NAME "Bold"
SLANT "R"
SETWIDTH_NAME "Normal"
ADD_STYLE_NAME ""
PIXEL_SIZE 50
POINT_SIZE 360
RESOLUTION_X 100
RESOLUTION_Y 100
SPACING "P"
AVERAGE_WIDTH 270
CHARSET_REGISTRY "ISO10646"
CHARSET_ENCODING "1"
FONT_ASCENT 53
FONT_DESCENT 14
COPYRIGHT "Copyright 2020 The Open Sans Project Authors (https://github.com/googlefonts/opensans)"
_OTF_FONTFILE "OpenSans-Bold.ttf"
_OTF_PSNAME "OpenSans-Bold"
ENDPROPERTIES
CHARS 1010
STARTCHAR 0000
ENCODING 0
SWIDTH 0 0
DWIDTH 0 0
BBX 0 0 0 0
BITMAP
ENDCHAR
STARTCHAR 000D
ENCODING 13
SWIDTH 240 0
DWIDTH 12 0
BBX 0 0 0 0
BITMAP
ENDCHAR
STARTCHAR 0020
ENCODING 32
SWIDTH 240 0
DWIDTH 12 0
BBX 0 0 0 0
BITMAP
ENDCHAR
STARTCHAR 0021
ENCODING 33
SWIDTH 280 0
DWIDTH 14 0
BBX 8 37 3 -1
BITMAP
FF
FF
FF
FF
FF
FF
FF
FF
FF
FF
FF
7F
7F
7F
7F
7F
7F
7F
7E
7E
7E
7E
7E
7E
00
00
00
00
18
7E
FF
FF
FF
FF
FF
7E
1C
ENDCHAR
STARTCHAR 0022
ENCODING 34
SWIDTH 460 0
DWIDTH 23 0
BBX 17 13 3 23
BITMAP
FE1F80
FE1F80
FE1F80
7E1F80
7E1F80
7E1F80
7E1F80
7E1F80
7C1F80
7C1F80
7C1F80
7C1F80
7C1F00
ENDCHAR
STARTCHAR 0023
ENCODING 35
SWIDTH 640 0
DWIDTH 32 0
BBX 30 36 1 0
BITMAP
001F07C0
001F07C0
003F07C0
003F0FC0
003E0F80
003E0F80
003E0F80
007E0F80
007E1F80
007C1F80
3FFFFFFC
3FFFFFFC
3FFFFFFC
3FFFFFFC
3FFFFFFC
00F83E00
00F83E00
00F83E00
01F87E00
01F07E00
01F07C00
FFFFFFF8
FFFFFFF8
FFFFFFF8
FFFFFFF8
FFFFFFF8
03E0F800
03E0F800
07E1F800
07E1F800
07C1F000
07C1F000
07C1F000
07C1F000
0FC3F000
0F83F000
ENDCHAR
STARTCHAR 0024
ENCODING 36
SWIDTH 560 0
DWIDTH 28 0
BBX 25 41 2 -3
BITMAP
001C0000
001C0000
001C0000
001C0000
01FFF000
07FFFE00
1FFFFF00
3FFFFE00
7FFFFE00
7FFFFE00
FF9C3C00
FF1C0400
FF1C0000
FF1C0000
FF9C0000
7FDC0000
7FFC0000
3FFE0000
1FFFC000
0FFFF000
03FFF800
00FFFE00
003FFE00
001FFF00
001DFF00
001CFF80
001C7F80
001C7F80
E01C7F80
FC1CFF00
FFFFFF00
FFFFFE00
FFFFFC00
FFFFF800
3FFFF000
03FF8000
001C0000
001C0000
001C0000
001C0000
001C0000
ENDCHAR
STARTCHAR 0025
ENCODING 37
SWIDTH 900 0
DWIDTH 45 0
BBX 42 36 2 0
BITMAP
0FF0001F8000
1FF8001F8000
3FFC003F0000
7FFE003F0000
7FFE007E0000
FE7F007C0000
FC3F00FC0000
FC3F01F80000
FC3F01F80000
FC3F03F00000
FC3F03F00000
FC3F07E00000
FC3F07E00000
FC3F0FC00000
FC3F0F83F000
FC3F1F8FFC00
FE7F3F1FFE00
7FFE3F3FFF00
7FFE7E3FFF00
3FFC7E7F3F80
1FF8FC7E1F80
0FF0FC7E1F80
0001F87E1F80
0001F07E1F80
0003F07E1F80
0007E07E1FC0
0007E07E1F80
000FC07E1F80
000FC07E1F80
001F807E1F80
001F807F3F80
003F003FFF00
003E003FFF00
007E001FFE00
00FC000FFE00
00FC0007F800
ENDCHAR
STARTCHAR 0026
ENCODING 38
SWIDTH 740 0
DWIDTH 37 0
BBX 35 36 2 0
BITMAP
007FC00000
01FFF00000
07FFF80000
0FFFFC0000
0FFFFE0000
1FFFFE0000
1FE0FE0000
1FC0FE0000
1FC07E0000
1FC0FE0000
1FC0FE0000
0FE1FE0000
0FF3FC0000
07FFF80000
07FFF00000
03FFE00000
03FFC00000
07FF003FC0
1FFF803FC0
3FFFC07F80
3FFFF07F80
7FCFF87F00
7F87FCFF00
FF03FEFF00
FF01FFFE00
FF00FFFC00
FF007FFC00
FF003FF800
FF801FF000
FFC07FF800
7FFFFFFC00
7FFFFFFE00
3FFFFFFF00
1FFFFEFF80
07FFF87FC0
01FFE03FE0
ENDCHAR
STARTCHAR 0027
ENCODING 39
SWIDTH 260 0
DWIDTH 13 0
BBX 7 13 3 23
BITMAP
FE
FE
FE
7E
7E
7E
7E
7E
7C
7C
7C
7C
7C
ENDCHAR
STARTCHAR 0028
ENCODING 40
SWIDTH 320 0
DWIDTH 16 0
BBX 13 44 2 -8
BITMAP
01F8
03F8
03F0
07E0
0FE0
0FC0
1FC0
1F80
3F80
3F80
3F00
7F00
7F00
7F00
7E00
7E00
FE00
FE00
FE00
FE00
FE00
FE00
FE00
FE00
FE00
FE00
FE00
FE00
FE00
7E00
7E00
7F00
7F00
3F00
3F80
3F80
1F80
1FC0
0FC0
0FE0
07E0
07F0
03F0
01F8
ENDCHAR
STARTCHAR 0029
ENCODING 41
SWIDTH 320 0
DWIDTH 16 0
BBX 13 44 2 -8
BITMAP
FC00
FE00
7E00
3F00
3F80
1F80
1FC0
1FC0
0FC0
0FE0
07E0
07E0
07F0
07F0
03F0
03F0
03F8
03F8
03F8
03F8
03F8
03F8
03F8
03F8
03F8
03F8
03F8
03F8
03F0
03F0
03F0
07F0
07F0
07E0
0FE0
0FE0
0FC0
1FC0
1F80
3F80
3F00
7E00
7E00
FC00
ENDCHAR
STARTCHAR 002A
ENCODING 42
SWIDTH 540 0
DWIDTH 27 0
BBX 24 23 2 15
BITMAP
00FE00
007E00
007E00
007C00
007C00
007C00
807C00
F07C1E
FF7CFE
FFFFFE
FFFFFE
FFFFFF
FFFFFF
00FF00
01FF00
03FF80
07EFC0
07EFE0
0FC7E0
1FC7F0
3F83F8
0F83E0
038180
ENDCHAR
STARTCHAR 002B
ENCODING 43
SWIDTH 560 0
DWIDTH 28 0
BBX 24 24 2 6
BITMAP
003E00
003E00
003E00
003E00
003E00
003E00
003E00
003E00
003E00
003E00
FFFFFF
FFFFFF
FFFFFF
FFFFFF
FFFFFF
003E00
003E00
003E00
003E00
003E00
003E00
003E00
003E00
003E00
ENDCHAR
STARTCHAR 002C
ENCODING 44
SWIDTH 280 0
DWIDTH 14 0
BBX 9 12 2 -6
BITMAP
3F80
3F80
3F80
7F00
7F00
7F00
7E00
7E00
FE00
FC00
FC00
F800
ENDCHAR
STARTCHAR 002D
ENCODING 45
SWIDTH 320 0
DWIDTH 16 0
BBX 14 6 1 10
BITMAP
FFFC
FFFC
FFFC
FFFC
FFFC
FFFC
ENDCHAR
STARTCHAR 002E
ENCODING 46
SWIDTH 280 0
DWIDTH 14 0
BBX 8 9 3 -1
BITMAP
18
7E
FF
FF
FF
FF
FF
7E
1C
ENDCHAR
STARTCHAR 002F
ENCODING 47
SWIDTH 400 0
DWIDTH 20 0
BBX 19 36 1 0
BITMAP
0007E0
000FE0
000FE0
001FC0
001FC0
001F80
003F80
003F80
003F00
007F00
007F00
00FE00
00FE00
00FE00
01FC00
01FC00
01F800
03F800
03F800
07F000
07F000
07F000
0FE000
0FE000
0FC000
1FC000
1FC000
3F8000
3F8000
3F8000
7F0000
7F0000
7E0000
FE0000
FE0000
FC0000
ENDCHAR
STARTCHAR 0030
ENCODING 48
SWIDTH 560 0
DWIDTH 28 0
BBX 25 36 2 0
BITMAP
00FF8000
03FFE000
0FFFF000
1FFFF800
1FFFFC00
3FFFFC00
3FC3FE00
7F81FE00
7F80FF00
7F00FF00
FF007F00
FF007F00
FF007F00
FE007F00
FE007F80
FE007F80
FE007F80
FE007F80
FE007F80
FE007F80
FE007F80
FE007F80
FE007F80
FF007F00
FF007F00
FF007F00
7F00FF00
7F00FF00
7F80FE00
3FC1FE00
3FFFFE00
1FFFFC00
1FFFF800
0FFFF000
07FFE000
01FFC000
ENDCHAR
STARTCHAR 0031
ENCODING 49
SWIDTH 560 0
DWIDTH 28 0
BBX 18 36 3 0
BITMAP
001FC0
003FC0
007FC0
01FFC0
03FFC0
07FFC0
0FFFC0
3FFFC0
7FFFC0
FFBFC0
7F3FC0
3E3FC0
383FC0
103FC0
003FC0
003FC0
003FC0
003FC0
003FC0
003FC0
003FC0
003FC0
003FC0
003FC0
003FC0
003FC0
003FC0
003FC0
003FC0
003FC0
003FC0
003FC0
003FC0
003FC0
003FC0
003FC0
ENDCHAR
STARTCHAR 0032
ENCODING 50
SWIDTH 560 0
DWIDTH 28 0
BBX 25 36 2 0
BITMAP
01FF8000
07FFE000
1FFFF800
3FFFFC00
FFFFFE00
FFFFFE00
7FC3FE00
3E00FF00
1C00FF00
0000FF00
0000FF00
0000FF00
0000FF00
0000FE00
0001FE00
0001FC00
0003FC00
0007F800
000FF000
001FF000
003FE000
007FC000
00FF8000
01FF0000
03FC0000
07F80000
0FF00000
1FE00000
3FC00000
7F800000
FFFFFF80
FFFFFF80
FFFFFF80
FFFFFF80
FFFFFF80
FFFFFF80
ENDCHAR
STARTCHAR 0033
ENCODING 51
SWIDTH 560 0
DWIDTH 28 0
BBX 25 36 2 0
BITMAP
03FF8000
1FFFE000
7FFFF800
FFFFFC00
7FFFFE00
7FFFFE00
3E03FE00
1801FF00
0000FF00
0000FE00
0000FE00
0000FE00
0001FE00
0003FC00
000FF800
07FFF000
07FFC000
07FF8000
07FFF000
07FFFC00
07FFFE00
0003FF00
0000FF00
0000FF00
00007F80
00007F80
00007F80
0000FF00
8000FF00
E001FF00
FFFFFE00
FFFFFE00
FFFFFC00
FFFFF800
FFFFF000
3FFF8000
ENDCHAR
STARTCHAR 0034
ENCODING 52
SWIDTH 560 0
DWIDTH 28 0
BBX 27 36 1 0
BITMAP
0001FC00
0001FC00
0003FC00
0007FC00
0007FC00
000FFC00
001FFC00
001FFC00
003FFC00
007FFC00
007DFC00
00FDFC00
01F9FC00
01F9FC00
03F1FC00
07E1FC00
0FE1FC00
0FC1FC00
1F81FC00
3F81FC00
3F01FC00
7E01FC00
FE01FC00
FFFFFFE0
FFFFFFE0
FFFFFFE0
FFFFFFE0
FFFFFFE0
FFFFFFE0
0001FC00
0001FC00
0001FC00
0001FC00
0001FC00
0001FC00
0001FC00
ENDCHAR
STARTCHAR 0035
ENCODING 53
SWIDTH 560 0
DWIDTH 28 0
BBX 24 36 2 0
BITMAP
3FFFFC
3FFFFC
3FFFFC
3FFFFC
3FFFFC
3FFFFC
3FFFFC
3F8000
3F8000
3F8000
3F8000
3F8000
3F8000
3F3F00
7FFFE0
7FFFF8
7FFFFC
7FFFFC
7FFFFE
1E1FFF
0001FF
0000FF
0000FF
00007F
00007F
00007F
0000FF
0000FF
8001FF
F003FE
FFFFFE
FFFFFC
FFFFF8
FFFFF0
FFFFE0
1FFF80
ENDCHAR
STARTCHAR 0036
ENCODING 54
SWIDTH 560 0
DWIDTH 28 0
BBX 25 36 2 0
BITMAP
000FFC00
007FFC00
01FFFC00
03FFFC00
07FFFC00
0FFFFC00
1FF80000
1FE00000
3FC00000
3F800000
7F000000
7F000000
7E000000
FE1FE000
FE7FF800
FEFFFC00
FFFFFE00
FFFFFE00
FFFFFF00
FFC0FF00
FF007F80
FF007F80
FE007F80
FE003F80
FE003F80
FE003F80
FF007F80
7F007F80
7F807F00
7FC0FF00
3FFFFF00
1FFFFE00
1FFFFC00
0FFFF800
03FFF000
00FFC000
ENDCHAR
STARTCHAR 0037
ENCODING 55
SWIDTH 560 0
DWIDTH 28 0
BBX 26 36 1 0
BITMAP
FFFFFFC0
FFFFFFC0
FFFFFFC0
FFFFFFC0
FFFFFFC0
FFFFFFC0
FFFFFF80
00003F80
00007F00
00007F00
0000FF00
0000FE00
0001FE00
0001FC00
0003FC00
0003F800
0007F800
0007F800
0007F000
000FF000
000FE000
001FE000
001FC000
003FC000
003F8000
007F8000
007F8000
00FF0000
00FF0000
00FE0000
01FE0000
01FC0000
03FC0000
03FC0000
07F80000
07F80000
ENDCHAR
STARTCHAR 0038
ENCODING 56
SWIDTH 560 0
DWIDTH 28 0
BBX 25 36 2 0
BITMAP
00FF8000
07FFF000
0FFFF800
1FFFFC00
3FFFFE00
7FE7FE00
7F80FE00
7F00FF00
7F007F00
7F007F00
7F00FE00
7F80FE00
3FC1FE00
3FE7FC00
1FFFF800
0FFFF000
07FFC000
03FFC000
07FFF000
1FFFF800
3FFFFC00
7FC3FE00
7F81FF00
FF00FF00
FE007F80
FE003F80
FE003F80
FE003F80
FE007F80
FF007F00
FF81FF00
7FFFFF00
3FFFFE00
3FFFFC00
0FFFF000
03FFC000
ENDCHAR
STARTCHAR 0039
ENCODING 57
SWIDTH 560 0
DWIDTH 28 0
BBX 25 36 2 0
BITMAP
01FF0000
07FFC000
0FFFF000
1FFFF800
3FFFFC00
7FFFFC00
7FC3FE00
FF01FE00
FF00FF00
FE007F00
FE007F00
FE007F80
FE007F80
FE007F80
FE007F80
FF00FF80
FF01FF80
FFC3FF80
7FFFFF80
7FFFFF80
3FFFBF80
1FFF3F00
07FE7F00
00707F00
00007F00
00007E00
0000FE00
0001FE00
0003FC00
0007FC00
38FFF800
3FFFF000
3FFFE000
3FFFC000
3FFF0000
3FFC0000
ENDCHAR
STARTCHAR 003A
ENCODING 58
SWIDTH 280 0
DWIDTH 14 0
BBX 8 29 3 -1
BITMAP
3C
7F
FF
FF
FF
FF
FF
7E
08
00
00
00
00
00
00
00
00
00
00
00
18
7E
FF
FF
FF
FF
FF
7E
1C
ENDCHAR
STARTCHAR 003B
ENCODING 59
SWIDTH 280 0
DWIDTH 14 0
BBX 9 34 2 -6
BITMAP
1E00
3F80
7F80
7F80
7F80
7F80
7F80
3F00
0400
0000
0000
0000
0000
0000
0000
0000
0000
0000
0000
0000
0000
0000
3F80
3F80
3F80
7F00
7F00
7F00
7E00
7E00
FE00
FC00
FC00
F800
ENDCHAR
STARTCHAR 003C
ENCODING 60
SWIDTH 560 0
DWIDTH 28 0
BBX 24 26 2 5
BITMAP
000001
000007
00001F
00007F
0001FF
0007FF
001FFC
007FF0
01FFC0
07FF00
1FFC00
7FF000
FFC000
FF0000
FFC000
FFF800
1FFE00
07FFC0
01FFF0
003FFE
000FFF
0003FF
0000FF
00001F
000007
000001
ENDCHAR
STARTCHAR 003D
ENCODING 61
SWIDTH 560 0
DWIDTH 28 0
BBX 24 15 2 10
BITMAP
FFFFFF
FFFFFF
FFFFFF
FFFFFF
FFFFFF
000000
000000
000000
000000
FFFFFF
FFFFFF
FFFFFF
FFFFFF
FFFFFF
FFFFFF
ENDCHAR
STARTCHAR 003E
ENCODING 62
SWIDTH 560 0
DWIDTH 28 0
BBX 24 26 2 5
BITMAP
C00000
F00000
FC0000
FF0000
FFC000
FFF000
3FFC00
0FFF00
03FFC0
007FF0
001FFC
0007FF
0001FF
0000FF
0003FF
000FFF
007FFC
01FFF0
0FFF80
3FFE00
FFF800
FFC000
FF0000
FC0000
F00000
800000
ENDCHAR
STARTCHAR 003F
ENCODING 63
SWIDTH 460 0
DWIDTH 23 0
BBX 23 37 0 -1
BITMAP
03FF80
1FFFE0
7FFFF0
FFFFF8
7FFFFC
7FFFFC
3E03FC
3001FE
0000FE
0000FE
0001FE
0001FC
0003FC
0007F8
000FF8
003FE0
007FC0
00FF80
00FF00
01FE00
01FC00
01F800
01F800
01F800
000000
000000
000000
000000
007000
01F800
03FC00
03FC00
03FC00
03FC00
03FC00
01F800
006000
ENDCHAR
STARTCHAR 0040
ENCODING 64
SWIDTH 880 0
DWIDTH 44 0
BBX 40 40 2 -4
BITMAP
00000F8000
0003FFF800
000FFFFF00
003FFFFF80
007FFFFFE0
01FF803FF0
03FC0007F8
07F80003F8
07E00001FC
0FC00000FC
1F80FFF87E
1F81FFFC3E
3F07FFFC3F
3F0FFFFC3F
3E1FE07C1F
7E1FC07C1F
7E3F80FC1F
7C3F00FC1F
7C3F00FC1F
7C3F00FC1F
FC3E00FC1F
FC3E00FC1F
FC3E00FC1F
7C3F00FC3F
7C3F01FC3E
7C3F83FC7E
7C1FFFFFFC
7E0FFFFFFC
7E0FFF9FF8
3F03FE0FF0
3F00F80780
1F80000000
1FC0000000
0FE0000100
07FC000F00
03FFE7FF00
01FFFFFF00
007FFFFF00
001FFFFC00
0003FFE000
ENDCHAR
STARTCHAR 0041
ENCODING 65
SWIDTH 680 0
DWIDTH 34 0
BBX 34 36 0 0
BITMAP
000FFC0000
000FFC0000
000FFE0000
001FFE0000
001FFE0000
001FFF0000
003FFF0000
003FBF0000
003F3F8000
007F3F8000
007F1FC000
007F1FC000
00FE1FC000
00FE0FE000
00FE0FE000
01FC0FE000
01FC0FF000
03FC07F000
03F807F000
03F807F800
07F803F800
07FFFFF800
07FFFFFC00
0FFFFFFC00
0FFFFFFC00
0FFFFFFE00
1FFFFFFE00
1FFFFFFF00
1FC000FF00
3FC000FF00
3FC0007F80
3FC0007F80
7F80007F80
7F80003FC0
7F80003FC0
FF00003FC0
ENDCHAR
STARTCHAR 0042
ENCODING 66
SWIDTH 660 0
DWIDTH 33 0
BBX 27 36 4 0
BITMAP
FFFE0000
FFFFF800
FFFFFE00
FFFFFF00
FFFFFF80
FFFFFF80
FFFFFFC0
FF007FC0
FF003FC0
FF003FC0
FF003FC0
FF003FC0
FF003FC0
FF007F80
FFFFFF80
FFFFFF00
FFFFFC00
FFFFF800
FFFFFF00
FFFFFF80
FF07FFC0
FF007FC0
FF003FE0
FF001FE0
FF001FE0
FF001FE0
FF001FE0
FF003FE0
FF003FE0
FF01FFC0
FFFFFFC0
FFFFFF80
FFFFFF00
FFFFFE00
FFFFF800
FFFFC000
ENDCHAR
STARTCHAR 0043
ENCODING 67
SWIDTH 620 0
DWIDTH 31 0
BBX 27 36 3 0
BITMAP
001FFC00
007FFF80
01FFFFE0
03FFFFE0
07FFFFC0
0FFFFFC0
1FFC0F80
3FF00380
3FE00000
7FC00000
7F800000
7F800000
7F000000
FF000000
FF000000
FF000000
FF000000
FF000000
FF000000
FF000000
FF000000
FF000000
FF000000
FF000000
7F800000
7F800000
7F800000
7FC00000
3FE00040
3FF803C0
1FFFFFC0
0FFFFFC0
07FFFFC0
03FFFFC0
01FFFFC0
007FFE00
ENDCHAR
STARTCHAR 0044
ENCODING 68
SWIDTH 740 0
DWIDTH 37 0
BBX 30 36 4 0
BITMAP
FFFC0000
FFFFE000
FFFFFC00
FFFFFF00
FFFFFF80
FFFFFFC0
FFFFFFE0
FF007FE0
FF001FF0
FF000FF0
FF0007F8
FF0007F8
FF0007FC
FF0003FC
FF0003FC
FF0003FC
FF0003FC
FF0003FC
FF0003FC
FF0003FC
FF0003FC
FF0003FC
FF0003FC
FF0007F8
FF0007F8
FF0007F8
FF000FF0
FF001FF0
FF007FE0
FF03FFE0
FFFFFFC0
FFFFFF80
FFFFFF00
FFFFFC00
FFFFF000
FFFF0000
ENDCHAR
STARTCHAR 0045
ENCODING 69
SWIDTH 560 0
DWIDTH 28 0
BBX 21 36 4 0
BITMAP
FFFFF8
FFFFF8
FFFFF8
FFFFF8
FFFFF8
FFFFF8
FFFFF8
FF0000
FF0000
FF0000
FF0000
FF0000
FF0000
FF0000
FFFFF0
FFFFF0
FFFFF0
FFFFF0
FFFFF0
FFFFF0
FFFFF0
FF0000
FF0000
FF0000
FF0000
FF0000
FF0000
FF0000
FF0000
FF0000
FFFFF8
FFFFF8
FFFFF8
FFFFF8
FFFFF8
FFFFF8
ENDCHAR
STARTCHAR 0046
ENCODING 70
SWIDTH 540 0
DWIDTH 27 0
BBX 21 36 4 0
BITMAP
FFFFF8
FFFFF8
FFFFF8
FFFFF8
FFFFF8
FFFFF8
FFFFF8
FF0000
FF0000
FF0000
FF0000
FF0000
FF0000
FF0000
FF0000
FF0000
FFFFF0
FFFFF0
FFFFF0
FFFFF0
FFFFF0
FFFFF0
FF0000
FF0000
FF0000
FF0000
FF0000
FF0000
FF0000
FF0000
FF0000
FF0000
FF0000
FF0000
FF0000
FF0000
ENDCHAR
STARTCHAR 0047
ENCODING 71
SWIDTH 720 0
DWIDTH 36 0
BBX 29 36 3 0
BITMAP
000FFF80
003FFFF0
00FFFFF8
03FFFFF8
07FFFFF0
0FFFFFF0
1FFE03E0
1FF80060
3FF00000
3FE00000
7FC00000
7F800000
7F800000
FF000000
FF000000
FF000000
FF01FFF8
FF01FFF8
FF01FFF8
FF01FFF8
FF01FFF8
FF01FFF8
FF0003F8
FF0003F8
7F8003F8
7F8003F8
7FC003F8
3FC003F8
3FE003F8
1FF803F8
1FFFFFF8
0FFFFFF8
07FFFFF8
03FFFFF8
00FFFFF8
003FFFC0
ENDCHAR
STARTCHAR 0048
ENCODING 72
SWIDTH 760 0
DWIDTH 38 0
BBX 30 36 4 0
BITMAP
FF0003FC
FF0003FC
FF0003FC
FF0003FC
FF0003FC
FF0003FC
FF0003FC
FF0003FC
FF0003FC
FF0003FC
FF0003FC
FF0003FC
FF0003FC
FF0003FC
FFFFFFFC
FFFFFFFC
FFFFFFFC
FFFFFFFC
FFFFFFFC
FFFFFFFC
FFFFFFFC
FF0003FC
FF0003FC
FF0003FC
FF0003FC
FF0003FC
FF0003FC
FF0003FC
FF0003FC
FF0003FC
FF0003FC
FF0003FC
FF0003FC
FF0003FC
FF0003FC
FF0003FC
ENDCHAR
STARTCHAR 0049
ENCODING 73
SWIDTH 320 0
DWIDTH 16 0
BBX 8 36 4 0
BITMAP
FF
FF
FF
FF
FF
FF
FF
FF
FF
FF
FF
FF
FF
FF
FF
FF
FF
FF
FF
FF
FF
FF
FF
FF
FF
FF
FF
FF
FF
FF
FF
FF
FF
FF
FF
FF
ENDCHAR
STARTCHAR 004A
ENCODING 74
SWIDTH 320 0
DWIDTH 16 0
BBX 16 47 -4 -11
BITMAP
00FF
00FF
00FF
00FF
00FF
00FF
00FF
00FF
00FF
00FF
00FF
00FF
00FF
00FF
00FF
00FF
00FF
00FF
00FF
00FF
00FF
00FF
00FF
00FF
00FF
00FF
00FF
00FF
00FF
00FF
00FF
00FF
00FF
00FF
00FF
00FF
00FF
00FF
01FF
03FE
FFFE
FFFC
FFFC
FFF8
FFF0
FFC0
0800
ENDCHAR
STARTCHAR 004B
ENCODING 75
SWIDTH 660 0
DWIDTH 33 0
BBX 29 36 4 0
BITMAP
FF0007F8
FF000FF0
FF001FE0
FF003FE0
FF007FC0
FF007F80
FF00FF00
FF01FE00
FF03FE00
FF07FC00
FF07F800
FF0FF000
FF1FF000
FF3FE000
FF3FC000
FF7F8000
FFFF8000
FFFFC000
FFFFC000
FFFFE000
FFFFE000
FFEFF000
FF8FF800
FF07F800
FF07FC00
FF03FE00
FF01FE00
FF01FF00
FF00FF00
FF007F80
FF007FC0
FF003FC0
FF003FE0
FF001FF0
FF000FF0
FF000FF8
ENDCHAR
STARTCHAR 004C
ENCODING 76
SWIDTH 560 0
DWIDTH 28 0
BBX 23 36 4 0
BITMAP
FF0000
FF0000
FF0000
FF0000
FF0000
FF0000
FF0000
FF0000
FF0000
FF0000
FF0000
FF0000
FF0000
FF0000
FF0000
FF0000
FF0000
FF0000
FF0000
FF0000
FF0000
FF0000
FF0000
FF0000
FF0000
FF0000
FF0000
FF0000
FF0000
FF0000
FFFFFE
FFFFFE
FFFFFE
FFFFFE
FFFFFE
FFFFFE
ENDCHAR
STARTCHAR 004D
ENCODING 77
SWIDTH 940 0
DWIDTH 47 0
BBX 39 36 4 0
BITMAP
FFE0000FFE
FFE0000FFE
FFE0000FFE
FFF0001FFE
FFF0001FFE
FFF0001FFE
FFF8003FFE
FFF8003FFE
FFF8003FFE
FFFC007EFE
FEFC007EFE
FEFC007EFE
FEFE00FCFE
FE7E00FCFE
FE7E00FCFE
FE7F01F8FE
FE3F01F8FE
FE3F01F8FE
FE3F03F0FE
FE1F83F0FE
FE1F83F0FE
FE1F87E0FE
FE1FC7E0FE
FE0FC7E0FE
FE0FCFC0FE
FE0FEFC0FE
FE07EFC0FE
FE07FF80FE
FE07FF80FE
FE03FF80FE
FE03FF00FE
FE03FF00FE
FE01FF00FE
FE01FE00FE
FE01FE00FE
FE01FE00FE
ENDCHAR
STARTCHAR 004E
ENCODING 78
SWIDTH 800 0
DWIDTH 40 0
BBX 32 36 4 0
BITMAP
FFC0007F
FFE0007F
FFE0007F
FFF0007F
FFF0007F
FFF8007F
FFFC007F
FFFC007F
FFFE007F
FFFE007F
FEFF007F
FEFF807F
FE7F807F
FE3FC07F
FE3FC07F
FE1FE07F
FE1FE07F
FE0FF07F
FE0FF87F
FE07F87F
FE03FC7F
FE03FC7F
FE01FE3F
FE01FE3F
FE00FF3F
FE007FBF
FE007FBF
FE003FFF
FE003FFF
FE001FFF
FE001FFF
FE000FFF
FE0007FF
FE0007FF
FE0003FF
FE0003FF
ENDCHAR
STARTCHAR 004F
ENCODING 79
SWIDTH 780 0
DWIDTH 39 0
BBX 34 36 3 0
BITMAP
001FFE0000
00FFFFC000
01FFFFE000
07FFFFF800
0FFFFFFC00
1FFFFFFC00
1FFC0FFE00
3FF003FF00
3FE001FF00
7FC000FF00
7F8000FF80
7F80007F80
FF80007F80
FF00007FC0
FF00003FC0
FF00003FC0
FF00003FC0
FF00003FC0
FF00003FC0
FF00003FC0
FF00003FC0
FF00003FC0
FF00003FC0
FF00007F80
7F80007F80
7F80007F80
7FC000FF80
3FC001FF00
3FE003FF00
1FF807FE00
1FFFFFFE00
0FFFFFFC00
07FFFFF800
03FFFFF000
00FFFFC000
003FFF0000
ENDCHAR
STARTCHAR 0050
ENCODING 80
SWIDTH 620 0
DWIDTH 31 0
BBX 25 36 4 0
BITMAP
FFFE0000
FFFFE000
FFFFF800
FFFFFC00
FFFFFE00
FFFFFF00
FFFFFF00
FF00FF80
FF007F80
FF007F80
FF007F80
FF003F80
FF007F80
FF007F80
FF007F80
FF00FF80
FF03FF00
FFFFFF00
FFFFFE00
FFFFFC00
FFFFF800
FFFFF000
FFFF8000
FF000000
FF000000
FF000000
FF000000
FF000000
FF000000
FF000000
FF000000
FF000000
FF000000
FF000000
FF000000
FF000000
ENDCHAR
STARTCHAR 0051
ENCODING 81
SWIDTH 780 0
DWIDTH 39 0
BBX 34 45 3 -9
BITMAP
001FFE0000
00FFFFC000
01FFFFE000
07FFFFF800
0FFFFFFC00
1FFFFFFC00
1FFC0FFE00
3FF003FF00
3FE001FF00
7FC000FF00
7F8000FF80
7F80007F80
FF80007F80
FF00007FC0
FF00003FC0
FF00003FC0
FF00003FC0
FF00003FC0
FF00003FC0
FF00003FC0
FF00003FC0
FF00003FC0
FF00003FC0
FF00007F80
7F80007F80
7F80007F80
7FC000FF80
3FC001FF00
3FE003FF00
1FF807FE00
1FFFFFFE00
0FFFFFFC00
07FFFFF800
03FFFFF000
00FFFFC000
003FFFC000
00007FE000
00003FE000
00001FF000
00000FF800
000007FC00
000003FE00
000003FF00
000001FF80
000000FFC0
ENDCHAR
STARTCHAR 0052
ENCODING 82
SWIDTH 660 0
DWIDTH 33 0
BBX 29 36 4 0
BITMAP
FFFE0000
FFFFE000
FFFFF800
FFFFFC00
FFFFFE00
FFFFFF00
FFFFFF00
FF00FF80
FF007F80
FF007F80
FF007F80
FF007F80
FF007F80
FF007F80
FF00FF80
FF01FF00
FFFFFE00
FFFFFE00
FFFFFC00
FFFFF000
FFFFE000
FFFFE000
FF0FF000
FF07F800
FF07F800
FF03FC00
FF01FE00
FF01FE00
FF00FF00
FF007F80
FF007F80
FF003FC0
FF003FE0
FF001FE0
FF000FF0
FF000FF8
ENDCHAR
STARTCHAR 0053
ENCODING 83
SWIDTH 540 0
DWIDTH 27 0
BBX 24 36 2 0
BITMAP
00FFC0
07FFF8
0FFFFE
1FFFFE
3FFFFC
3FFFFC
7FC0FC
7F8018
7F0000
7F0000
7F0000
7F8000
7FC000
7FE000
3FF800
3FFE00
1FFF80
0FFFE0
07FFF0
01FFF8
007FFC
001FFE
0007FE
0003FE
0001FE
0000FF
0000FF
8000FE
E000FE
FC03FE
FFFFFE
FFFFFC
FFFFF8
FFFFF0
7FFFE0
1FFF80
ENDCHAR
STARTCHAR 0054
ENCODING 84
SWIDTH 560 0
DWIDTH 28 0
BBX 27 36 1 0
BITMAP
FFFFFFE0
FFFFFFE0
FFFFFFE0
FFFFFFE0
FFFFFFE0
FFFFFFE0
FFFFFFE0
003F8000
003F8000
003F8000
003F8000
003F8000
003F8000
003F8000
003F8000
003F8000
003F8000
003F8000
003F8000
003F8000
003F8000
003F8000
003F8000
003F8000
003F8000
003F8000
003F8000
003F8000
003F8000
003F8000
003F8000
003F8000
003F8000
003F8000
003F8000
003F8000
ENDCHAR
STARTCHAR 0055
ENCODING 85
SWIDTH 740 0
DWIDTH 37 0
BBX 30 36 4 0
BITMAP
FF0003FC
FF0003FC
FF0003FC
FF0003FC
FF0003FC
FF0003FC
FF0003FC
FF0003FC
FF0003FC
FF0003FC
FF0003FC
FF0003FC
FF0003FC
FF0003FC
FF0003FC
FF0003FC
FF0003FC
FF0003FC
FF0003FC
FF0003FC
FF0003FC
FF0003FC
FF0003FC
FF0003FC
FF0003FC
FF0003F8
7F0007F8
7F8007F8
7FC00FF8
7FE01FF0
3FFFFFF0
1FFFFFE0
0FFFFFC0
07FFFF80
03FFFF00
00FFF800
ENDCHAR
STARTCHAR 0056
ENCODING 86
SWIDTH 640 0
DWIDTH 32 0
BBX 32 36 0 0
BITMAP
FF00007F
FF0000FF
7F0000FF
7F8000FE
7F8000FE
3F8001FE
3FC001FC
3FC001FC
1FC003FC
1FE003F8
1FE003F8
0FE007F8
0FF007F0
0FF007F0
07F00FF0
07F00FE0
07F80FE0
03F81FE0
03F81FC0
01FC1FC0
01FC3FC0
01FC3F80
00FE3F80
00FE3F80
00FE7F00
007E7F00
007F7F00
007F7E00
003FFE00
003FFE00
003FFC00
001FFC00
001FFC00
001FF800
000FF800
000FF800
ENDCHAR
STARTCHAR 0057
ENCODING 87
SWIDTH 960 0
DWIDTH 48 0
BBX 48 36 0 0
BITMAP
FF0007F0007F
FF000FF0007F
7F000FF000FF
7F000FF800FF
7F001FF800FE
7F801FF800FE
3F801FF801FE
3F801FFC01FE
3F803FFC01FC
3FC03FFC01FC
1FC03FFC01FC
1FC03F7E03FC
1FC07F7E03F8
1FE07E7E03F8
0FE07E7E03F8
0FE07E7F07F0
0FE0FE3F07F0
0FE0FC3F07F0
07F0FC3F07F0
07F0FC3F8FE0
07F1FC1F8FE0
07F1F81F8FE0
03F9F81F8FE0
03F9F81FCFC0
03FBF80FDFC0
03FBF00FDFC0
01FBF00FDFC0
01FFF00FDF80
01FFF007FF80
01FFE007FF80
00FFE007FF80
00FFE007FF00
00FFE003FF00
00FFC003FF00
007FC003FF00
007FC001FE00
ENDCHAR
STARTCHAR 0058
ENCODING 88
SWIDTH 660 0
DWIDTH 33 0
BBX 33 36 0 0
BITMAP
7F8000FF00
7FC000FF00
3FC001FE00
1FE003FC00
1FF003FC00
0FF007F800
07F807F800
07F80FF000
03FC0FE000
01FE1FE000
01FE3FC000
00FF3F8000
007F7F8000
007FFF0000
003FFF0000
003FFE0000
001FFC0000
000FFC0000
001FFC0000
001FFC0000
003FFE0000
007FFF0000
007FFF0000
00FF7F8000
01FE3FC000
01FE3FC000
03FC1FE000
07F81FF000
07F80FF000
0FF007F800
0FF007FC00
1FE003FC00
3FC001FE00
3FC001FF00
7F8000FF00
FF0000FF80
ENDCHAR
STARTCHAR 0059
ENCODING 89
SWIDTH 620 0
DWIDTH 31 0
BBX 31 36 0 0
BITMAP
FF0001FE
7F8003FE
7F8003FC
3FC007F8
3FC007F8
1FE00FF0
1FE00FF0
0FF01FE0
0FF01FE0
07F83FC0
07F83FC0
03FC7F80
01FC7F80
01FEFF00
00FEFF00
00FFFE00
007FFC00
007FFC00
003FF800
003FF800
001FF000
001FF000
000FE000
000FE000
000FE000
000FE000
000FE000
000FE000
000FE000
000FE000
000FE000
000FE000
000FE000
000FE000
000FE000
000FE000
ENDCHAR
STARTCHAR 005A
ENCODING 90
SWIDTH 560 0
DWIDTH 28 0
BBX 27 36 1 0
BITMAP
7FFFFFC0
7FFFFFC0
7FFFFFC0
7FFFFFC0
7FFFFFC0
7FFFFFC0
7FFFFF80
00007F80
0000FF00
0001FE00
0001FE00
0003FC00
0007F800
000FF800
000FF000
001FE000
003FC000
003FC000
007F8000
00FF0000
00FF0000
01FE0000
03FC0000
07FC0000
07F80000
0FF00000
1FE00000
1FE00000
3FC00000
7F800000
7FFFFFE0
FFFFFFE0
FFFFFFE0
FFFFFFE0
FFFFFFE0
FFFFFFE0
ENDCHAR
STARTCHAR 005B
ENCODING 91
SWIDTH 320 0
DWIDTH 16 0
BBX 12 44 3 -8
BITMAP
FFF0
FFF0
FFF0
FFF0
FFF0
FE00
FE00
FE00
FE00
FE00
FE00
FE00
FE00
FE00
FE00
FE00
FE00
FE00
FE00
FE00
FE00
FE00
FE00
FE00
FE00
FE00
FE00
FE00
FE00
FE00
FE00
FE00
FE00
FE00
FE00
FE00
FE00
FE00
FE00
FFF0
FFF0
FFF0
FFF0
FFF0
ENDCHAR
STARTCHAR 005C
ENCODING 92
SWIDTH 400 0
DWIDTH 20 0
BBX 20 36 0 0
BITMAP
FE0000
7E0000
7F0000
7F0000
3F8000
3F8000
1F8000
1FC000
1FC000
0FC000
0FE000
0FE000
07F000
07F000
03F000
03F800
03F800
01F800
01FC00
01FC00
00FE00
00FE00
007E00
007F00
007F00
003F00
003F80
003F80
001FC0
001FC0
000FC0
000FE0
000FE0
0007E0
0007F0
0007F0
ENDCHAR
STARTCHAR 005D
ENCODING 93
SWIDTH 320 0
DWIDTH 16 0
BBX 12 44 1 -8
BITMAP
FFF0
FFF0
FFF0
FFF0
FFF0
03F0
03F0
03F0
03F0
03F0
03F0
03F0
03F0
03F0
03F0
03F0
03F0
03F0
03F0
03F0
03F0
03F0
03F0
03F0
03F0
03F0
03F0
03F0
03F0
03F0
03F0
03F0
03F0
03F0
03F0
03F0
03F0
03F0
03F0
FFF0
FFF0
FFF0
FFF0
FFF0
ENDCHAR
STARTCHAR 005E
ENCODING 94
SWIDTH 560 0
DWIDTH 28 0
BBX 25 23 2 13
BITMAP
003C0000
007C0000
007E0000
00FE0000
00FF0000
01FF0000
01FF8000
03FF8000
03EFC000
03E7C000
07E7E000
07C3E000
0FC3F000
0F81F000
1F81F800
1F00F800
3F00FC00
3E007C00
7E007E00
7E003E00
FC003F00
FC001F80
F8001F80
ENDCHAR
STARTCHAR 005F
ENCODING 95
SWIDTH 400 0
DWIDTH 20 0
BBX 21 4 0 -8
BITMAP
FFFFF8
FFFFF8
FFFFF8
FFFFF8
ENDCHAR
STARTCHAR 0060
ENCODING 96
SWIDTH 360 0
DWIDTH 18 0
BBX 14 8 2 30
BITMAP
FF80
7FC0
1FC0
0FE0
07F0
03F8
01FC
007C
ENDCHAR
STARTCHAR 0061
ENCODING 97
SWIDTH 600 0
DWIDTH 30 0
BBX 24 28 2 0
BITMAP
007F80
07FFF0
1FFFF8
1FFFFC
0FFFFE
0FFFFF
0700FF
00007F
00007F
00007F
00007F
007FFF
07FFFF
1FFFFF
3FFFFF
7FFC7F
7FC07F
FF007F
FF007F
FF007F
FF00FF
FF00FF
FF83FF
7FFFFF
7FFFBF
3FFFBF
1FFE1F
0FFC1F
ENDCHAR
STARTCHAR 0062
ENCODING 98
SWIDTH 620 0
DWIDTH 31 0
BBX 25 38 4 0
BITMAP
FE000000
FE000000
FE000000
FE000000
FE000000
FE000000
FE000000
FE000000
FE000000
FE000000
FE0FC000
FE3FF000
FE7FF800
FEFFFC00
FFFFFE00
FFFFFF00
FFE3FF00
FF80FF00
FF007F80
FF007F80
FF007F80
FE003F80
FE003F80
FE003F80
FE003F80
FE003F80
FE003F80
FF007F80
FF007F80
FF007F80
FF80FF80
FFC1FF00
FFFFFF00
FFFFFE00
FFFFFE00
FEFFFC00
FC7FF800
FC3FE000
ENDCHAR
STARTCHAR 0063
ENCODING 99
SWIDTH 500 0
DWIDTH 25 0
BBX 22 28 2 0
BITMAP
001F80
01FFF8
07FFFC
0FFFFC
1FFFF8
3FFFF8
3FF0F0
7FC010
7F8000
7F8000
7F0000
FF0000
FF0000
FF0000
FF0000
FF0000
FF0000
FF0000
7F0000
7F8000
7F8000
7FC018
3FFFF8
3FFFF8
1FFFF8
0FFFF8
07FFF8
01FFE0
ENDCHAR
STARTCHAR 0064
ENCODING 100
SWIDTH 620 0
DWIDTH 31 0
BBX 26 38 2 0
BITMAP
00003FC0
00003FC0
00003FC0
00003FC0
00003FC0
00003FC0
00003FC0
00003FC0
00003FC0
00003FC0
00F83FC0
03FF3FC0
0FFF9FC0
1FFFDFC0
1FFFFFC0
3FFFFFC0
3FF1FFC0
7FC07FC0
7F803FC0
7F803FC0
FF003FC0
FF001FC0
FF001FC0
FF001FC0
FF001FC0
FF001FC0
FF001FC0
FF001FC0
7F003FC0
7F803FC0
7F803FC0
7FC07FC0
3FFBFFC0
3FFFFFC0
1FFFDFC0
0FFFDFC0
07FF9FC0
03FE0FC0
ENDCHAR
STARTCHAR 0065
ENCODING 101
SWIDTH 580 0
DWIDTH 29 0
BBX 25 28 2 0
BITMAP
003F0000
01FFE000
07FFF800
0FFFFC00
1FFFFE00
3FFFFF00
3FC0FF00
7F807F80
7F803F80
7F003F80
7F003F80
FFFFFF80
FFFFFF80
FFFFFF80
FFFFFF80
FFFFFF80
FF000000
FF000000
7F000000
7F800000
7F800000
3FC00300
3FF01F00
1FFFFF00
0FFFFF00
07FFFF00
03FFFF00
00FFFC00
ENDCHAR
STARTCHAR 0066
ENCODING 102
SWIDTH 380 0
DWIDTH 19 0
BBX 20 38 1 0
BITMAP
007FE0
01FFF0
03FFF0
07FFF0
07FFE0
0FFFE0
0FF000
0FF000
0FF000
0FF000
0FF000
3FFFC0
FFFFC0
FFFFC0
FFFFC0
FFFFC0
0FF000
0FF000
0FF000
0FF000
0FF000
0FF000
0FF000
0FF000
0FF000
0FF000
0FF000
0FF000
0FF000
0FF000
0FF000
0FF000
0FF000
0FF000
0FF000
0FF000
0FF000
0FF000
ENDCHAR
STARTCHAR 0067
ENCODING 103
SWIDTH 560 0
DWIDTH 28 0
BBX 28 40 0 -12
BITMAP
003F8000
01FFFFF0
07FFFFF0
0FFFFFF0
1FFFFFF0
1FE0FF00
1FC07F00
3FC07F00
3F807F00
3F807F80
3F807F80
3FC07F00
1FC07F00
1FE0FF00
0FFFFE00
0FFFFE00
07FFFC00
01FFF000
07FF8000
0FC00000
0F800000
1FC00000
1FFFE000
0FFFFF00
0FFFFF80
07FFFFC0
0FFFFFE0
1FFFFFE0
3FE07FE0
7F000FE0
FE0007E0
FE0007E0
FE000FE0
FE001FE0
FF807FC0
7FFFFF80
7FFFFF80
3FFFFE00
0FFFF800
01FFC000
ENDCHAR
STARTCHAR 0068
ENCODING 104
SWIDTH 640 0
DWIDTH 32 0
BBX 25 38 4 0
BITMAP
FE000000
FE000000
FE000000
FE000000
FE000000
FE000000
FE000000
FE000000
FE000000
FE000000
FE07C000
FE3FF800
FE7FFC00
FEFFFE00
FFFFFF00
FFFFFF00
FFE1FF80
FF80FF80
FF807F80
FF007F80
FF003F80
FF003F80
FE003F80
FE003F80
FE003F80
FE003F80
FE003F80
FE003F80
FE003F80
FE003F80
FE003F80
FE003F80
FE003F80
FE003F80
FE003F80
FE003F80
FE003F80
FE003F80
ENDCHAR
STARTCHAR 0069
ENCODING 105
SWIDTH 300 0
DWIDTH 15 0
BBX 8 38 4 0
BITMAP
7C
FE
FF
FF
FF
FE
7E
00
00
00
00
FE
FE
FE
FE
FE
FE
FE
FE
FE
FE
FE
FE
FE
FE
FE
FE
FE
FE
FE
FE
FE
FE
FE
FE
FE
FE
FE
ENDCHAR
STARTCHAR 006A
ENCODING 106
SWIDTH 300 0
DWIDTH 15 0
BBX 15 50 -3 -12
BITMAP
00F8
01FC
01FE
01FE
01FE
01FC
00FC
0000
0000
0000
0000
01FC
01FC
01FC
01FC
01FC
01FC
01FC
01FC
01FC
01FC
01FC
01FC
01FC
01FC
01FC
01FC
01FC
01FC
01FC
01FC
01FC
01FC
01FC
01FC
01FC
01FC
01FC
01FC
01FC
01FC
01FC
03FC
07FC
FFFC
FFF8
FFF8
FFF0
FFE0
FF80
ENDCHAR
STARTCHAR 006B
ENCODING 107
SWIDTH 620 0
DWIDTH 31 0
BBX 27 38 4 0
BITMAP
FE000000
FE000000
FE000000
FE000000
FE000000
FE000000
FE000000
FE000000
FE000000
FE000000
FE000000
FE007FC0
FE00FF80
FE01FF00
FE03FE00
FE03FC00
FE07F800
FE0FF000
FE1FE000
FE3FC000
FE7F8000
FEFF0000
FEFF0000
FFFF0000
FFFF8000
FFFFC000
FFFFC000
FFDFE000
FF8FF000
FE0FF800
FE07F800
FE03FC00
FE03FE00
FE01FF00
FE00FF00
FE007F80
FE007FC0
FE003FE0
ENDCHAR
STARTCHAR 006C
ENCODING 108
SWIDTH 300 0
DWIDTH 15 0
BBX 7 38 4 0
BITMAP
FE
FE
FE
FE
FE
FE
FE
FE
FE
FE
FE
FE
FE
FE
FE
FE
FE
FE
FE
FE
FE
FE
FE
FE
FE
FE
FE
FE
FE
FE
FE
FE
FE
FE
FE
FE
FE
FE
ENDCHAR
STARTCHAR 006D
ENCODING 109
SWIDTH 980 0
DWIDTH 49 0
BBX 41 28 4 0
BITMAP
0007C007E000
FC3FF81FFC00
FCFFFC7FFE00
FDFFFEFFFF00
FFFFFFFFFF00
FFFFFFFFFF80
FFE3FFF1FF80
FF80FFC07F80
FF80FF807F80
FF007F803F80
FF007F803F80
FF007F803F80
FE007F003F80
FE007F003F80
FE007F003F80
FE007F003F80
FE007F003F80
FE007F003F80
FE007F003F80
FE007F003F80
FE007F003F80
FE007F003F80
FE007F003F80
FE007F003F80
FE007F003F80
FE007F003F80
FE007F003F80
FE007F003F80
ENDCHAR
STARTCHAR 006E
ENCODING 110
SWIDTH 640 0
DWIDTH 32 0
BBX 25 28 4 0
BITMAP
0007C000
FC3FF800
FCFFFC00
FDFFFE00
FFFFFF00
FFFFFF00
FFE1FF80
FF80FF80
FF807F80
FF007F80
FF003F80
FF003F80
FE003F80
FE003F80
FE003F80
FE003F80
FE003F80
FE003F80
FE003F80
FE003F80
FE003F80
FE003F80
FE003F80
FE003F80
FE003F80
FE003F80
FE003F80
FE003F80
ENDCHAR
STARTCHAR 006F
ENCODING 111
SWIDTH 600 0
DWIDTH 30 0
BBX 27 28 2 0
BITMAP
001F0000
01FFF000
07FFF800
0FFFFE00
1FFFFF00
3FFFFF00
3FF1FF80
7FC07F80
7F803FC0
7F803FC0
7F001FC0
FF001FE0
FF001FE0
FF001FE0
FF001FE0
FF001FE0
FF001FE0
FF001FE0
7F001FC0
7F803FC0
7F803FC0
3FC07F80
3FFFFF80
1FFFFF00
0FFFFE00
07FFFC00
03FFF800
00FFE000
ENDCHAR
STARTCHAR 0070
ENCODING 112
SWIDTH 620 0
DWIDTH 31 0
BBX 25 40 4 -12
BITMAP
000FC000
FC3FF000
FE7FF800
FEFFFC00
FFFFFE00
FFFFFF00
FFE3FF00
FF80FF00
FF007F80
FF007F80
FF007F80
FE003F80
FE003F80
FE003F80
FE003F80
FE003F80
FE003F80
FF007F80
FF007F80
FF007F80
FF80FF80
FFC0FF00
FFFFFF00
FFFFFE00
FFFFFE00
FEFFFC00
FE7FF800
FE3FE000
FE000000
FE000000
FE000000
FE000000
FE000000
FE000000
FE000000
FE000000
FE000000
FE000000
FE000000
FE000000
ENDCHAR
STARTCHAR 0071
ENCODING 113
SWIDTH 620 0
DWIDTH 31 0
BBX 26 40 2 -12
BITMAP
00FC0000
03FF1FC0
0FFF9FC0
1FFFDFC0
1FFFFFC0
3FFFFFC0
3FF1FFC0
7FC07FC0
7F803FC0
7F803FC0
FF003FC0
FF001FC0
FF001FC0
FF001FC0
FF001FC0
FF001FC0
FF001FC0
FF001FC0
7F003FC0
7F803FC0
7F803FC0
7FC07FC0
3FF1FFC0
3FFFFFC0
1FFFDFC0
0FFFBFC0
07FFBFC0
03FE3FC0
00003FC0
00003FC0
00003FC0
00003FC0
00003FC0
00003FC0
00003FC0
00003FC0
00003FC0
00003FC0
00003FC0
00003FC0
ENDCHAR
STARTCHAR 0072
ENCODING 114
SWIDTH 440 0
DWIDTH 22 0
BBX 18 28 4 0
BITMAP
0007C0
FC1FC0
FC7FC0
FCFF80
FDFF80
FFFF80
FFFF80
FFF000
FFC000
FF8000
FF0000
FF0000
FF0000
FE0000
FE0000
FE0000
FE0000
FE0000
FE0000
FE0000
FE0000
FE0000
FE0000
FE0000
FE0000
FE0000
FE0000
FE0000
ENDCHAR
STARTCHAR 0073
ENCODING 115
SWIDTH 480 0
DWIDTH 24 0
BBX 21 28 2 0
BITMAP
00FE00
0FFFE0
1FFFF8
3FFFF0
7FFFF0
7FFFE0
FF01E0
FF0020
FF0000
FF8000
7FE000
7FFC00
3FFF00
3FFFC0
0FFFE0
03FFF0
00FFF0
003FF8
000FF8
0007F8
0003F8
C007F8
FC0FF8
FFFFF0
FFFFF0
FFFFE0
FFFFC0
3FFF00
ENDCHAR
STARTCHAR 0074
ENCODING 116
SWIDTH 420 0
DWIDTH 21 0
BBX 19 33 1 0
BITMAP
03E000
03E000
07E000
07E000
07E000
0FE000
1FFFE0
7FFFE0
FFFFE0
FFFFE0
FFFFE0
0FE000
0FE000
0FE000
0FE000
0FE000
0FE000
0FE000
0FE000
0FE000
0FE000
0FE000
0FE000
0FE000
0FE000
0FE000
0FF000
0FFDE0
0FFFE0
07FFE0
07FFE0
03FFE0
01FFE0
ENDCHAR
STARTCHAR 0075
ENCODING 117
SWIDTH 640 0
DWIDTH 32 0
BBX 25 27 4 0
BITMAP
FE003F80
FE003F80
FE003F80
FE003F80
FE003F80
FE003F80
FE003F80
FE003F80
FE003F80
FE003F80
FE003F80
FE003F80
FE003F80
FE007F80
FE007F80
FE007F80
FE007F80
FE007F80
FF007F80
FF00FF80
FF81FF80
FFEFFF80
7FFFFF80
7FFFFF80
3FFF9F80
1FFF1F80
0FFC1F80
ENDCHAR
STARTCHAR 0076
ENCODING 118
SWIDTH 560 0
DWIDTH 28 0
BBX 28 27 0 0
BITMAP
FF000FF0
7F000FF0
7F800FE0
7F801FE0
3F801FE0
3FC01FC0
1FC03FC0
1FC03F80
1FE03F80
0FE07F80
0FE07F00
07F07F00
07F0FF00
07F0FE00
03F8FE00
03F9FC00
03F9FC00
01FDFC00
01FDF800
00FFF800
00FFF800
00FFF000
007FF000
007FE000
007FE000
003FE000
003FC000
ENDCHAR
STARTCHAR 0077
ENCODING 119
SWIDTH 840 0
DWIDTH 42 0
BBX 41 27 1 0
BITMAP
FE00FF803F80
FE00FF803F80
FF00FF807F80
7F01FF807F00
7F01FFC07F00
7F01FFC0FF00
7F81F7C0FE00
3F83F7C0FE00
3F83F7E0FE00
3F83E7E1FE00
1FC3E3E1FC00
1FC7E3E1FC00
1FC7E3F1FC00
1FC7C3F3F800
0FE7C1F3F800
0FEFC1F3F800
0FEFC1F3F000
07EF81FBF000
07EF81FFF000
07EF80FFF000
07FF80FFE000
03FF80FFE000
03FF00FFE000
03FF007FC000
01FF007FC000
01FF007FC000
01FE007FC000
ENDCHAR
STARTCHAR 0078
ENCODING 120
SWIDTH 560 0
DWIDTH 28 0
BBX 27 27 1 0
BITMAP
FF803FE0
7F803FC0
3FC07F80
3FC0FF80
1FE0FF00
0FF1FE00
0FF1FE00
07FBFC00
07FFF800
03FFF800
01FFF000
01FFE000
00FFE000
00FFE000
00FFE000
01FFF000
03FFF800
03FFF800
07FBFC00
0FF1FE00
0FF1FE00
1FE0FF00
3FC0FF80
3FC07F80
7F803FC0
FF803FE0
FF001FE0
ENDCHAR
STARTCHAR 0079
ENCODING 121
SWIDTH 560 0
DWIDTH 28 0
BBX 28 39 0 -12
BITMAP
FF000FF0
7F800FF0
7F800FE0
3F801FE0
3FC01FE0
3FC01FC0
1FC03FC0
1FE03FC0
0FE03F80
0FE07F80
0FF07F00
07F07F00
07F0FF00
03F8FE00
03F8FE00
03F9FE00
01FDFC00
01FDFC00
00FDF800
00FFF800
00FFF800
007FF000
007FF000
003FF000
003FE000
003FE000
001FC000
001FC000
003FC000
003F8000
007F8000
00FF8000
01FF0000
3FFE0000
3FFE0000
3FFC0000
3FF80000
3FE00000
3F800000
ENDCHAR
STARTCHAR 007A
ENCODING 122
SWIDTH 480 0
DWIDTH 24 0
BBX 22 27 1 0
BITMAP
7FFFF8
7FFFF8
7FFFF8
7FFFF8
7FFFF8
0007F8
000FF0
001FE0
001FE0
003FC0
007F80
00FF00
00FF00
01FE00
03FC00
03F800
07F800
0FF000
1FE000
1FE000
3FC000
7FFFFC
FFFFFC
FFFFFC
FFFFFC
FFFFFC
FFFFFC
ENDCHAR
STARTCHAR 007B
ENCODING 123
SWIDTH 380 0
DWIDTH 19 0
BBX 17 44 1 -8
BITMAP
000780
007F80
01FF80
01FF80
03FF80
03FF80
03FC00
03F800
03F800
03F000
03F000
03F000
03F000
03F000
03F000
03F000
03F000
07F000
0FF000
FFF000
FFE000
FF8000
FF0000
FFC000
FFE000
1FF000
07F000
03F000
03F000
03F000
03F000
03F000
03F000
03F000
03F000
03F000
03F800
03F800
03FF80
03FF80
01FF80
01FF80
00FF80
001F80
ENDCHAR
STARTCHAR 007C
ENCODING 124
SWIDTH 540 0
DWIDTH 27 0
BBX 5 49 11 -11
BITMAP
F8
F8
F8
F8
F8
F8
F8
F8
F8
F8
F8
F8
F8
F8
F8
F8
F8
F8
F8
F8
F8
F8
F8
F8
F8
F8
F8
F8
F8
F8
F8
F8
F8
F8
F8
F8
F8
F8
F8
F8
F8
F8
F8
F8
F8
F8
F8
F8
F8
ENDCHAR
STARTCHAR 007D
ENCODING 125
SWIDTH 380 0
DWIDTH 19 0
BBX 17 44 2 -8
BITMAP
F00000
FF0000
FF8000
FFC000
FFC000
FFE000
1FE000
0FE000
0FE000
0FE000
0FE000
0FE000
0FE000
0FE000
0FE000
0FE000
0FE000
0FF000
07F800
07FF80
03FF80
00FF80
007F80
03FF80
07FF80
07FC00
0FF000
0FE000
0FE000
0FE000
0FE000
0FE000
0FE000
0FE000
0FE000
0FE000
0FE000
1FE000
FFE000
FFC000
FFC000
FF8000
FF0000
FC0000
ENDCHAR
STARTCHAR 007E
ENCODING 126
SWIDTH 560 0
DWIDTH 28 0
BBX 24 9 2 13
BITMAP
0F8000
3FF001
7FFE07
FFFFFF
FFFFFF
FFFFFF
E03FFF
8007FC
000060
ENDCHAR
STARTCHAR 00A0
ENCODING 160
SWIDTH 240 0
DWIDTH 12 0
BBX 0 0 0 0
BITMAP
ENDCHAR
STARTCHAR 00A1
ENCODING 161
SWIDTH 280 0
DWIDTH 14 0
BBX 8 36 3 -9
BITMAP
7E
FF
FF
FF
FF
FF
7F
3E
00
00
00
00
7E
7E
7E
7E
7E
7E
7E
7E
7E
7F
7F
7F
FF
FF
FF
FF
FF
FF
FF
FF
FF
FF
FF
FF
ENDCHAR
STARTCHAR 00A2
ENCODING 162
SWIDTH 560 0
DWIDTH 28 0
BBX 22 36 3 0
BITMAP
001E00
001E00
001E00
001E00
00FFF0
03FFFC
0FFFFC
1FFFFC
1FFFF8
3FFFF8
3FE030
7FC000
7F8000
7F8000
7F0000
7F0000
FF0000
FF0000
FF0000
7F0000
7F0000
7F8000
7F8000
7F8000
7FC00C
3FF07C
3FFFFC
1FFFFC
0FFFFC
07FFFC
01FFF8
003FC0
001E00
001E00
001E00
001E00
ENDCHAR
STARTCHAR 00A3
ENCODING 163
SWIDTH 560 0
DWIDTH 28 0
BBX 26 36 2 0
BITMAP
001FF800
00FFFF00
01FFFF00
03FFFF00
03FFFF00
07FFFE00
07F80E00
07F00000
0FF00000
0FF00000
0FF00000
0FF00000
0FF00000
0FF00000
0FF00000
FFFFF800
FFFFF800
FFFFF800
FFFFF800
FFFFF800
0FF00000
0FF00000
0FF00000
0FF00000
0FF00000
0FF00000
0FE00000
1FE00000
3FC00000
7F000000
FFFFFFC0
FFFFFFC0
FFFFFFC0
FFFFFFC0
FFFFFFC0
FFFFFFC0
ENDCHAR
STARTCHAR 00A4
ENCODING 164
SWIDTH 560 0
DWIDTH 28 0
BBX 23 23 3 6
BITMAP
100030
380078
7DFE7C
FFFFFE
7FFFFC
3FFFF8
1FFFF0
3F83F0
3F01F8
3E00F8
3E00F8
3E00F8
3E00F8
3E01F8
3F01F0
1F87F0
1FFFF0
3FFFF8
7FFFFC
FFFFFC
7CFC78
380030
100000
ENDCHAR
STARTCHAR 00A5
ENCODING 165
SWIDTH 560 0
DWIDTH 28 0
BBX 28 36 0 0
BITMAP
FF0007F0
7F000FF0
7F800FE0
3F801FE0
3FC01FC0
1FC03FC0
1FE03F80
0FE03F80
0FE07F00
07F07F00
07F0FE00
03F8FE00
03F9FC00
01FDFC00
01FFF800
00FFF800
00FFF000
007FF000
007FE000
07FFFF00
07FFFF00
07FFFF00
07FFFF00
001FC000
001FC000
001FC000
07FFFF00
07FFFF00
07FFFF00
07FFFF00
07FFFF00
001FC000
001FC000
001FC000
001FC000
001FC000
ENDCHAR
STARTCHAR 00A6
ENCODING 166
SWIDTH 540 0
DWIDTH 27 0
BBX 5 49 11 -11
BITMAP
F8
F8
F8
F8
F8
F8
F8
F8
F8
F8
F8
F8
F8
F8
F8
F8
F8
F8
F8
F8
00
00
00
00
00
00
00
00
00
F8
F8
F8
F8
F8
F8
F8
F8
F8
F8
F8
F8
F8
F8
F8
F8
F8
F8
F8
F8
ENDCHAR
STARTCHAR 00A7
ENCODING 167
SWIDTH 480 0
DWIDTH 24 0
BBX 19 38 3 0
BITMAP
07FE00
1FFFC0
3FFFC0
7FFFC0
FF1FC0
FC0380
FC0000
FC0000
FE0000
7F0000
7FE000
3FF800
1FFE00
3FFF00
7FFF80
7C3FC0
FC0FC0
F807E0
F807E0
FC07E0
FE07E0
7F07E0
7FCFC0
3FFFC0
1FFF80
07FF00
01FF80
007FC0
001FE0
000FE0
0007E0
0007E0
C00FE0
F81FC0
FFFFC0
FFFF80
FFFF00
3FFC00
ENDCHAR
STARTCHAR 00A8
ENCODING 168
SWIDTH 600 0
DWIDTH 30 0
BBX 17 7 7 31
BITMAP
100C00
FC3F00
FC3F00
FE3F80
FE3F00
FC3F00
781E00
ENDCHAR
STARTCHAR 00A9
ENCODING 169
SWIDTH 820 0
DWIDTH 41 0
BBX 37 36 2 0
BITMAP
0003FF0000
001FFFE000
007FFFF800
00FE01FC00
03F0007E00
07C0001F00
0F80000F80
0F01FF07C0
1E03FFC3E0
1C0FFF81E0
3C0FC780F0
381F0000F0
783E000070
703E000078
703C000078
703C000078
F07C000038
F07C000038
F07C000038
F07C000038
703C000078
703C000078
703C000078
783E000070
781E0000F0
3C1F8180F0
3C0FFF81E0
1E07FF81E0
1F03FF83C0
0F803807C0
07C0000F80
03E0003F00
01FC00FE00
00FFFFF800
003FFFF000
000FFF8000
ENDCHAR
STARTCHAR 00AA
ENCODING 170
SWIDTH 380 0
DWIDTH 19 0
BBX 16 18 1 18
BITMAP
07F8
3FFC
7FFE
3FFE
303F
001F
001F
0FFF
3FFF
7FFF
FC1F
F81F
F83F
FC7F
FFFF
7FEF
3FCF
0E00
ENDCHAR
STARTCHAR 00AB
ENCODING 171
SWIDTH 600 0
DWIDTH 30 0
BBX 27 23 2 2
BITMAP
00400600
00F00F00
01FC1FC0
03FC3FC0
07F83F80
0FF07F80
0FE0FF00
1FE1FE00
3FC3FC00
7F83F800
FF07F800
FF0FF000
7F87F800
3F83FC00
3FC1FE00
1FE1FE00
0FF0FF00
07F87F80
03F83FC0
03FC1FE0
01F80F80
00E00F00
00000400
ENDCHAR
STARTCHAR 00AC
ENCODING 172
SWIDTH 560 0
DWIDTH 28 0
BBX 24 14 2 6
BITMAP
FFFFFF
FFFFFF
FFFFFF
FFFFFF
FFFFFF
00001F
00001F
00001F
00001F
00001F
00001F
00001F
00001F
00001F
ENDCHAR
STARTCHAR 00AD
ENCODING 173
SWIDTH 320 0
DWIDTH 16 0
BBX 14 6 1 10
BITMAP
FFFC
FFFC
FFFC
FFFC
FFFC
FFFC
ENDCHAR
STARTCHAR 00AE
ENCODING 174
SWIDTH 820 0
DWIDTH 41 0
BBX 37 36 2 0
BITMAP
0003FF0000
001FFFE000
007FFFF800
00FE01FC00
03F0007E00
07C0001F00
0F80000F80
0F0FFC07C0
1E0FFF03E0
1C0FFF81E0
3C0F1FC0F0
380F07C0F0
780F03C070
700F03C078
700F03C078
700F03C078
F00F07C038
F00FFF8038
F00FFF0038
F00FFC0038
700FFE0078
700F1F0078
700F0F0078
780F0F8070
780F0780F0
3C0F03C0F0
3C0F03E1E0
1E0F01E1E0
1F0F01F3C0
0F800007C0
07C0000F80
03E0003F00
01FC00FE00
00FFFFF800
003FFFF000
000FFF8000
ENDCHAR
STARTCHAR 00AF
ENCODING 175
SWIDTH 500 0
DWIDTH 25 0
BBX 25 5 0 38
BITMAP
FFFFFF80
FFFFFF80
FFFFFF80
FFFFFF80
FFFFFF80
ENDCHAR
STARTCHAR 00B0
ENCODING 176
SWIDTH 420 0
DWIDTH 21 0
BBX 17 17 2 19
BITMAP
07F000
1FFC00
3FFE00
7FFF00
7F7F80
FC1F80
F80F80
F80F80
F80F80
F80F80
FC0F80
7E1F80
7FFF00
3FFF00
1FFE00
0FF800
01E000
ENDCHAR
STARTCHAR 00B1
ENCODING 177
SWIDTH 560 0
DWIDTH 28 0
BBX 24 31 2 0
BITMAP
003E00
003E00
003E00
003E00
003E00
003E00
003E00
003E00
003E00
FFFFFF
FFFFFF
FFFFFF
FFFFFF
FFFFFF
FFFFFF
003E00
003E00
003E00
003E00
003E00
003E00
003E00
003E00
003E00
000000
000000
FFFFFF
FFFFFF
FFFFFF
FFFFFF
FFFFFF
ENDCHAR
STARTCHAR 00B2
ENCODING 178
SWIDTH 360 0
DWIDTH 18 0
BBX 16 22 1 21
BITMAP
03C0
1FF8
7FFC
FFFE
7FFE
3C7E
103F
003E
007E
007E
00FC
01FC
03F8
07F0
0FE0
1FC0
3F00
7FFF
FFFF
FFFF
FFFF
FFFF
ENDCHAR
STARTCHAR 00B3
ENCODING 179
SWIDTH 360 0
DWIDTH 18 0
BBX 16 23 1 20
BITMAP
0380
1FF8
7FFC
7FFE
3FFE
303E
003E
003E
007E
0FFC
0FF0
0FF0
0FFC
007E
003F
001F
803F
E03F
FFFF
FFFE
FFFC
3FF8
0300
ENDCHAR
STARTCHAR 00B4
ENCODING 180
SWIDTH 360 0
DWIDTH 18 0
BBX 14 8 2 30
BITMAP
07FC
0FF8
0FF0
1FC0
3F80
7F00
FE00
F800
ENDCHAR
STARTCHAR 00B5
ENCODING 181
SWIDTH 660 0
DWIDTH 33 0
BBX 25 39 4 -12
BITMAP
FE003F80
FE003F80
FE003F80
FE003F80
FE003F80
FE003F80
FE003F80
FE003F80
FE003F80
FE003F80
FE003F80
FE003F80
FE003F80
FE003F80
FE003F80
FE007F80
FE007F80
FE007F80
FF007F80
FF00FF80
FF81FF80
FFEFFF80
FFFFFF80
FFFFFF80
FFFF9F80
FFFF9F80
FEFE1F80
FE000000
FE000000
FE000000
FE000000
FE000000
FE000000
FE000000
FE000000
FE000000
FE000000
FE000000
FE000000
ENDCHAR
STARTCHAR 00B6
ENCODING 182
SWIDTH 640 0
DWIDTH 32 0
BBX 25 44 3 -6
BITMAP
01FFFF80
0FFFFF80
1FFFFF80
3FFFFF80
7FFFFF80
7FFFC380
7FFFC380
FFFFC380
FFFFC380
FFFFC380
FFFFC380
FFFFC380
FFFFC380
FFFFC380
FFFFC380
FFFFC380
FFFFC380
FFFFC380
7FFFC380
7FFFC380
7FFFC380
3FFFC380
1FFFC380
0FFFC380
01FBC380
0003C380
0003C380
0003C380
0003C380
0003C380
0003C380
0003C380
0003C380
0003C380
0003C380
0003C380
0003C380
0003C380
0003C380
0003C380
0003C380
0003C380
0003C380
0003C380
ENDCHAR
STARTCHAR 00B7
ENCODING 183
SWIDTH 280 0
DWIDTH 14 0
BBX 8 8 3 13
BITMAP
3C
7E
FF
FF
FF
FF
FF
7E
ENDCHAR
STARTCHAR 00B8
ENCODING 184
SWIDTH 200 0
DWIDTH 10 0
BBX 11 12 -1 -12
BITMAP
1F00
3E00
3F80
7FC0
0FE0
07E0
07E0
87E0
FFE0
FFC0
FFC0
FF00
ENDCHAR
STARTCHAR 00B9
ENCODING 185
SWIDTH 360 0
DWIDTH 18 0
BBX 12 21 2 21
BITMAP
01F0
07F0
0FF0
1FF0
3FF0
FDF0
7DF0
33F0
03F0
03F0
03F0
03F0
03F0
03F0
03F0
03F0
03F0
03F0
03F0
03F0
03F0
ENDCHAR
STARTCHAR 00BA
ENCODING 186
SWIDTH 380 0
DWIDTH 19 0
BBX 17 18 1 18
BITMAP
07F000
1FFC00
3FFE00
3FFF00
7E1F00
7C1F80
7C0F80
F80F80
F80F80
F80F80
F80F80
7C0F80
7C1F00
7F7F00
3FFE00
1FFE00
0FF800
01C000
ENDCHAR
STARTCHAR 00BB
ENCODING 187
SWIDTH 600 0
DWIDTH 30 0
BBX 27 23 2 2
BITMAP
0C004000
3E01E000
7E07F000
FF07F800
7F83F800
3FC3FC00
1FE1FE00
0FF0FF00
07F07F80
07F83FC0
03FC3FC0
01FC1FE0
03FC3FC0
07F87F80
0FF07F00
1FE0FF00
1FC1FE00
3FC3FC00
7F87F800
FF07F000
7E03F000
1C01E000
04004000
ENDCHAR
STARTCHAR 00BC
ENCODING 188
SWIDTH 820 0
DWIDTH 41 0
BBX 40 36 1 0
BITMAP
01F0003F00
03F0003F00
07F0007E00
1FF0007E00
3FF000FC00
7FF000FC00
FFF001F800
7BF001F000
33F003F000
03F007E000
03F007E000
03F00FC000
03F00FC000
03F01F8000
03F01F81F8
03F03F01F8
03F03E03F8
03F07E07F8
03F0FC07F8
03F0FC0FF8
03F1F81FF8
03F1F81FF8
0003F03DF8
0003F079F8
0007E079F8
0007C0F1F8
000FC1F1F8
001F81E1F8
001F83FFFF
003F03FFFF
003F03FFFF
007E03FFFF
007E0001F8
00FC0001F8
00F80001F8
01F80001F8
ENDCHAR
STARTCHAR 00BD
ENCODING 189
SWIDTH 860 0
DWIDTH 43 0
BBX 41 36 1 0
BITMAP
01F0003F0000
03F0003F0000
07F0007E0000
1FF0007E0000
3FF000FC0000
7FF000FC0000
FFF001F80000
7BF001F00000
33F003F00000
03F007E00000
03F007E00000
03F00FC00000
03F00FC00000
03F01F800000
03F01F83F000
03F03F1FFC00
03F03E3FFE00
03F07E7FFF00
03F0FC3FFF00
03F0FC1C3F00
03F1F8003F00
03F1F8003F00
0003F0003F00
0003F0007F00
0007E0007E00
0007C000FC00
000FC001F800
001F8003F000
001F8007E000
003F000FC000
003F001F8000
007E007FFF80
007E007FFF80
00FC007FFF80
00F8007FFF80
01F8007FFF80
ENDCHAR
STARTCHAR 00BE
ENCODING 190
SWIDTH 840 0
DWIDTH 42 0
BBX 40 36 2 0
BITMAP
0FE0001F80
3FF8001F80
FFFC003F00
7FFE003E00
387E007E00
203E00FC00
003E00FC00
007E01F800
00FC01F800
1FF803F000
1FE003F000
1FF807E000
1FFC07C000
007E0FC000
003F1F81F8
003F1F83F8
C03F3F03F8
F07E3F07F8
FFFE7E0FF8
FFFE7E0FF8
FFF8FC1FF8
1FE0F83DF8
0001F83DF8
0003F079F8
0003F0F9F8
0007E0F1F8
0007E1E1F8
000FC3E1F8
000FC3FFFF
001F83FFFF
001F03FFFF
003F03FFFF
007E0001F8
007E0001F8
00FC0001F8
00FC0001F8
ENDCHAR
STARTCHAR 00BF
ENCODING 191
SWIDTH 460 0
DWIDTH 23 0
BBX 23 37 1 -10
BITMAP
003E00
007F00
007F80
00FF80
007F80
007F80
007F00
003E00
000000
000000
000000
000000
003F00
003F00
003F00
007F00
007F00
00FF00
03FE00
07FC00
0FF800
1FF000
3FE000
7F8000
7F0000
7F0000
FE0000
FE0000
FF0000
FF0078
7FE7F8
7FFFFC
3FFFFC
1FFFFE
0FFFF8
07FFC0
003800
ENDCHAR
STARTCHAR 00C0
ENCODING 192
SWIDTH 680 0
DWIDTH 34 0
BBX 34 47 0 0
BITMAP
00FF000000
00FF800000
003FC00000
001FC00000
000FE00000
0007F00000
0003F80000
0000FC0000
0000000000
0000000000
0000000000
000FFC0000
000FFC0000
000FFE0000
001FFE0000
001FFE0000
001FFF0000
003FFF0000
003FBF0000
003F3F8000
007F3F8000
007F1FC000
007F1FC000
00FE1FC000
00FE0FE000
00FE0FE000
01FC0FE000
01FC0FF000
03FC07F000
03F807F000
03F807F800
07F803F800
07FFFFF800
07FFFFFC00
0FFFFFFC00
0FFFFFFC00
0FFFFFFE00
1FFFFFFE00
1FFFFFFF00
1FC000FF00
3FC000FF00
3FC0007F80
3FC0007F80
7F80007F80
7F80003FC0
7F80003FC0
FF00003FC0
ENDCHAR
STARTCHAR 00C1
ENCODING 193
SWIDTH 680 0
DWIDTH 34 0
BBX 34 47 0 0
BITMAP
00003FE000
00003FC000
00007F8000
0000FF0000
0001FE0000
0001F80000
0003F00000
0007E00000
0000000000
0000000000
0000000000
000FFC0000
000FFC0000
000FFE0000
001FFE0000
001FFE0000
001FFF0000
003FFF0000
003FBF0000
003F3F8000
007F3F8000
007F1FC000
007F1FC000
00FE1FC000
00FE0FE000
00FE0FE000
01FC0FE000
01FC0FF000
03FC07F000
03F807F000
03F807F800
07F803F800
07FFFFF800
07FFFFFC00
0FFFFFFC00
0FFFFFFC00
0FFFFFFE00
1FFFFFFE00
1FFFFFFF00
1FC000FF00
3FC000FF00
3FC0007F80
3FC0007F80
7F80007F80
7F80003FC0
7F80003FC0
FF00003FC0
ENDCHAR
STARTCHAR 00C2
ENCODING 194
SWIDTH 680 0
DWIDTH 34 0
BBX 34 47 0 0
BITMAP
0007FC0000
000FFE0000
001FFE0000
001FFF0000
003FBF8000
007F1FC000
00FC0FE000
01F803F000
0000000000
0000000000
0000000000
000FFC0000
000FFC0000
000FFE0000
001FFE0000
001FFE0000
001FFF0000
003FFF0000
003FBF0000
003F3F8000
007F3F8000
007F1FC000
007F1FC000
00FE1FC000
00FE0FE000
00FE0FE000
01FC0FE000
01FC0FF000
03FC07F000
03F807F000
03F807F800
07F803F800
07FFFFF800
07FFFFFC00
0FFFFFFC00
0FFFFFFC00
0FFFFFFE00
1FFFFFFE00
1FFFFFFF00
1FC000FF00
3FC000FF00
3FC0007F80
3FC0007F80
7F80007F80
7F80003FC0
7F80003FC0
FF00003FC0
ENDCHAR
STARTCHAR 00C3
ENCODING 195
SWIDTH 680 0
DWIDTH 34 0
BBX 34 46 0 0
BITMAP
001F01E000
007FC1E000
007FFFE000
00FFFFC000
00FFFFC000
01F0FF8000
01E03F0000
0000000000
0000000000
0000000000
000FFC0000
000FFC0000
000FFE0000
001FFE0000
001FFE0000
001FFF0000
003FFF0000
003FBF0000
003F3F8000
007F3F8000
007F1FC000
007F1FC000
00FE1FC000
00FE0FE000
00FE0FE000
01FC0FE000
01FC0FF000
03FC07F000
03F807F000
03F807F800
07F803F800
07FFFFF800
07FFFFFC00
0FFFFFFC00
0FFFFFFC00
0FFFFFFE00
1FFFFFFE00
1FFFFFFF00
1FC000FF00
3FC000FF00
3FC0007F80
3FC0007F80
7F80007F80
7F80003FC0
7F80003FC0
FF00003FC0
ENDCHAR
STARTCHAR 00C4
ENCODING 196
SWIDTH 680 0
DWIDTH 34 0
BBX 34 46 0 0
BITMAP
003C0F0000
007E1F8000
007F1FC000
007F1FC000
007F1F8000
003E1F8000
0000040000
0000000000
0000000000
0000000000
000FFC0000
000FFC0000
000FFE0000
001FFE0000
001FFE0000
001FFF0000
003FFF0000
003FBF0000
003F3F8000
007F3F8000
007F1FC000
007F1FC000
00FE1FC000
00FE0FE000
00FE0FE000
01FC0FE000
01FC0FF000
03FC07F000
03F807F000
03F807F800
07F803F800
07FFFFF800
07FFFFFC00
0FFFFFFC00
0FFFFFFC00
0FFFFFFE00
1FFFFFFE00
1FFFFFFF00
1FC000FF00
3FC000FF00
3FC0007F80
3FC0007F80
7F80007F80
7F80003FC0
7F80003FC0
FF00003FC0
ENDCHAR
STARTCHAR 00C5
ENCODING 197
SWIDTH 680 0
DWIDTH 34 0
BBX 34 44 0 0
BITMAP
0001F00000
0007FC0000
000FFC0000
000FBE0000
001E1E0000
001E0E0000
001E1E0000
001E1E0000
000FFE0000
000FFC0000
000FFE0000
001FFE0000
001FFE0000
001FFF0000
003FFF0000
003FBF0000
003F3F8000
007F3F8000
007F1FC000
007F1FC000
00FE1FC000
00FE0FE000
00FE0FE000
01FC0FE000
01FC0FF000
03FC07F000
03F807F000
03F807F800
07F803F800
07FFFFF800
07FFFFFC00
0FFFFFFC00
0FFFFFFC00
0FFFFFFE00
1FFFFFFE00
1FFFFFFF00
1FC000FF00
3FC000FF00
3FC0007F80
3FC0007F80
7F80007F80
7F80003FC0
7F80003FC0
FF00003FC0
ENDCHAR
STARTCHAR 00C6
ENCODING 198
SWIDTH 940 0
DWIDTH 47 0
BBX 45 36 0 0
BITMAP
0000FFFFFFF8
0001FFFFFFF8
0001FFFFFFF8
0001FFFFFFF8
0003FFFFFFF8
0003FFFFFFF8
0007FFFFFFF8
0007F1FE0000
000FF1FE0000
000FE1FE0000
001FE1FE0000
001FC1FE0000
001FC1FE0000
003F81FE0000
003F81FFFFF0
007F81FFFFF0
007F01FFFFF0
00FF01FFFFF0
00FE01FFFFF0
01FE01FFFFF0
01FC01FFFFF0
03FFFFFE0000
03FFFFFE0000
03FFFFFE0000
07FFFFFE0000
07FFFFFE0000
0FFFFFFE0000
0FFFFFFE0000
1FE001FE0000
1FE001FE0000
3FC001FFFFF8
3FC001FFFFF8
3F8001FFFFF8
7F8001FFFFF8
7F0001FFFFF8
FF0001FFFFF8
ENDCHAR
STARTCHAR 00C7
ENCODING 199
SWIDTH 620 0
DWIDTH 31 0
BBX 27 48 3 -12
BITMAP
001FFC00
007FFF80
01FFFFE0
03FFFFE0
07FFFFC0
0FFFFFC0
1FFC0F80
3FF00380
3FE00000
7FC00000
7F800000
7F800000
7F000000
FF000000
FF000000
FF000000
FF000000
FF000000
FF000000
FF000000
FF000000
FF000000
FF000000
FF000000
7F800000
7F800000
7F800000
7FC00000
3FE00040
3FF803C0
1FFFFFC0
0FFFFFC0
07FFFFC0
03FFFFC0
01FFFFC0
007FFE00
0007C000
00078000
000FE000
000FF000
0003F800
0001F800
0001F800
0021F800
003FF800
003FF000
003FF000
003FC000
ENDCHAR
STARTCHAR 00C8
ENCODING 200
SWIDTH 560 0
DWIDTH 28 0
BBX 21 47 4 0
BITMAP
7FC000
3FE000
1FE000
0FF000
03F800
01FC00
00FE00
003E00
000000
000000
000000
FFFFF8
FFFFF8
FFFFF8
FFFFF8
FFFFF8
FFFFF8
FFFFF8
FF0000
FF0000
FF0000
FF0000
FF0000
FF0000
FF0000
FFFFF0
FFFFF0
FFFFF0
FFFFF0
FFFFF0
FFFFF0
FFFFF0
FF0000
FF0000
FF0000
FF0000
FF0000
FF0000
FF0000
FF0000
FF0000
FFFFF8
FFFFF8
FFFFF8
FFFFF8
FFFFF8
FFFFF8
ENDCHAR
STARTCHAR 00C9
ENCODING 201
SWIDTH 560 0
DWIDTH 28 0
BBX 21 47 4 0
BITMAP
000FF8
001FF0
001FE0
003FC0
007F00
00FE00
00FC00
01F800
000000
000000
000000
FFFFF8
FFFFF8
FFFFF8
FFFFF8
FFFFF8
FFFFF8
FFFFF8
FF0000
FF0000
FF0000
FF0000
FF0000
FF0000
FF0000
FFFFF0
FFFFF0
FFFFF0
FFFFF0
FFFFF0
FFFFF0
FFFFF0
FF0000
FF0000
FF0000
FF0000
FF0000
FF0000
FF0000
FF0000
FF0000
FFFFF8
FFFFF8
FFFFF8
FFFFF8
FFFFF8
FFFFF8
ENDCHAR
STARTCHAR 00CA
ENCODING 202
SWIDTH 560 0
DWIDTH 28 0
BBX 22 47 4 0
BITMAP
01FF00
03FF00
07FF80
0FFFC0
1FEFE0
1F87F0
3F03F8
7E01FC
000000
000000
000000
FFFFF8
FFFFF8
FFFFF8
FFFFF8
FFFFF8
FFFFF8
FFFFF8
FF0000
FF0000
FF0000
FF0000
FF0000
FF0000
FF0000
FFFFF0
FFFFF0
FFFFF0
FFFFF0
FFFFF0
FFFFF0
FFFFF0
FF0000
FF0000
FF0000
FF0000
FF0000
FF0000
FF0000
FF0000
FF0000
FFFFF8
FFFFF8
FFFFF8
FFFFF8
FFFFF8
FFFFF8
ENDCHAR
STARTCHAR 00CB
ENCODING 203
SWIDTH 560 0
DWIDTH 28 0
BBX 21 46 4 0
BITMAP
0F03C0
1F87E0
1F87E0
1F87E0
1F87E0
1F87E0
040080
000000
000000
000000
FFFFF8
FFFFF8
FFFFF8
FFFFF8
FFFFF8
FFFFF8
FFFFF8
FF0000
FF0000
FF0000
FF0000
FF0000
FF0000
FF0000
FFFFF0
FFFFF0
FFFFF0
FFFFF0
FFFFF0
FFFFF0
FFFFF0
FF0000
FF0000
FF0000
FF0000
FF0000
FF0000
FF0000
FF0000
FF0000
FFFFF8
FFFFF8
FFFFF8
FFFFF8
FFFFF8
FFFFF8
ENDCHAR
STARTCHAR 00CC
ENCODING 204
SWIDTH 320 0
DWIDTH 16 0
BBX 14 47 -2 0
BITMAP
FF00
FF80
3FC0
1FC0
0FE0
07F0
03F8
00FC
0000
0000
0000
03FC
03FC
03FC
03FC
03FC
03FC
03FC
03FC
03FC
03FC
03FC
03FC
03FC
03FC
03FC
03FC
03FC
03FC
03FC
03FC
03FC
03FC
03FC
03FC
03FC
03FC
03FC
03FC
03FC
03FC
03FC
03FC
03FC
03FC
03FC
03FC
ENDCHAR
STARTCHAR 00CD
ENCODING 205
SWIDTH 320 0
DWIDTH 16 0
BBX 15 47 4 0
BITMAP
03FE
03FC
07F8
0FF0
1FE0
1F80
3F00
7E00
0000
0000
0000
FF00
FF00
FF00
FF00
FF00
FF00
FF00
FF00
FF00
FF00
FF00
FF00
FF00
FF00
FF00
FF00
FF00
FF00
FF00
FF00
FF00
FF00
FF00
FF00
FF00
FF00
FF00
FF00
FF00
FF00
FF00
FF00
FF00
FF00
FF00
FF00
ENDCHAR
STARTCHAR 00CE
ENCODING 206
SWIDTH 320 0
DWIDTH 16 0
BBX 21 47 -2 0
BITMAP
03FE00
07FE00
0FFF00
0FFF80
1FDFC0
3F8FE0
7E07F0
FC01F8
000000
000000
000000
03FC00
03FC00
03FC00
03FC00
03FC00
03FC00
03FC00
03FC00
03FC00
03FC00
03FC00
03FC00
03FC00
03FC00
03FC00
03FC00
03FC00
03FC00
03FC00
03FC00
03FC00
03FC00
03FC00
03FC00
03FC00
03FC00
03FC00
03FC00
03FC00
03FC00
03FC00
03FC00
03FC00
03FC00
03FC00
03FC00
ENDCHAR
STARTCHAR 00CF
ENCODING 207
SWIDTH 320 0
DWIDTH 16 0
BBX 17 46 0 0
BITMAP
781E00
FC3F00
FE3F80
FE3F80
FE3F00
7C1F00
100800
000000
000000
000000
0FF000
0FF000
0FF000
0FF000
0FF000
0FF000
0FF000
0FF000
0FF000
0FF000
0FF000
0FF000
0FF000
0FF000
0FF000
0FF000
0FF000
0FF000
0FF000
0FF000
0FF000
0FF000
0FF000
0FF000
0FF000
0FF000
0FF000
0FF000
0FF000
0FF000
0FF000
0FF000
0FF000
0FF000
0FF000
0FF000
ENDCHAR
STARTCHAR 00D0
ENCODING 208
SWIDTH 740 0
DWIDTH 37 0
BBX 33 36 1 0
BITMAP
1FFF800000
1FFFFC0000
1FFFFF8000
1FFFFFE000
1FFFFFF000
1FFFFFF800
1FFFFFFC00
1FE00FFC00
1FE003FE00
1FE001FE00
1FE001FF00
1FE000FF00
1FE000FF80
1FE0007F80
1FE0007F80
FFFF807F80
FFFF807F80
FFFF807F80
FFFF807F80
FFFF807F80
FFFF807F80
1FE0007F80
1FE0007F80
1FE000FF00
1FE000FF00
1FE001FF00
1FE001FE00
1FE003FE00
1FE00FFC00
1FE07FFC00
1FFFFFF800
1FFFFFF000
1FFFFFE000
1FFFFF8000
1FFFFE0000
1FFFE00000
ENDCHAR
STARTCHAR 00D1
ENCODING 209
SWIDTH 800 0
DWIDTH 40 0
BBX 32 46 4 0
BITMAP
003F01C0
00FFC3C0
00FFFFC0
01FFFFC0
01FFFF80
03E1FF00
03C07E00
00000000
00000000
00000000
FFC0007F
FFE0007F
FFE0007F
FFF0007F
FFF0007F
FFF8007F
FFFC007F
FFFC007F
FFFE007F
FFFE007F
FEFF007F
FEFF807F
FE7F807F
FE3FC07F
FE3FC07F
FE1FE07F
FE1FE07F
FE0FF07F
FE0FF87F
FE07F87F
FE03FC7F
FE03FC7F
FE01FE3F
FE01FE3F
FE00FF3F
FE007FBF
FE007FBF
FE003FFF
FE003FFF
FE001FFF
FE001FFF
FE000FFF
FE0007FF
FE0007FF
FE0003FF
FE0003FF
ENDCHAR
STARTCHAR 00D2
ENCODING 210
SWIDTH 780 0
DWIDTH 39 0
BBX 34 47 3 0
BITMAP
01FF000000
00FF800000
007F800000
003FC00000
000FE00000
0007F00000
0003F00000
0001F80000
0000000000
0000000000
0000000000
001FFE0000
00FFFFC000
01FFFFE000
07FFFFF800
0FFFFFFC00
1FFFFFFC00
1FFC0FFE00
3FF003FF00
3FE001FF00
7FC000FF00
7F8000FF80
7F80007F80
FF80007F80
FF00007FC0
FF00003FC0
FF00003FC0
FF00003FC0
FF00003FC0
FF00003FC0
FF00003FC0
FF00003FC0
FF00003FC0
FF00003FC0
FF00007F80
7F80007F80
7F80007F80
7FC000FF80
3FC001FF00
3FE003FF00
1FF807FE00
1FFFFFFE00
0FFFFFFC00
07FFFFF800
03FFFFF000
00FFFFC000
003FFF0000
ENDCHAR
STARTCHAR 00D3
ENCODING 211
SWIDTH 780 0
DWIDTH 39 0
BBX 34 47 3 0
BITMAP
00003FE000
00007FC000
00007F8000
0000FE0000
0001FC0000
0003F80000
0007F00000
0007C00000
0000000000
0000000000
0000000000
001FFE0000
00FFFFC000
01FFFFE000
07FFFFF800
0FFFFFFC00
1FFFFFFC00
1FFC0FFE00
3FF003FF00
3FE001FF00
7FC000FF00
7F8000FF80
7F80007F80
FF80007F80
FF00007FC0
FF00003FC0
FF00003FC0
FF00003FC0
FF00003FC0
FF00003FC0
FF00003FC0
FF00003FC0
FF00003FC0
FF00003FC0
FF00007F80
7F80007F80
7F80007F80
7FC000FF80
3FC001FF00
3FE003FF00
1FF807FE00
1FFFFFFE00
0FFFFFFC00
07FFFFF800
03FFFFF000
00FFFFC000
003FFF0000
ENDCHAR
STARTCHAR 00D4
ENCODING 212
SWIDTH 780 0
DWIDTH 39 0
BBX 34 47 3 0
BITMAP
000FF80000
000FFC0000
001FFE0000
003FFF0000
007F7F8000
00FE3FC000
01FC0FC000
03F807E000
0000000000
0000000000
0000000000
001FFE0000
00FFFFC000
01FFFFE000
07FFFFF800
0FFFFFFC00
1FFFFFFC00
1FFC0FFE00
3FF003FF00
3FE001FF00
7FC000FF00
7F8000FF80
7F80007F80
FF80007F80
FF00007FC0
FF00003FC0
FF00003FC0
FF00003FC0
FF00003FC0
FF00003FC0
FF00003FC0
FF00003FC0
FF00003FC0
FF00003FC0
FF00007F80
7F80007F80
7F80007F80
7FC000FF80
3FC001FF00
3FE003FF00
1FF807FE00
1FFFFFFE00
0FFFFFFC00
07FFFFF800
03FFFFF000
00FFFFC000
003FFF0000
ENDCHAR
STARTCHAR 00D5
ENCODING 213
SWIDTH 780 0
DWIDTH 39 0
BBX 34 46 3 0
BITMAP
003F01E000
007FC3E000
00FFFFC000
00FFFFC000
01FFFFC000
01E1FF8000
01E07E0000
0000000000
0000000000
0000000000
001FFE0000
00FFFFC000
01FFFFE000
07FFFFF800
0FFFFFFC00
1FFFFFFC00
1FFC0FFE00
3FF003FF00
3FE001FF00
7FC000FF00
7F8000FF80
7F80007F80
FF80007F80
FF00007FC0
FF00003FC0
FF00003FC0
FF00003FC0
FF00003FC0
FF00003FC0
FF00003FC0
FF00003FC0
FF00003FC0
FF00003FC0
FF00007F80
7F80007F80
7F80007F80
7FC000FF80
3FC001FF00
3FE003FF00
1FF807FE00
1FFFFFFE00
0FFFFFFC00
07FFFFF800
03FFFFF000
00FFFFC000
003FFF0000
ENDCHAR
STARTCHAR 00D6
ENCODING 214
SWIDTH 780 0
DWIDTH 39 0
BBX 34 46 3 0
BITMAP
003C0F0000
007E1F8000
007E3F8000
007E3F8000
007E1F8000
007E1F0000
0008000000
0000000000
0000000000
0000000000
001FFE0000
00FFFFC000
01FFFFE000
07FFFFF800
0FFFFFFC00
1FFFFFFC00
1FFC0FFE00
3FF003FF00
3FE001FF00
7FC000FF00
7F8000FF80
7F80007F80
FF80007F80
FF00007FC0
FF00003FC0
FF00003FC0
FF00003FC0
FF00003FC0
FF00003FC0
FF00003FC0
FF00003FC0
FF00003FC0
FF00003FC0
FF00007F80
7F80007F80
7F80007F80
7FC000FF80
3FC001FF00
3FE003FF00
1FF807FE00
1FFFFFFE00
0FFFFFFC00
07FFFFF800
03FFFFF000
00FFFFC000
003FFF0000
ENDCHAR
STARTCHAR 00D7
ENCODING 215
SWIDTH 560 0
DWIDTH 28 0
BBX 22 22 3 7
BITMAP
000020
180070
3C00F8
7E01FC
7F03FC
3F87F8
1FCFF0
0FFFE0
07FFC0
03FF80
01FF00
01FE00
03FF00
07FF80
0FFFC0
1FEFE0
3FC7F0
7F83F8
FF01FC
7E00FC
3C0078
180030
ENDCHAR
STARTCHAR 00D8
ENCODING 216
SWIDTH 780 0
DWIDTH 39 0
BBX 34 40 3 -2
BITMAP
0000001000
0000001800
001FFE3E00
00FFFFFE00
01FFFFFC00
07FFFFFC00
0FFFFFF800
1FFFFFFC00
1FFC0FFE00
3FF007FF00
3FE007FF00
7FC00FFF00
7F801FFF80
7F801F7F80
FF803F7F80
FF007E3FC0
FF007C3FC0
FF00FC3FC0
FF01F83FC0
FF01F03FC0
FF03F03FC0
FF07E03FC0
FF07C03FC0
FF0FC03FC0
FF1F803FC0
FF1F007F80
7FBF007F80
7FFE007F80
7FFC00FF80
3FFC01FF00
3FF803FF00
1FF807FE00
1FFFFFFE00
0FFFFFFC00
07FFFFF800
0FFFFFF000
1FFFFFC000
1F3FFF0000
0F00000000
0600000000
ENDCHAR
STARTCHAR 00D9
ENCODING 217
SWIDTH 740 0
DWIDTH 37 0
BBX 30 47 4 0
BITMAP
07FC0000
03FE0000
01FE0000
00FF0000
003F8000
001FC000
000FC000
0007E000
00000000
00000000
00000000
FF0003FC
FF0003FC
FF0003FC
FF0003FC
FF0003FC
FF0003FC
FF0003FC
FF0003FC
FF0003FC
FF0003FC
FF0003FC
FF0003FC
FF0003FC
FF0003FC
FF0003FC
FF0003FC
FF0003FC
FF0003FC
FF0003FC
FF0003FC
FF0003FC
FF0003FC
FF0003FC
FF0003FC
FF0003FC
FF0003F8
7F0007F8
7F8007F8
7FC00FF8
7FE01FF0
3FFFFFF0
1FFFFFE0
0FFFFFC0
07FFFF80
03FFFF00
00FFF800
ENDCHAR
STARTCHAR 00DA
ENCODING 218
SWIDTH 740 0
DWIDTH 37 0
BBX 30 47 4 0
BITMAP
0000FF80
0001FF00
0001FE00
0003F800
0007F000
000FE000
001FC000
001F0000
00000000
00000000
00000000
FF0003FC
FF0003FC
FF0003FC
FF0003FC
FF0003FC
FF0003FC
FF0003FC
FF0003FC
FF0003FC
FF0003FC
FF0003FC
FF0003FC
FF0003FC
FF0003FC
FF0003FC
FF0003FC
FF0003FC
FF0003FC
FF0003FC
FF0003FC
FF0003FC
FF0003FC
FF0003FC
FF0003FC
FF0003FC
FF0003F8
7F0007F8
7F8007F8
7FC00FF8
7FE01FF0
3FFFFFF0
1FFFFFE0
0FFFFFC0
07FFFF80
03FFFF00
00FFF800
ENDCHAR
STARTCHAR 00DB
ENCODING 219
SWIDTH 740 0
DWIDTH 37 0
BBX 30 47 4 0
BITMAP
003FE000
003FF000
007FF800
00FFFC00
01FDFE00
03F8FF00
07F03F00
0FE01F80
00000000
00000000
00000000
FF0003FC
FF0003FC
FF0003FC
FF0003FC
FF0003FC
FF0003FC
FF0003FC
FF0003FC
FF0003FC
FF0003FC
FF0003FC
FF0003FC
FF0003FC
FF0003FC
FF0003FC
FF0003FC
FF0003FC
FF0003FC
FF0003FC
FF0003FC
FF0003FC
FF0003FC
FF0003FC
FF0003FC
FF0003FC
FF0003F8
7F0007F8
7F8007F8
7FC00FF8
7FE01FF0
3FFFFFF0
1FFFFFE0
0FFFFFC0
07FFFF80
03FFFF00
00FFF800
ENDCHAR
STARTCHAR 00DC
ENCODING 220
SWIDTH 740 0
DWIDTH 37 0
BBX 30 46 4 0
BITMAP
00F03C00
01F87E00
01F8FE00
01F8FE00
01F87E00
01F87C00
00200000
00000000
00000000
00000000
FF0003FC
FF0003FC
FF0003FC
FF0003FC
FF0003FC
FF0003FC
FF0003FC
FF0003FC
FF0003FC
FF0003FC
FF0003FC
FF0003FC
FF0003FC
FF0003FC
FF0003FC
FF0003FC
FF0003FC
FF0003FC
FF0003FC
FF0003FC
FF0003FC
FF0003FC
FF0003FC
FF0003FC
FF0003FC
FF0003F8
7F0007F8
7F8007F8
7FC00FF8
7FE01FF0
3FFFFFF0
1FFFFFE0
0FFFFFC0
07FFFF80
03FFFF00
00FFF800
ENDCHAR
STARTCHAR 00DD
ENCODING 221
SWIDTH 620 0
DWIDTH 31 0
BBX 31 47 0 0
BITMAP
00007F80
0000FF00
0001FE00
0001FC00
0003F800
0007F000
000FC000
001F8000
00000000
00000000
00000000
FF0001FE
7F8003FE
7F8003FC
3FC007F8
3FC007F8
1FE00FF0
1FE00FF0
0FF01FE0
0FF01FE0
07F83FC0
07F83FC0
03FC7F80
01FC7F80
01FEFF00
00FEFF00
00FFFE00
007FFC00
007FFC00
003FF800
003FF800
001FF000
001FF000
000FE000
000FE000
000FE000
000FE000
000FE000
000FE000
000FE000
000FE000
000FE000
000FE000
000FE000
000FE000
000FE000
000FE000
ENDCHAR
STARTCHAR 00DE
ENCODING 222
SWIDTH 620 0
DWIDTH 31 0
BBX 25 36 4 0
BITMAP
FF000000
FF000000
FF000000
FF000000
FF000000
FF000000
FFFFC000
FFFFF000
FFFFFC00
FFFFFE00
FFFFFE00
FFFFFF00
FF03FF00
FF00FF80
FF007F80
FF007F80
FF007F80
FF007F80
FF007F80
FF007F80
FF007F80
FF00FF80
FF07FF00
FFFFFF00
FFFFFE00
FFFFFC00
FFFFF800
FFFFE000
FFFF0000
FF000000
FF000000
FF000000
FF000000
FF000000
FF000000
FF000000
ENDCHAR
STARTCHAR 00DF
ENCODING 223
SWIDTH 700 0
DWIDTH 35 0
BBX 30 38 4 0
BITMAP
00FFE000
07FFFC00
0FFFFF00
3FFFFF80
3FFFFFC0
7FFFFFC0
FF807FC0
FF003FC0
FF001FC0
FE001FC0
FE001FC0
FE003F80
FE007F80
FE01FF00
FE03FE00
FE07F800
FE07F000
FE0FF000
FE0FF000
FE0FF800
FE0FFC00
FE07FF00
FE03FF80
FE01FFE0
FE00FFF0
FE003FF8
FE001FF8
FE0007F8
FE0003FC
FE0003FC
FE0003FC
FE1003FC
FE1C07FC
FE1FFFF8
FE1FFFF8
FE1FFFF0
FE1FFFE0
FE0FFF80
ENDCHAR
STARTCHAR 00E0
ENCODING 224
SWIDTH 600 0
DWIDTH 30 0
BBX 24 38 2 0
BITMAP
0FF000
07F800
03FC00
01FE00
00FF00
003F00
001F80
000FC0
000000
000000
007F80
07FFF0
1FFFF8
1FFFFC
0FFFFE
0FFFFF
0700FF
00007F
00007F
00007F
00007F
007FFF
07FFFF
1FFFFF
3FFFFF
7FFC7F
7FC07F
FF007F
FF007F
FF007F
FF00FF
FF00FF
FF83FF
7FFFFF
7FFFBF
3FFFBF
1FFE1F
0FFC1F
ENDCHAR
STARTCHAR 00E1
ENCODING 225
SWIDTH 600 0
DWIDTH 30 0
BBX 24 38 2 0
BITMAP
0003FC
0007F8
000FF0
000FE0
001FC0
003F80
007E00
007C00
000000
000000
007F80
07FFF0
1FFFF8
1FFFFC
0FFFFE
0FFFFF
0700FF
00007F
00007F
00007F
00007F
007FFF
07FFFF
1FFFFF
3FFFFF
7FFC7F
7FC07F
FF007F
FF007F
FF007F
FF00FF
FF00FF
FF83FF
7FFFFF
7FFFBF
3FFFBF
1FFE1F
0FFC1F
ENDCHAR
STARTCHAR 00E2
ENCODING 226
SWIDTH 600 0
DWIDTH 30 0
BBX 24 38 2 0
BITMAP
00FFC0
00FFE0
01FFF0
03FFF0
07F3F8
0FE1FC
1F807E
1F003F
000000
000000
007F80
07FFF0
1FFFF8
1FFFFC
0FFFFE
0FFFFF
0700FF
00007F
00007F
00007F
00007F
007FFF
07FFFF
1FFFFF
3FFFFF
7FFC7F
7FC07F
FF007F
FF007F
FF007F
FF00FF
FF00FF
FF83FF
7FFFFF
7FFFBF
3FFFBF
1FFE1F
0FFC1F
ENDCHAR
STARTCHAR 00E3
ENCODING 227
SWIDTH 600 0
DWIDTH 30 0
BBX 24 38 2 0
BITMAP
00E01E
03FC1E
07FF3E
0FFFFE
0FFFFC
1F1FF8
1E07F0
1E00C0
000000
000000
007F80
07FFF0
1FFFF8
1FFFFC
0FFFFE
0FFFFF
0700FF
00007F
00007F
00007F
00007F
007FFF
07FFFF
1FFFFF
3FFFFF
7FFC7F
7FC07F
FF007F
FF007F
FF007F
FF00FF
FF00FF
FF83FF
7FFFFF
7FFFBF
3FFFBF
1FFE1F
0FFC1F
ENDCHAR
STARTCHAR 00E4
ENCODING 228
SWIDTH 600 0
DWIDTH 30 0
BBX 24 38 2 0
BITMAP
018060
07E1F8
07E1F8
07F1F8
07E1F8
07E1F8
03C0F0
000000
000000
000000
007F80
07FFF0
1FFFF8
1FFFFC
0FFFFE
0FFFFF
0700FF
00007F
00007F
00007F
00007F
007FFF
07FFFF
1FFFFF
3FFFFF
7FFC7F
7FC07F
FF007F
FF007F
FF007F
FF00FF
FF00FF
FF83FF
7FFFFF
7FFFBF
3FFFBF
1FFE1F
0FFC1F
ENDCHAR
STARTCHAR 00E5
ENCODING 229
SWIDTH 600 0
DWIDTH 30 0
BBX 24 42 2 0
BITMAP
001E00
007F80
00FFC0
00FFE0
01E1E0
01E1E0
01E1E0
01E1E0
00FFE0
00FFC0
007F80
000E00
000000
000000
007F80
07FFF0
1FFFF8
1FFFFC
0FFFFE
0FFFFF
0700FF
00007F
00007F
00007F
00007F
007FFF
07FFFF
1FFFFF
3FFFFF
7FFC7F
7FC07F
FF007F
FF007F
FF007F
FF00FF
FF00FF
FF83FF
7FFFFF
7FFFBF
3FFFBF
1FFE1F
0FFC1F
ENDCHAR
STARTCHAR 00E6
ENCODING 230
SWIDTH 900 0
DWIDTH 45 0
BBX 42 28 2 0
BITMAP
007F001F8000
07FFE0FFF000
1FFFF3FFF800
1FFFFFFFFE00
0FFFFFFFFE00
0FFFFFFFFF00
0701FFC07F80
0000FF803F80
00007F803F80
00007F003F80
00007F001FC0
00FFFFFFFFC0
07FFFFFFFFC0
1FFFFFFFFFC0
3FFFFFFFFFC0
7FF87FFFFFC0
7F807F000000
FF007F000000
FF00FF000000
FF00FF800000
FF00FF800000
FF01FFC00300
FF83FFF01F00
7FFFFFFFFF00
7FFFE7FFFF00
3FFFC3FFFF00
1FFF81FFFF00
0FFE007FFC00
ENDCHAR
STARTCHAR 00E7
ENCODING 231
SWIDTH 500 0
DWIDTH 25 0
BBX 22 40 2 -12
BITMAP
001F80
01FFF8
07FFFC
0FFFFC
1FFFF8
3FFFF8
3FF0F0
7FC010
7F8000
7F8000
7F0000
FF0000
FF0000
FF0000
FF0000
FF0000
FF0000
FF0000
7F0000
7F8000
7F8000
7FC018
3FFFF8
3FFFF8
1FFFF8
0FFFF8
07FFF8
01FFE0
003E00
003C00
007F00
007F80
001FC0
000FC0
000FC0
010FC0
01FFC0
01FF80
01FF80
01FE00
ENDCHAR
STARTCHAR 00E8
ENCODING 232
SWIDTH 580 0
DWIDTH 29 0
BBX 25 38 2 0
BITMAP
0FF00000
07F80000
03FC0000
01FC0000
00FE0000
007F0000
001F8000
000F8000
00000000
00000000
003F0000
01FFE000
07FFF800
0FFFFC00
1FFFFE00
3FFFFF00
3FC0FF00
7F807F80
7F803F80
7F003F80
7F003F80
FFFFFF80
FFFFFF80
FFFFFF80
FFFFFF80
FFFFFF80
FF000000
FF000000
7F000000
7F800000
7F800000
3FC00300
3FF01F00
1FFFFF00
0FFFFF00
07FFFF00
03FFFF00
00FFFC00
ENDCHAR
STARTCHAR 00E9
ENCODING 233
SWIDTH 580 0
DWIDTH 29 0
BBX 25 38 2 0
BITMAP
0007FC00
0007F800
000FF000
001FE000
003F8000
003F0000
007E0000
00FC0000
00000000
00000000
003F0000
01FFE000
07FFF800
0FFFFC00
1FFFFE00
3FFFFF00
3FC0FF00
7F807F80
7F803F80
7F003F80
7F003F80
FFFFFF80
FFFFFF80
FFFFFF80
FFFFFF80
FFFFFF80
FF000000
FF000000
7F000000
7F800000
7F800000
3FC00300
3FF01F00
1FFFFF00
0FFFFF00
07FFFF00
03FFFF00
00FFFC00
ENDCHAR
STARTCHAR 00EA
ENCODING 234
SWIDTH 580 0
DWIDTH 29 0
BBX 25 38 2 0
BITMAP
00FFC000
01FFC000
03FFE000
03FFF000
07F3F800
0FC1FC00
1F807E00
3F003E00
00000000
00000000
003F0000
01FFE000
07FFF800
0FFFFC00
1FFFFE00
3FFFFF00
3FC0FF00
7F807F80
7F803F80
7F003F80
7F003F80
FFFFFF80
FFFFFF80
FFFFFF80
FFFFFF80
FFFFFF80
FF000000
FF000000
7F000000
7F800000
7F800000
3FC00300
3FF01F00
1FFFFF00
0FFFFF00
07FFFF00
03FFFF00
00FFFC00
ENDCHAR
STARTCHAR 00EB
ENCODING 235
SWIDTH 580 0
DWIDTH 29 0
BBX 25 38 2 0
BITMAP
01004000
07E1F000
07E3F800
0FE3F800
0FE3F800
07E1F800
03C0F000
00000000
00000000
00000000
003F0000
01FFE000
07FFF800
0FFFFC00
1FFFFE00
3FFFFF00
3FC0FF00
7F807F80
7F803F80
7F003F80
7F003F80
FFFFFF80
FFFFFF80
FFFFFF80
FFFFFF80
FFFFFF80
FF000000
FF000000
7F000000
7F800000
7F800000
3FC00300
3FF01F00
1FFFFF00
0FFFFF00
07FFFF00
03FFFF00
00FFFC00
ENDCHAR
STARTCHAR 00EC
ENCODING 236
SWIDTH 300 0
DWIDTH 15 0
BBX 14 38 -2 0
BITMAP
FF80
7FC0
1FC0
0FE0
07F0
03F8
00FC
007C
0000
0000
0000
03F8
03F8
03F8
03F8
03F8
03F8
03F8
03F8
03F8
03F8
03F8
03F8
03F8
03F8
03F8
03F8
03F8
03F8
03F8
03F8
03F8
03F8
03F8
03F8
03F8
03F8
03F8
ENDCHAR
STARTCHAR 00ED
ENCODING 237
SWIDTH 300 0
DWIDTH 15 0
BBX 14 38 3 0
BITMAP
07FC
07F8
0FF0
1FE0
3F80
7F00
7E00
F800
0000
0000
0000
7F00
7F00
7F00
7F00
7F00
7F00
7F00
7F00
7F00
7F00
7F00
7F00
7F00
7F00
7F00
7F00
7F00
7F00
7F00
7F00
7F00
7F00
7F00
7F00
7F00
7F00
7F00
ENDCHAR
STARTCHAR 00EE
ENCODING 238
SWIDTH 300 0
DWIDTH 15 0
BBX 21 38 -3 0
BITMAP
03FF00
07FF00
0FFF80
1FFFC0
3FCFE0
3F07F0
7E03F8
F800F8
000000
000000
000000
01FC00
01FC00
01FC00
01FC00
01FC00
01FC00
01FC00
01FC00
01FC00
01FC00
01FC00
01FC00
01FC00
01FC00
01FC00
01FC00
01FC00
01FC00
01FC00
01FC00
01FC00
01FC00
01FC00
01FC00
01FC00
01FC00
01FC00
ENDCHAR
STARTCHAR 00EF
ENCODING 239
SWIDTH 300 0
DWIDTH 15 0
BBX 17 38 -1 0
BITMAP
180400
7C1F00
FE3F80
FE3F80
FE3F80
7E1F80
380E00
000000
000000
000000
000000
07F000
07F000
07F000
07F000
07F000
07F000
07F000
07F000
07F000
07F000
07F000
07F000
07F000
07F000
07F000
07F000
07F000
07F000
07F000
07F000
07F000
07F000
07F000
07F000
07F000
07F000
07F000
ENDCHAR
STARTCHAR 00F0
ENCODING 240
SWIDTH 600 0
DWIDTH 30 0
BBX 27 38 2 0
BITMAP
00600800
00F83C00
00FC7E00
01FFFE00
00FFFC00
007FF000
003FF000
00FFF800
01FFFC00
01FFFC00
01F1FE00
00E0FF00
00807F00
00003F80
01FFBF80
07FFDF80
0FFFFFC0
1FFFFFC0
3FFFFFC0
3FE1FFC0
7FC07FE0
7F803FE0
7F001FE0
FF001FE0
FF001FE0
FF001FE0
FF001FE0
FF001FC0
FF001FC0
7F003FC0
7F803FC0
7FC07F80
3FE0FF80
3FFFFF00
1FFFFE00
0FFFFC00
03FFF800
00FFE000
ENDCHAR
STARTCHAR 00F1
ENCODING 241
SWIDTH 640 0
DWIDTH 32 0
BBX 25 38 4 0
BITMAP
01C01C00
07F83C00
0FFE7C00
1FFFFC00
1FFFF800
1E3FF800
3C0FF000
3C018000
00000000
00000000
0007C000
FC3FF800
FCFFFC00
FDFFFE00
FFFFFF00
FFFFFF00
FFE1FF80
FF80FF80
FF807F80
FF007F80
FF003F80
FF003F80
FE003F80
FE003F80
FE003F80
FE003F80
FE003F80
FE003F80
FE003F80
FE003F80
FE003F80
FE003F80
FE003F80
FE003F80
FE003F80
FE003F80
FE003F80
FE003F80
ENDCHAR
STARTCHAR 00F2
ENCODING 242
SWIDTH 600 0
DWIDTH 30 0
BBX 27 38 2 0
BITMAP
0FF80000
07FC0000
03FC0000
00FE0000
007F0000
003F8000
001FC000
0007C000
00000000
00000000
001F0000
01FFF000
07FFF800
0FFFFE00
1FFFFF00
3FFFFF00
3FF1FF80
7FC07F80
7F803FC0
7F803FC0
7F001FC0
FF001FE0
FF001FE0
FF001FE0
FF001FE0
FF001FE0
FF001FE0
FF001FE0
7F001FC0
7F803FC0
7F803FC0
3FC07F80
3FFFFF80
1FFFFF00
0FFFFE00
07FFFC00
03FFF800
00FFE000
ENDCHAR
STARTCHAR 00F3
ENCODING 243
SWIDTH 600 0
DWIDTH 30 0
BBX 27 38 2 0
BITMAP
0003FE00
0007FC00
0007F800
000FE000
001FC000
003F8000
007F0000
007C0000
00000000
00000000
001F0000
01FFF000
07FFF800
0FFFFE00
1FFFFF00
3FFFFF00
3FF1FF80
7FC07F80
7F803FC0
7F803FC0
7F001FC0
FF001FE0
FF001FE0
FF001FE0
FF001FE0
FF001FE0
FF001FE0
FF001FE0
7F001FC0
7F803FC0
7F803FC0
3FC07F80
3FFFFF80
1FFFFF00
0FFFFE00
07FFFC00
03FFF800
00FFE000
ENDCHAR
STARTCHAR 00F4
ENCODING 244
SWIDTH 600 0
DWIDTH 30 0
BBX 27 38 2 0
BITMAP
007FC000
00FFE000
01FFF000
03FBF800
07F1FC00
0FE0FE00
1FC07F00
1F001F00
00000000
00000000
001F0000
01FFF000
07FFF800
0FFFFE00
1FFFFF00
3FFFFF00
3FF1FF80
7FC07F80
7F803FC0
7F803FC0
7F001FC0
FF001FE0
FF001FE0
FF001FE0
FF001FE0
FF001FE0
FF001FE0
FF001FE0
7F001FC0
7F803FC0
7F803FC0
3FC07F80
3FFFFF80
1FFFFF00
0FFFFE00
07FFFC00
03FFF800
00FFE000
ENDCHAR
STARTCHAR 00F5
ENCODING 245
SWIDTH 600 0
DWIDTH 30 0
BBX 27 38 2 0
BITMAP
00E00F00
03FC1E00
07FF3E00
0FFFFE00
0FFFFC00
0F1FFC00
1E07F800
1E00C000
00000000
00000000
001F0000
01FFF000
07FFF800
0FFFFE00
1FFFFF00
3FFFFF00
3FF1FF80
7FC07F80
7F803FC0
7F803FC0
7F001FC0
FF001FE0
FF001FE0
FF001FE0
FF001FE0
FF001FE0
FF001FE0
FF001FE0
7F001FC0
7F803FC0
7F803FC0
3FC07F80
3FFFFF80
1FFFFF00
0FFFFE00
07FFFC00
03FFF800
00FFE000
ENDCHAR
STARTCHAR 00F6
ENCODING 246
SWIDTH 600 0
DWIDTH 30 0
BBX 27 38 2 0
BITMAP
00802000
03E0F800
07F1FC00
07F1FC00
07F1FC00
03E1F800
01C0F000
00000000
00000000
00000000
001F0000
01FFF000
07FFF800
0FFFFE00
1FFFFF00
3FFFFF00
3FF1FF80
7FC07F80
7F803FC0
7F803FC0
7F001FC0
FF001FE0
FF001FE0
FF001FE0
FF001FE0
FF001FE0
FF001FE0
FF001FE0
7F001FC0
7F803FC0
7F803FC0
3FC07F80
3FFFFF80
1FFFFF00
0FFFFE00
07FFFC00
03FFF800
00FFE000
ENDCHAR
STARTCHAR 00F7
ENCODING 247
SWIDTH 560 0
DWIDTH 28 0
BBX 24 25 2 5
BITMAP
001C00
007E00
007F00
007F00
007F00
007E00
003E00
000000
000000
000000
FFFFFF
FFFFFF
FFFFFF
FFFFFF
FFFFFF
000000
000000
001C00
007E00
007E00
007F00
007F00
007E00
003E00
000800
ENDCHAR
STARTCHAR 00F8
ENCODING 248
SWIDTH 600 0
DWIDTH 30 0
BBX 27 29 2 -1
BITMAP
003F8C00
01FFFF00
07FFFF00
0FFFFF00
1FFFFF00
3FFFFF00
3FF1FF80
7FC0FF80
7F81FFC0
7F83FFC0
7F03FFC0
FF07DFE0
FF0FDFE0
FF0F9FE0
FF1F1FE0
FF3F1FE0
FF3E1FE0
FF7C1FC0
7FFC1FC0
7FF83FC0
7FF03FC0
3FF07F80
3FFFFF80
1FFFFF00
0FFFFE00
1FFFFC00
1FFFF800
1FFFE000
0E000000
ENDCHAR
STARTCHAR 00F9
ENCODING 249
SWIDTH 640 0
DWIDTH 32 0
BBX 25 38 4 0
BITMAP
1FF00000
0FF80000
07F80000
01FC0000
00FE0000
007F0000
003F8000
000F8000
00000000
00000000
00000000
FE003F80
FE003F80
FE003F80
FE003F80
FE003F80
FE003F80
FE003F80
FE003F80
FE003F80
FE003F80
FE003F80
FE003F80
FE003F80
FE007F80
FE007F80
FE007F80
FE007F80
FE007F80
FF007F80
FF00FF80
FF81FF80
FFEFFF80
7FFFFF80
7FFFFF80
3FFF9F80
1FFF1F80
0FFC1F80
ENDCHAR
STARTCHAR 00FA
ENCODING 250
SWIDTH 640 0
DWIDTH 32 0
BBX 25 38 4 0
BITMAP
0007FC00
000FF800
000FE000
001FC000
003F8000
007F0000
00FE0000
00F80000
00000000
00000000
00000000
FE003F80
FE003F80
FE003F80
FE003F80
FE003F80
FE003F80
FE003F80
FE003F80
FE003F80
FE003F80
FE003F80
FE003F80
FE003F80
FE007F80
FE007F80
FE007F80
FE007F80
FE007F80
FF007F80
FF00FF80
FF81FF80
FFEFFF80
7FFFFF80
7FFFFF80
3FFF9F80
1FFF1F80
0FFC1F80
ENDCHAR
STARTCHAR 00FB
ENCODING 251
SWIDTH 640 0
DWIDTH 32 0
BBX 25 38 4 0
BITMAP
00FF8000
01FFC000
03FFE000
07F7F000
0FE3F800
1FC1FC00
3F80FE00
3E003E00
00000000
00000000
00000000
FE003F80
FE003F80
FE003F80
FE003F80
FE003F80
FE003F80
FE003F80
FE003F80
FE003F80
FE003F80
FE003F80
FE003F80
FE003F80
FE007F80
FE007F80
FE007F80
FE007F80
FE007F80
FF007F80
FF00FF80
FF81FF80
FFEFFF80
7FFFFF80
7FFFFF80
3FFF9F80
1FFF1F80
0FFC1F80
ENDCHAR
STARTCHAR 00FC
ENCODING 252
SWIDTH 640 0
DWIDTH 32 0
BBX 25 38 4 0
BITMAP
0100C000
07C1F000
0FE3F800
0FE3F800
0FE3F800
0FC3F000
0381E000
00000000
00000000
00000000
00000000
FE003F80
FE003F80
FE003F80
FE003F80
FE003F80
FE003F80
FE003F80
FE003F80
FE003F80
FE003F80
FE003F80
FE003F80
FE003F80
FE007F80
FE007F80
FE007F80
FE007F80
FE007F80
FF007F80
FF00FF80
FF81FF80
FFEFFF80
7FFFFF80
7FFFFF80
3FFF9F80
1FFF1F80
0FFC1F80
ENDCHAR
STARTCHAR 00FD
ENCODING 253
SWIDTH 560 0
DWIDTH 28 0
BBX 28 50 0 -12
BITMAP
0001FF00
0003FC00
0007F800
0007F000
000FE000
001FC000
003F0000
003E0000
00000000
00000000
00000000
FF000FF0
7F800FF0
7F800FE0
3F801FE0
3FC01FE0
3FC01FC0
1FC03FC0
1FE03FC0
0FE03F80
0FE07F80
0FF07F00
07F07F00
07F0FF00
03F8FE00
03F8FE00
03F9FE00
01FDFC00
01FDFC00
00FDF800
00FFF800
00FFF800
007FF000
007FF000
003FF000
003FE000
003FE000
001FC000
001FC000
003FC000
003F8000
007F8000
00FF8000
01FF0000
3FFE0000
3FFE0000
3FFC0000
3FF80000
3FE00000
3F800000
ENDCHAR
STARTCHAR 00FE
ENCODING 254
SWIDTH 620 0
DWIDTH 31 0
BBX 25 50 4 -12
BITMAP
FE000000
FE000000
FE000000
FE000000
FE000000
FE000000
FE000000
FE000000
FE000000
FE000000
FE07C000
FE3FF000
FE7FF800
FEFFFC00
FFFFFE00
FFFFFF00
FFE3FF00
FF80FF00
FF007F80
FF007F80
FF007F80
FE003F80
FE003F80
FE003F80
FE003F80
FE003F80
FE003F80
FF007F80
FF007F80
FF007F80
FF80FF80
FFC0FF00
FFFFFF00
FFFFFE00
FFFFFE00
FEFFFC00
FE7FF800
FE3FE000
FE000000
FE000000
FE000000
FE000000
FE000000
FE000000
FE000000
FE000000
FE000000
FE000000
FE000000
FE000000
ENDCHAR
STARTCHAR 00FF
ENCODING 255
SWIDTH 560 0
DWIDTH 28 0
BBX 28 50 0 -12
BITMAP
00403000
01F0FC00
03F8FC00
03F8FE00
03F8FE00
03F0FC00
01E07800
00000000
00000000
00000000
00000000
FF000FF0
7F800FF0
7F800FE0
3F801FE0
3FC01FE0
3FC01FC0
1FC03FC0
1FE03FC0
0FE03F80
0FE07F80
0FF07F00
07F07F00
07F0FF00
03F8FE00
03F8FE00
03F9FE00
01FDFC00
01FDFC00
00FDF800
00FFF800
00FFF800
007FF000
007FF000
003FF000
003FE000
003FE000
001FC000
001FC000
003FC000
003F8000
007F8000
00FF8000
01FF0000
3FFE0000
3FFE0000
3FFC0000
3FF80000
3FE00000
3F800000
ENDCHAR
STARTCHAR 0100
ENCODING 256
SWIDTH 680 0
DWIDTH 34 0
BBX 34 44 0 0
BITMAP
007FFFC000
007FFFC000
007FFFC000
007FFFC000
007FFFC000
0000000000
0000000000
0000000000
000FFC0000
000FFC0000
000FFE0000
001FFE0000
001FFE0000
001FFF0000
003FFF0000
003FBF0000
003F3F8000
007F3F8000
007F1FC000
007F1FC000
00FE1FC000
00FE0FE000
00FE0FE000
01FC0FE000
01FC0FF000
03FC07F000
03F807F000
03F807F800
07F803F800
07FFFFF800
07FFFFFC00
0FFFFFFC00
0FFFFFFC00
0FFFFFFE00
1FFFFFFE00
1FFFFFFF00
1FC000FF00
3FC000FF00
3FC0007F80
3FC0007F80
7F80007F80
7F80003FC0
7F80003FC0
FF00003FC0
ENDCHAR
STARTCHAR 0101
ENCODING 257
SWIDTH 600 0
DWIDTH 30 0
BBX 24 35 2 0
BITMAP
07FFF8
07FFF8
07FFF8
07FFF8
07FFF8
000000
000000
007F80
07FFF0
1FFFF8
1FFFFC
0FFFFE
0FFFFF
0700FF
00007F
00007F
00007F
00007F
007FFF
07FFFF
1FFFFF
3FFFFF
7FFC7F
7FC07F
FF007F
FF007F
FF007F
FF00FF
FF00FF
FF83FF
7FFFFF
7FFFBF
3FFFBF
1FFE1F
0FFC1F
ENDCHAR
STARTCHAR 0102
ENCODING 258
SWIDTH 680 0
DWIDTH 34 0
BBX 34 47 0 0
BITMAP
00F001E000
00F003E000
00F807C000
007FFFC000
007FFF8000
003FFF8000
001FFE0000
0007FC0000
0000000000
0000000000
0000000000
000FFC0000
000FFC0000
000FFE0000
001FFE0000
001FFE0000
001FFF0000
003FFF0000
003FBF0000
003F3F8000
007F3F8000
007F1FC000
007F1FC000
00FE1FC000
00FE0FE000
00FE0FE000
01FC0FE000
01FC0FF000
03FC07F000
03F807F000
03F807F800
07F803F800
07FFFFF800
07FFFFFC00
0FFFFFFC00
0FFFFFFC00
0FFFFFFE00
1FFFFFFE00
1FFFFFFF00
1FC000FF00
3FC000FF00
3FC0007F80
3FC0007F80
7F80007F80
7F80003FC0
7F80003FC0
FF00003FC0
ENDCHAR
STARTCHAR 0103
ENCODING 259
SWIDTH 600 0
DWIDTH 30 0
BBX 24 39 2 0
BITMAP
0F001E
0F003E
0F807C
0FFFFC
07FFFC
07FFF8
03FFF0
00FFC0
001F00
000000
000000
007F80
07FFF0
1FFFF8
1FFFFC
0FFFFE
0FFFFF
0700FF
00007F
00007F
00007F
00007F
007FFF
07FFFF
1FFFFF
3FFFFF
7FFC7F
7FC07F
FF007F
FF007F
FF007F
FF00FF
FF00FF
FF83FF
7FFFFF
7FFFBF
3FFFBF
1FFE1F
0FFC1F
ENDCHAR
STARTCHAR 0104
ENCODING 260
SWIDTH 680 0
DWIDTH 34 0
BBX 34 48 0 -12
BITMAP
000FFC0000
000FFC0000
000FFE0000
001FFE0000
001FFE0000
001FFF0000
003FFF0000
003FBF0000
003F3F8000
007F3F8000
007F1FC000
007F1FC000
00FE1FC000
00FE0FE000
00FE0FE000
01FC0FE000
01FC0FF000
03FC07F000
03F807F000
03F807F800
07F803F800
07FFFFF800
07FFFFFC00
0FFFFFFC00
0FFFFFFC00
0FFFFFFE00
1FFFFFFE00
1FFFFFFF00
1FC000FF00
3FC000FF00
3FC0007F80
3FC0007F80
7F80007F80
7F80003FC0
7F80003FC0
FF00003FC0
0000001F00
0000003E00
0000007C00
000000F800
000000F800
000000F800
000000F800
000000FFC0
000000FFC0
000000FFC0
0000007FC0
0000001F80
ENDCHAR
STARTCHAR 0105
ENCODING 261
SWIDTH 600 0
DWIDTH 30 0
BBX 25 40 2 -12
BITMAP
007F8000
07FFF000
1FFFF800
1FFFFC00
0FFFFE00
0FFFFF00
0700FF00
00007F00
00007F00
00007F00
00007F00
007FFF00
07FFFF00
1FFFFF00
3FFFFF00
7FFC7F00
7FC07F00
FF007F00
FF007F00
FF007F00
FF00FF00
FF00FF00
FF83FF00
7FFFFF00
7FFFBF00
3FFFBF00
1FFE1F00
0FFC1F00
00001E00
00007C00
00007C00
0000F800
0001F000
0001F000
0001F000
0001FD80
0001FF80
0000FF80
00007F80
00003F80
ENDCHAR
STARTCHAR 0106
ENCODING 262
SWIDTH 620 0
DWIDTH 31 0
BBX 27 47 3 0
BITMAP
00007F80
0000FF80
0000FF00
0001FC00
0003F800
0007F000
000FE000
001F8000
00000000
00000000
00000000
001FFC00
007FFF80
01FFFFE0
03FFFFE0
07FFFFC0
0FFFFFC0
1FFC0F80
3FF00380
3FE00000
7FC00000
7F800000
7F800000
7F000000
FF000000
FF000000
FF000000
FF000000
FF000000
FF000000
FF000000
FF000000
FF000000
FF000000
FF000000
7F800000
7F800000
7F800000
7FC00000
3FE00040
3FF803C0
1FFFFFC0
0FFFFFC0
07FFFFC0
03FFFFC0
01FFFFC0
007FFE00
ENDCHAR
STARTCHAR 0107
ENCODING 263
SWIDTH 500 0
DWIDTH 25 0
BBX 22 38 2 0
BITMAP
0007FC
000FF8
000FE0
001FC0
003F80
007F00
00FC00
00F800
000000
000000
001F80
01FFF8
07FFFC
0FFFFC
1FFFF8
3FFFF8
3FF0F0
7FC010
7F8000
7F8000
7F0000
FF0000
FF0000
FF0000
FF0000
FF0000
FF0000
FF0000
7F0000
7F8000
7F8000
7FC018
3FFFF8
3FFFF8
1FFFF8
0FFFF8
07FFF8
01FFE0
ENDCHAR
STARTCHAR 0108
ENCODING 264
SWIDTH 620 0
DWIDTH 31 0
BBX 27 47 3 0
BITMAP
001FF000
001FF800
003FFC00
007FFE00
00FEFF00
01FC7F00
03F81F80
07E00FC0
00000000
00000000
00000000
001FFC00
007FFF80
01FFFFE0
03FFFFE0
07FFFFC0
0FFFFFC0
1FFC0F80
3FF00380
3FE00000
7FC00000
7F800000
7F800000
7F000000
FF000000
FF000000
FF000000
FF000000
FF000000
FF000000
FF000000
FF000000
FF000000
FF000000
FF000000
7F800000
7F800000
7F800000
7FC00000
3FE00040
3FF803C0
1FFFFFC0
0FFFFFC0
07FFFFC0
03FFFFC0
01FFFFC0
007FFE00
ENDCHAR
STARTCHAR 0109
ENCODING 265
SWIDTH 500 0
DWIDTH 25 0
BBX 23 38 2 0
BITMAP
00FF80
01FFC0
03FFE0
07FFF0
0FE7F8
1FC1FC
3F80FC
3E003E
000000
000000
001F80
01FFF8
07FFFC
0FFFFC
1FFFF8
3FFFF8
3FF0F0
7FC010
7F8000
7F8000
7F0000
FF0000
FF0000
FF0000
FF0000
FF0000
FF0000
FF0000
7F0000
7F8000
7F8000
7FC018
3FFFF8
3FFFF8
1FFFF8
0FFFF8
07FFF8
01FFE0
ENDCHAR
STARTCHAR 010A
ENCODING 266
SWIDTH 620 0
DWIDTH 31 0
BBX 27 46 3 0
BITMAP
0007E000
000FF000
000FF000
000FF000
000FF000
000FE000
0003C000
00000000
00000000
00000000
001FFC00
007FFF80
01FFFFE0
03FFFFE0
07FFFFC0
0FFFFFC0
1FFC0F80
3FF00380
3FE00000
7FC00000
7F800000
7F800000
7F000000
FF000000
FF000000
FF000000
FF000000
FF000000
FF000000
FF000000
FF000000
FF000000
FF000000
FF000000
7F800000
7F800000
7F800000
7FC00000
3FE00040
3FF803C0
1FFFFFC0
0FFFFFC0
07FFFFC0
03FFFFC0
01FFFFC0
007FFE00
ENDCHAR
STARTCHAR 010B
ENCODING 267
SWIDTH 500 0
DWIDTH 25 0
BBX 22 38 2 0
BITMAP
003E00
007F00
00FF00
00FF80
00FF00
007F00
003E00
000000
000000
000000
001F80
01FFF8
07FFFC
0FFFFC
1FFFF8
3FFFF8
3FF0F0
7FC010
7F8000
7F8000
7F0000
FF0000
FF0000
FF0000
FF0000
FF0000
FF0000
FF0000
7F0000
7F8000
7F8000
7FC018
3FFFF8
3FFFF8
1FFFF8
0FFFF8
07FFF8
01FFE0
ENDCHAR
STARTCHAR 010C
ENCODING 268
SWIDTH 620 0
DWIDTH 31 0
BBX 27 47 3 0
BITMAP
07E007E0
03F00FC0
01FC3F80
00FE7F00
007FFE00
007FFC00
003FFC00
001FF800
00000000
00000000
00000000
001FFC00
007FFF80
01FFFFE0
03FFFFE0
07FFFFC0
0FFFFFC0
1FFC0F80
3FF00380
3FE00000
7FC00000
7F800000
7F800000
7F000000
FF000000
FF000000
FF000000
FF000000
FF000000
FF000000
FF000000
FF000000
FF000000
FF000000
FF000000
7F800000
7F800000
7F800000
7FC00000
3FE00040
3FF803C0
1FFFFFC0
0FFFFFC0
07FFFFC0
03FFFFC0
01FFFFC0
007FFE00
ENDCHAR
STARTCHAR 010D
ENCODING 269
SWIDTH 500 0
DWIDTH 25 0
BBX 23 38 2 0
BITMAP
3F007E
1F81FC
0FE3F8
07F7F0
03FFE0
01FFC0
01FFC0
00FF80
000000
000000
001F80
01FFF8
07FFFC
0FFFFC
1FFFF8
3FFFF8
3FF0F0
7FC010
7F8000
7F8000
7F0000
FF0000
FF0000
FF0000
FF0000
FF0000
FF0000
FF0000
7F0000
7F8000
7F8000
7FC018
3FFFF8
3FFFF8
1FFFF8
0FFFF8
07FFF8
01FFE0
ENDCHAR
STARTCHAR 010E
ENCODING 270
SWIDTH 740 0
DWIDTH 37 0
BBX 30 47 4 0
BITMAP
0F800F80
07E03F80
07F07F00
03F8FE00
01FDFC00
00FFF800
007FF000
003FE000
00000000
00000000
00000000
FFFC0000
FFFFE000
FFFFFC00
FFFFFF00
FFFFFF80
FFFFFFC0
FFFFFFE0
FF007FE0
FF001FF0
FF000FF0
FF0007F8
FF0007F8
FF0007FC
FF0003FC
FF0003FC
FF0003FC
FF0003FC
FF0003FC
FF0003FC
FF0003FC
FF0003FC
FF0003FC
FF0003FC
FF0007F8
FF0007F8
FF0007F8
FF000FF0
FF001FF0
FF007FE0
FF03FFE0
FFFFFFC0
FFFFFF80
FFFFFF00
FFFFFC00
FFFFF000
FFFF0000
ENDCHAR
STARTCHAR 010F
ENCODING 271
SWIDTH 620 0
DWIDTH 31 0
BBX 36 38 2 0
BITMAP
00003FC7F0
00003FC7E0
00003FC7E0
00003FCFC0
00003FCFC0
00003FCF80
00003FCF80
00003FDF00
00003FC000
00003FC000
00F83FC000
03FF3FC000
0FFF9FC000
1FFFDFC000
1FFFFFC000
3FFFFFC000
3FF1FFC000
7FC07FC000
7F803FC000
7F803FC000
FF003FC000
FF001FC000
FF001FC000
FF001FC000
FF001FC000
FF001FC000
FF001FC000
FF001FC000
7F003FC000
7F803FC000
7F803FC000
7FC07FC000
3FFBFFC000
3FFFFFC000
1FFFDFC000
0FFFDFC000
07FF9FC000
03FE0FC000
ENDCHAR
STARTCHAR 0110
ENCODING 272
SWIDTH 740 0
DWIDTH 37 0
BBX 33 36 1 0
BITMAP
1FFF800000
1FFFFC0000
1FFFFF8000
1FFFFFE000
1FFFFFF000
1FFFFFF800
1FFFFFFC00
1FE00FFC00
1FE003FE00
1FE001FE00
1FE001FF00
1FE000FF00
1FE000FF80
1FE0007F80
1FE0007F80
FFFF807F80
FFFF807F80
FFFF807F80
FFFF807F80
FFFF807F80
FFFF807F80
1FE0007F80
1FE0007F80
1FE000FF00
1FE000FF00
1FE001FF00
1FE001FE00
1FE003FE00
1FE00FFC00
1FE07FFC00
1FFFFFF800
1FFFFFF000
1FFFFFE000
1FFFFF8000
1FFFFE0000
1FFFE00000
ENDCHAR
STARTCHAR 0111
ENCODING 273
SWIDTH 640 0
DWIDTH 32 0
BBX 30 38 2 0
BITMAP
00003FC0
00003FC0
00003FC0
00003FC0
001FFFFC
001FFFFC
001FFFFC
001FFFFC
001FFFFC
00003FC0
00003FC0
00003FC0
01FE3FC0
07FF9FC0
0FFFDFC0
1FFFDFC0
3FFFFFC0
3FFFFFC0
7FC0FFC0
7F807FC0
7F803FC0
FF003FC0
FF001FC0
FF001FC0
FF001FC0
FF001FC0
FF001FC0
FF001FC0
FF003FC0
7F803FC0
7F803FC0
7FC07FC0
7FFBFFC0
3FFFFFC0
1FFFDFC0
1FFFDFC0
07FF9FC0
03FE0FC0
ENDCHAR
STARTCHAR 0112
ENCODING 274
SWIDTH 560 0
DWIDTH 28 0
BBX 21 44 4 0
BITMAP
1FFFE0
1FFFE0
1FFFE0
1FFFE0
1FFFE0
000000
000000
000000
FFFFF8
FFFFF8
FFFFF8
FFFFF8
FFFFF8
FFFFF8
FFFFF8
FF0000
FF0000
FF0000
FF0000
FF0000
FF0000
FF0000
FFFFF0
FFFFF0
FFFFF0
FFFFF0
FFFFF0
FFFFF0
FFFFF0
FF0000
FF0000
FF0000
FF0000
FF0000
FF0000
FF0000
FF0000
FF0000
FFFFF8
FFFFF8
FFFFF8
FFFFF8
FFFFF8
FFFFF8
ENDCHAR
STARTCHAR 0113
ENCODING 275
SWIDTH 580 0
DWIDTH 29 0
BBX 25 35 2 0
BITMAP
07FFF800
07FFF800
07FFF800
07FFF800
07FFF800
00000000
00000000
003F0000
01FFE000
07FFF800
0FFFFC00
1FFFFE00
3FFFFF00
3FC0FF00
7F807F80
7F803F80
7F003F80
7F003F80
FFFFFF80
FFFFFF80
FFFFFF80
FFFFFF80
FFFFFF80
FF000000
FF000000
7F000000
7F800000
7F800000
3FC00300
3FF01F00
1FFFFF00
0FFFFF00
07FFFF00
03FFFF00
00FFFC00
ENDCHAR
STARTCHAR 0114
ENCODING 276
SWIDTH 560 0
DWIDTH 28 0
BBX 21 47 4 0
BITMAP
3C00F8
3C00F8
3E01F0
3FFFF0
1FFFE0
0FFFC0
07FF80
01FE00
000000
000000
000000
FFFFF8
FFFFF8
FFFFF8
FFFFF8
FFFFF8
FFFFF8
FFFFF8
FF0000
FF0000
FF0000
FF0000
FF0000
FF0000
FF0000
FFFFF0
FFFFF0
FFFFF0
FFFFF0
FFFFF0
FFFFF0
FFFFF0
FF0000
FF0000
FF0000
FF0000
FF0000
FF0000
FF0000
FF0000
FF0000
FFFFF8
FFFFF8
FFFFF8
FFFFF8
FFFFF8
FFFFF8
ENDCHAR
STARTCHAR 0115
ENCODING 277
SWIDTH 580 0
DWIDTH 29 0
BBX 25 39 2 0
BITMAP
1F003E00
1F003C00
0F007C00
0FFFFC00
0FFFF800
07FFF800
03FFF000
00FFC000
001E0000
00000000
00000000
003F0000
01FFE000
07FFF800
0FFFFC00
1FFFFE00
3FFFFF00
3FC0FF00
7F807F80
7F803F80
7F003F80
7F003F80
FFFFFF80
FFFFFF80
FFFFFF80
FFFFFF80
FFFFFF80
FF000000
FF000000
7F000000
7F800000
7F800000
3FC00300
3FF01F00
1FFFFF00
0FFFFF00
07FFFF00
03FFFF00
00FFFC00
ENDCHAR
STARTCHAR 0116
ENCODING 278
SWIDTH 560 0
DWIDTH 28 0
BBX 21 46 4 0
BITMAP
00FC00
01FE00
01FE00
01FE00
01FE00
00FE00
007800
000000
000000
000000
FFFFF8
FFFFF8
FFFFF8
FFFFF8
FFFFF8
FFFFF8
FFFFF8
FF0000
FF0000
FF0000
FF0000
FF0000
FF0000
FF0000
FFFFF0
FFFFF0
FFFFF0
FFFFF0
FFFFF0
FFFFF0
FFFFF0
FF0000
FF0000
FF0000
FF0000
FF0000
FF0000
FF0000
FF0000
FF0000
FFFFF8
FFFFF8
FFFFF8
FFFFF8
FFFFF8
FFFFF8
ENDCHAR
STARTCHAR 0117
ENCODING 279
SWIDTH 580 0
DWIDTH 29 0
BBX 25 38 2 0
BITMAP
001E0000
007F0000
007F8000
007F8000
007F8000
007F8000
003F0000
00000000
00000000
00000000
003F0000
01FFE000
07FFF800
0FFFFC00
1FFFFE00
3FFFFF00
3FC0FF00
7F807F80
7F803F80
7F003F80
7F003F80
FFFFFF80
FFFFFF80
FFFFFF80
FFFFFF80
FFFFFF80
FF000000
FF000000
7F000000
7F800000
7F800000
3FC00300
3FF01F00
1FFFFF00
0FFFFF00
07FFFF00
03FFFF00
00FFFC00
ENDCHAR
STARTCHAR 0118
ENCODING 280
SWIDTH 560 0
DWIDTH 28 0
BBX 21 48 4 -12
BITMAP
FFFFF8
FFFFF8
FFFFF8
FFFFF8
FFFFF8
FFFFF8
FFFFF8
FF0000
FF0000
FF0000
FF0000
FF0000
FF0000
FF0000
FFFFF0
FFFFF0
FFFFF0
FFFFF0
FFFFF0
FFFFF0
FFFFF0
FF0000
FF0000
FF0000
FF0000
FF0000
FF0000
FF0000
FF0000
FF0000
FFFFF8
FFFFF8
FFFFF8
FFFFF8
FFFFF8
FFFFF8
0001E0
0007C0
0007C0
000F80
001F00
001F00
001F00
001FD8
000FF8
000FF8
0007F8
0003F8
ENDCHAR
STARTCHAR 0119
ENCODING 281
SWIDTH 580 0
DWIDTH 29 0
BBX 25 40 2 -12
BITMAP
003F0000
01FFE000
07FFF800
0FFFFC00
1FFFFE00
3FFFFF00
3FC0FF00
7F807F80
7F803F80
7F003F80
7F003F80
FFFFFF80
FFFFFF80
FFFFFF80
FFFFFF80
FFFFFF80
FF000000
FF000000
7F000000
7F800000
7F800000
3FC00300
3FF01F00
1FFFFF00
0FFFFF00
07FFFF00
03FFFF00
00FFFE00
00007C00
0000F800
0001F000
0003E000
0003E000
0003E000
0007E000
0003F600
0003FE00
0003FE00
0001FE00
00007E00
ENDCHAR
STARTCHAR 011A
ENCODING 282
SWIDTH 560 0
DWIDTH 28 0
BBX 22 47 4 0
BITMAP
7C00FC
7E01F8
3F87F0
1FCFE0
0FFFC0
07FFC0
03FF80
03FF00
000000
000000
000000
FFFFF8
FFFFF8
FFFFF8
FFFFF8
FFFFF8
FFFFF8
FFFFF8
FF0000
FF0000
FF0000
FF0000
FF0000
FF0000
FF0000
FFFFF0
FFFFF0
FFFFF0
FFFFF0
FFFFF0
FFFFF0
FFFFF0
FF0000
FF0000
FF0000
FF0000
FF0000
FF0000
FF0000
FF0000
FF0000
FFFFF8
FFFFF8
FFFFF8
FFFFF8
FFFFF8
FFFFF8
ENDCHAR
STARTCHAR 011B
ENCODING 283
SWIDTH 580 0
DWIDTH 29 0
BBX 25 38 2 0
BITMAP
3F007E00
1FC0FC00
0FE3F800
07F7F800
03FFF000
01FFE000
00FFC000
00FF8000
00000000
00000000
003F0000
01FFE000
07FFF800
0FFFFC00
1FFFFE00
3FFFFF00
3FC0FF00
7F807F80
7F803F80
7F003F80
7F003F80
FFFFFF80
FFFFFF80
FFFFFF80
FFFFFF80
FFFFFF80
FF000000
FF000000
7F000000
7F800000
7F800000
3FC00300
3FF01F00
1FFFFF00
0FFFFF00
07FFFF00
03FFFF00
00FFFC00
ENDCHAR
STARTCHAR 011C
ENCODING 284
SWIDTH 720 0
DWIDTH 36 0
BBX 29 47 3 0
BITMAP
0007FC00
000FFC00
001FFE00
003FFF00
007FFF80
00FE1FC0
00FC0FE0
01F807F0
00000000
00000000
00000000
000FFF80
003FFFF0
00FFFFF8
03FFFFF8
07FFFFF0
0FFFFFF0
1FFE03E0
1FF80060
3FF00000
3FE00000
7FC00000
7F800000
7F800000
FF000000
FF000000
FF000000
FF01FFF8
FF01FFF8
FF01FFF8
FF01FFF8
FF01FFF8
FF01FFF8
FF0003F8
FF0003F8
7F8003F8
7F8003F8
7FC003F8
3FC003F8
3FE003F8
1FF803F8
1FFFFFF8
0FFFFFF8
07FFFFF8
03FFFFF8
00FFFFF8
003FFFC0
ENDCHAR
STARTCHAR 011D
ENCODING 285
SWIDTH 560 0
DWIDTH 28 0
BBX 28 50 0 -12
BITMAP
00FFC000
00FFE000
01FFF000
03FFF800
07F3FC00
0FE0FC00
1FC07E00
1F001F00
00000000
00000000
003F8000
01FFFFF0
07FFFFF0
0FFFFFF0
1FFFFFF0
1FE0FF00
1FC07F00
3FC07F00
3F807F00
3F807F80
3F807F80
3FC07F00
1FC07F00
1FE0FF00
0FFFFE00
0FFFFE00
07FFFC00
01FFF000
07FF8000
0FC00000
0F800000
1FC00000
1FFFE000
0FFFFF00
0FFFFF80
07FFFFC0
0FFFFFE0
1FFFFFE0
3FE07FE0
7F000FE0
FE0007E0
FE0007E0
FE000FE0
FE001FE0
FF807FC0
7FFFFF80
7FFFFF80
3FFFFE00
0FFFF800
01FFC000
ENDCHAR
STARTCHAR 011E
ENCODING 286
SWIDTH 720 0
DWIDTH 36 0
BBX 29 47 3 0
BITMAP
00F003E0
00F003E0
00F807C0
00FFFFC0
007FFF80
003FFF00
001FFE00
0007F800
00000000
00000000
00000000
000FFF80
003FFFF0
00FFFFF8
03FFFFF8
07FFFFF0
0FFFFFF0
1FFE03E0
1FF80060
3FF00000
3FE00000
7FC00000
7F800000
7F800000
FF000000
FF000000
FF000000
FF01FFF8
FF01FFF8
FF01FFF8
FF01FFF8
FF01FFF8
FF01FFF8
FF0003F8
FF0003F8
7F8003F8
7F8003F8
7FC003F8
3FC003F8
3FE003F8
1FF803F8
1FFFFFF8
0FFFFFF8
07FFFFF8
03FFFFF8
00FFFFF8
003FFFC0
ENDCHAR
STARTCHAR 011F
ENCODING 287
SWIDTH 560 0
DWIDTH 28 0
BBX 28 51 0 -12
BITMAP
0F001E00
0F003E00
0F803E00
0FFFFC00
07FFFC00
03FFF800
01FFF000
00FFC000
001E0000
00000000
00000000
003F8000
01FFFFF0
07FFFFF0
0FFFFFF0
1FFFFFF0
1FE0FF00
1FC07F00
3FC07F00
3F807F00
3F807F80
3F807F80
3FC07F00
1FC07F00
1FE0FF00
0FFFFE00
0FFFFE00
07FFFC00
01FFF000
07FF8000
0FC00000
0F800000
1FC00000
1FFFE000
0FFFFF00
0FFFFF80
07FFFFC0
0FFFFFE0
1FFFFFE0
3FE07FE0
7F000FE0
FE0007E0
FE0007E0
FE000FE0
FE001FE0
FF807FC0
7FFFFF80
7FFFFF80
3FFFFE00
0FFFF800
01FFC000
ENDCHAR
STARTCHAR 0120
ENCODING 288
SWIDTH 720 0
DWIDTH 36 0
BBX 29 46 3 0
BITMAP
0003F000
0007F800
0007F800
0007F800
0007F800
0003F800
0001E000
00000000
00000000
00000000
000FFF80
003FFFF0
00FFFFF8
03FFFFF8
07FFFFF0
0FFFFFF0
1FFE03E0
1FF80060
3FF00000
3FE00000
7FC00000
7F800000
7F800000
FF000000
FF000000
FF000000
FF01FFF8
FF01FFF8
FF01FFF8
FF01FFF8
FF01FFF8
FF01FFF8
FF0003F8
FF0003F8
7F8003F8
7F8003F8
7FC003F8
3FC003F8
3FE003F8
1FF803F8
1FFFFFF8
0FFFFFF8
07FFFFF8
03FFFFF8
00FFFFF8
003FFFC0
ENDCHAR
STARTCHAR 0121
ENCODING 289
SWIDTH 560 0
DWIDTH 28 0
BBX 28 50 0 -12
BITMAP
001F0000
003F8000
007F8000
007F8000
007F8000
003F8000
003F0000
00000000
00000000
00000000
003F8000
01FFFFF0
07FFFFF0
0FFFFFF0
1FFFFFF0
1FE0FF00
1FC07F00
3FC07F00
3F807F00
3F807F80
3F807F80
3FC07F00
1FC07F00
1FE0FF00
0FFFFE00
0FFFFE00
07FFFC00
01FFF000
07FF8000
0FC00000
0F800000
1FC00000
1FFFE000
0FFFFF00
0FFFFF80
07FFFFC0
0FFFFFE0
1FFFFFE0
3FE07FE0
7F000FE0
FE0007E0
FE0007E0
FE000FE0
FE001FE0
FF807FC0
7FFFFF80
7FFFFF80
3FFFFE00
0FFFF800
01FFC000
ENDCHAR
STARTCHAR 0122
ENCODING 290
SWIDTH 720 0
DWIDTH 36 0
BBX 29 47 3 -11
BITMAP
000FFF80
003FFFF0
00FFFFF8
03FFFFF8
07FFFFF0
0FFFFFF0
1FFE03E0
1FF80060
3FF00000
3FE00000
7FC00000
7F800000
7F800000
FF000000
FF000000
FF000000
FF01FFF8
FF01FFF8
FF01FFF8
FF01FFF8
FF01FFF8
FF01FFF8
FF0003F8
FF0003F8
7F8003F8
7F8003F8
7FC003F8
3FC003F8
3FE003F8
1FF803F8
1FFFFFF8
0FFFFFF8
07FFFFF8
03FFFFF8
00FFFFF8
003FFFC0
00000000
00000000
00000000
0003F800
0003F000
0007F000
0007E000
0007E000
0007C000
0007C000
000F8000
ENDCHAR
STARTCHAR 0123
ENCODING 291
SWIDTH 560 0
DWIDTH 28 0
BBX 28 50 0 -12
BITMAP
0007C000
000F8000
000F8000
001F8000
001F8000
003F8000
003F0000
007F0000
00000000
00000000
003F8000
01FFFFF0
07FFFFF0
0FFFFFF0
1FFFFFF0
1FE0FF00
1FC07F00
3FC07F00
3F807F00
3F807F80
3F807F80
3FC07F00
1FC07F00
1FE0FF00
0FFFFE00
0FFFFE00
07FFFC00
01FFF000
07FF8000
0FC00000
0F800000
1FC00000
1FFFE000
0FFFFF00
0FFFFF80
07FFFFC0
0FFFFFE0
1FFFFFE0
3FE07FE0
7F000FE0
FE0007E0
FE0007E0
FE000FE0
FE001FE0
FF807FC0
7FFFFF80
7FFFFF80
3FFFFE00
0FFFF800
01FFC000
ENDCHAR
STARTCHAR 0124
ENCODING 292
SWIDTH 760 0
DWIDTH 38 0
BBX 30 47 4 0
BITMAP
001FF000
003FF000
007FF800
00FFFC00
00FEFE00
01F87F00
03F03F80
07E00FC0
00000000
00000000
00000000
FF0003FC
FF0003FC
FF0003FC
FF0003FC
FF0003FC
FF0003FC
FF0003FC
FF0003FC
FF0003FC
FF0003FC
FF0003FC
FF0003FC
FF0003FC
FF0003FC
FFFFFFFC
FFFFFFFC
FFFFFFFC
FFFFFFFC
FFFFFFFC
FFFFFFFC
FFFFFFFC
FF0003FC
FF0003FC
FF0003FC
FF0003FC
FF0003FC
FF0003FC
FF0003FC
FF0003FC
FF0003FC
FF0003FC
FF0003FC
FF0003FC
FF0003FC
FF0003FC
FF0003FC
ENDCHAR
STARTCHAR 0125
ENCODING 293
SWIDTH 640 0
DWIDTH 32 0
BBX 32 49 -3 0
BITMAP
03FE0000
07FF0000
07FF8000
0FFFC000
1FCFE000
3F87F000
7E03F800
FC00F800
00000000
00000000
00000000
01FC0000
01FC0000
01FC0000
01FC0000
01FC0000
01FC0000
01FC0000
01FC0000
01FC0000
01FC0000
01FC0F80
01FC7FF0
01FCFFF8
01FDFFFC
01FFFFFE
01FFFFFE
01FFC3FF
01FF01FF
01FF00FF
01FE00FF
01FE007F
01FE007F
01FC007F
01FC007F
01FC007F
01FC007F
01FC007F
01FC007F
01FC007F
01FC007F
01FC007F
01FC007F
01FC007F
01FC007F
01FC007F
01FC007F
01FC007F
01FC007F
ENDCHAR
STARTCHAR 0126
ENCODING 294
SWIDTH 760 0
DWIDTH 38 0
BBX 38 36 0 0
BITMAP
0FF0003FC0
0FF0003FC0
0FF0003FC0
0FF0003FC0
0FF0003FC0
FFFFFFFFFC
FFFFFFFFFC
FFFFFFFFFC
FFFFFFFFFC
FFFFFFFFFC
0FF0003FC0
0FF0003FC0
0FF0003FC0
0FF0003FC0
0FFFFFFFC0
0FFFFFFFC0
0FFFFFFFC0
0FFFFFFFC0
0FFFFFFFC0
0FFFFFFFC0
0FFFFFFFC0
0FF0003FC0
0FF0003FC0
0FF0003FC0
0FF0003FC0
0FF0003FC0
0FF0003FC0
0FF0003FC0
0FF0003FC0
0FF0003FC0
0FF0003FC0
0FF0003FC0
0FF0003FC0
0FF0003FC0
0FF0003FC0
0FF0003FC0
ENDCHAR
STARTCHAR 0127
ENCODING 295
SWIDTH 640 0
DWIDTH 32 0
BBX 29 38 0 0
BITMAP
0FE00000
0FE00000
0FE00000
0FE00000
FFFFE000
FFFFE000
FFFFE000
FFFFE000
FFFFE000
0FE00000
0FE00000
0FE00000
0FE1FF00
0FE7FFC0
0FEFFFE0
0FEFFFF0
0FFFFFF0
0FFFFFF8
0FFC0FF8
0FF807F8
0FF007F8
0FF007F8
0FF003F8
0FF003F8
0FE003F8
0FE003F8
0FE003F8
0FE003F8
0FE003F8
0FE003F8
0FE003F8
0FE003F8
0FE003F8
0FE003F8
0FE003F8
0FE003F8
0FE003F8
0FE003F8
ENDCHAR
STARTCHAR 0128
ENCODING 296
SWIDTH 320 0
DWIDTH 16 0
BBX 20 46 -2 0
BITMAP
0FC070
3FF0F0
3FFFF0
7FFFF0
7FFFE0
F87FC0
F01F80
000000
000000
000000
03FC00
03FC00
03FC00
03FC00
03FC00
03FC00
03FC00
03FC00
03FC00
03FC00
03FC00
03FC00
03FC00
03FC00
03FC00
03FC00
03FC00
03FC00
03FC00
03FC00
03FC00
03FC00
03FC00
03FC00
03FC00
03FC00
03FC00
03FC00
03FC00
03FC00
03FC00
03FC00
03FC00
03FC00
03FC00
03FC00
ENDCHAR
STARTCHAR 0129
ENCODING 297
SWIDTH 300 0
DWIDTH 15 0
BBX 20 38 -2 0
BITMAP
0700F0
3FC0F0
7FF3E0
7FFFE0
FFFFE0
F1FFC0
F07F80
E00C00
000000
000000
000000
03F800
03F800
03F800
03F800
03F800
03F800
03F800
03F800
03F800
03F800
03F800
03F800
03F800
03F800
03F800
03F800
03F800
03F800
03F800
03F800
03F800
03F800
03F800
03F800
03F800
03F800
03F800
ENDCHAR
STARTCHAR 012A
ENCODING 298
SWIDTH 320 0
DWIDTH 16 0
BBX 17 44 0 0
BITMAP
FFFF80
FFFF80
FFFF80
FFFF80
FFFF80
000000
000000
000000
0FF000
0FF000
0FF000
0FF000
0FF000
0FF000
0FF000
0FF000
0FF000
0FF000
0FF000
0FF000
0FF000
0FF000
0FF000
0FF000
0FF000
0FF000
0FF000
0FF000
0FF000
0FF000
0FF000
0FF000
0FF000
0FF000
0FF000
0FF000
0FF000
0FF000
0FF000
0FF000
0FF000
0FF000
0FF000
0FF000
ENDCHAR
STARTCHAR 012B
ENCODING 299
SWIDTH 300 0
DWIDTH 15 0
BBX 17 35 -1 0
BITMAP
FFFF80
FFFF80
FFFF80
FFFF80
FFFF80
000000
000000
000000
07F000
07F000
07F000
07F000
07F000
07F000
07F000
07F000
07F000
07F000
07F000
07F000
07F000
07F000
07F000
07F000
07F000
07F000
07F000
07F000
07F000
07F000
07F000
07F000
07F000
07F000
07F000
ENDCHAR
STARTCHAR 012C
ENCODING 300
SWIDTH 320 0
DWIDTH 16 0
BBX 19 47 -1 0
BITMAP
F001E0
F003E0
F807C0
7FFFC0
7FFF80
3FFF80
1FFE00
07F800
000000
000000
000000
07F800
07F800
07F800
07F800
07F800
07F800
07F800
07F800
07F800
07F800
07F800
07F800
07F800
07F800
07F800
07F800
07F800
07F800
07F800
07F800
07F800
07F800
07F800
07F800
07F800
07F800
07F800
07F800
07F800
07F800
07F800
07F800
07F800
07F800
07F800
07F800
ENDCHAR
STARTCHAR 012D
ENCODING 301
SWIDTH 300 0
DWIDTH 15 0
BBX 19 39 -2 0
BITMAP
F001E0
F801E0
F803E0
7FFFE0
7FFFC0
3FFF80
1FFF00
0FFE00
01F000
000000
000000
000000
03F800
03F800
03F800
03F800
03F800
03F800
03F800
03F800
03F800
03F800
03F800
03F800
03F800
03F800
03F800
03F800
03F800
03F800
03F800
03F800
03F800
03F800
03F800
03F800
03F800
03F800
03F800
ENDCHAR
STARTCHAR 012E
ENCODING 302
SWIDTH 320 0
DWIDTH 16 0
BBX 10 48 3 -12
BITMAP
7F80
7F80
7F80
7F80
7F80
7F80
7F80
7F80
7F80
7F80
7F80
7F80
7F80
7F80
7F80
7F80
7F80
7F80
7F80
7F80
7F80
7F80
7F80
7F80
7F80
7F80
7F80
7F80
7F80
7F80
7F80
7F80
7F80
7F80
7F80
7F80
0F80
1F00
3E00
7C00
7C00
F800
FC00
FEC0
7FC0
7FC0
3FC0
0FC0
ENDCHAR
STARTCHAR 012F
ENCODING 303
SWIDTH 300 0
DWIDTH 15 0
BBX 10 50 2 -12
BITMAP
1F00
3F80
3FC0
3FC0
3FC0
3F80
1F80
0000
0000
0000
0000
3F80
3F80
3F80
3F80
3F80
3F80
3F80
3F80
3F80
3F80
3F80
3F80
3F80
3F80
3F80
3F80
3F80
3F80
3F80
3F80
3F80
3F80
3F80
3F80
3F80
3F80
3F80
0F80
1F00
3E00
7C00
7C00
F800
FC00
FEC0
7FC0
7FC0
3FC0
1FC0
ENDCHAR
STARTCHAR 0130
ENCODING 304
SWIDTH 320 0
DWIDTH 16 0
BBX 8 46 4 0
BITMAP
7E
7F
FF
FF
FF
7F
3C
00
00
00
FF
FF
FF
FF
FF
FF
FF
FF
FF
FF
FF
FF
FF
FF
FF
FF
FF
FF
FF
FF
FF
FF
FF
FF
FF
FF
FF
FF
FF
FF
FF
FF
FF
FF
FF
FF
ENDCHAR
STARTCHAR 0131
ENCODING 305
SWIDTH 300 0
DWIDTH 15 0
BBX 7 27 4 0
BITMAP
FE
FE
FE
FE
FE
FE
FE
FE
FE
FE
FE
FE
FE
FE
FE
FE
FE
FE
FE
FE
FE
FE
FE
FE
FE
FE
FE
ENDCHAR
STARTCHAR 0132
ENCODING 306
SWIDTH 660 0
DWIDTH 33 0
BBX 25 47 4 -11
BITMAP
FF007F80
FF007F80
FF007F80
FF007F80
FF007F80
FF007F80
FF007F80
FF007F80
FF007F80
FF007F80
FF007F80
FF007F80
FF007F80
FF007F80
FF007F80
FF007F80
FF007F80
FF007F80
FF007F80
FF007F80
FF007F80
FF007F80
FF007F80
FF007F80
FF007F80
FF007F80
FF007F80
FF007F80
FF007F80
FF007F80
FF007F80
FF007F80
FF007F80
FF007F80
FF007F80
FF007F80
00007F00
00007F00
0000FF00
0001FF00
007FFE00
007FFE00
007FFC00
007FFC00
007FF000
007FE000
000C0000
ENDCHAR
STARTCHAR 0133
ENCODING 307
SWIDTH 600 0
DWIDTH 30 0
BBX 23 50 4 -12
BITMAP
7C0078
FE01FC
FF01FE
FF01FE
FF01FE
FE01FE
7E00FC
000000
000000
000000
000000
FE01FE
FE01FE
FE01FE
FE01FE
FE01FE
FE01FE
FE01FE
FE01FE
FE01FE
FE01FE
FE01FE
FE01FE
FE01FE
FE01FE
FE01FE
FE01FE
FE01FE
FE01FE
FE01FE
FE01FE
FE01FE
FE01FE
FE01FE
FE01FE
FE01FE
FE01FE
FE01FE
0001FE
0001FE
0001FE
0001FE
0001FE
0003FC
00FFFC
00FFFC
00FFF8
00FFF0
00FFE0
007F80
ENDCHAR
STARTCHAR 0134
ENCODING 308
SWIDTH 320 0
DWIDTH 16 0
BBX 23 58 -4 -11
BITMAP
00FF80
01FFC0
03FFC0
03FFE0
07F7F0
0FE3F8
1F81FC
3F007E
000000
000000
000000
00FF00
00FF00
00FF00
00FF00
00FF00
00FF00
00FF00
00FF00
00FF00
00FF00
00FF00
00FF00
00FF00
00FF00
00FF00
00FF00
00FF00
00FF00
00FF00
00FF00
00FF00
00FF00
00FF00
00FF00
00FF00
00FF00
00FF00
00FF00
00FF00
00FF00
00FF00
00FF00
00FF00
00FF00
00FF00
00FF00
00FF00
00FF00
01FF00
03FE00
FFFE00
FFFC00
FFFC00
FFF800
FFF000
FFC000
080000
ENDCHAR
STARTCHAR 0135
ENCODING 309
SWIDTH 300 0
DWIDTH 15 0
BBX 21 50 -3 -12
BITMAP
03FF00
07FF00
0FFF80
1FFFC0
3FCFE0
3F07F0
7E03F8
F800F8
000000
000000
000000
01FC00
01FC00
01FC00
01FC00
01FC00
01FC00
01FC00
01FC00
01FC00
01FC00
01FC00
01FC00
01FC00
01FC00
01FC00
01FC00
01FC00
01FC00
01FC00
01FC00
01FC00
01FC00
01FC00
01FC00
01FC00
01FC00
01FC00
01FC00
01FC00
01FC00
01FC00
03FC00
07FC00
FFFC00
FFF800
FFF800
FFF000
FFE000
FF8000
ENDCHAR
STARTCHAR 0136
ENCODING 310
SWIDTH 660 0
DWIDTH 33 0
BBX 29 47 4 -11
BITMAP
FF0007F8
FF000FF0
FF001FE0
FF003FE0
FF007FC0
FF007F80
FF00FF00
FF01FE00
FF03FE00
FF07FC00
FF07F800
FF0FF000
FF1FF000
FF3FE000
FF3FC000
FF7F8000
FFFF8000
FFFFC000
FFFFC000
FFFFE000
FFFFE000
FFEFF000
FF8FF800
FF07F800
FF07FC00
FF03FE00
FF01FE00
FF01FF00
FF00FF00
FF007F80
FF007FC0
FF003FC0
FF003FE0
FF001FF0
FF000FF0
FF000FF8
00000000
00000000
00000000
001FC000
003F8000
003F8000
003F0000
003F0000
003E0000
007C0000
007C0000
ENDCHAR
STARTCHAR 0137
ENCODING 311
SWIDTH 620 0
DWIDTH 31 0
BBX 27 49 4 -11
BITMAP
FE000000
FE000000
FE000000
FE000000
FE000000
FE000000
FE000000
FE000000
FE000000
FE000000
FE000000
FE007FC0
FE00FF80
FE01FF00
FE03FE00
FE03FC00
FE07F800
FE0FF000
FE1FE000
FE3FC000
FE7F8000
FEFF0000
FEFF0000
FFFF0000
FFFF8000
FFFFC000
FFFFC000
FFDFE000
FF8FF000
FE0FF800
FE07F800
FE03FC00
FE03FE00
FE01FF00
FE00FF00
FE007F80
FE007FC0
FE003FE0
00000000
00000000
00000000
007F0000
007E0000
00FE0000
00FC0000
00FC0000
00F80000
00F80000
01F00000
ENDCHAR
STARTCHAR 0138
ENCODING 312
SWIDTH 620 0
DWIDTH 31 0
BBX 27 27 4 0
BITMAP
FE003FC0
FE007F80
FE00FF00
FE01FE00
FE03FC00
FE07F800
FE07F800
FE0FF000
FE1FE000
FE3FC000
FE7F8000
FEFF0000
FEFF0000
FFFF8000
FFFF8000
FFFFC000
FFFFE000
FF9FF000
FF0FF000
FE07F800
FE03FC00
FE03FE00
FE01FF00
FE00FF00
FE007F80
FE007FC0
FE003FE0
ENDCHAR
STARTCHAR 0139
ENCODING 313
SWIDTH 560 0
DWIDTH 28 0
BBX 23 47 4 0
BITMAP
07FC00
07F800
0FF000
1FE000
3FC000
7F0000
7E0000
FC0000
000000
000000
000000
FF0000
FF0000
FF0000
FF0000
FF0000
FF0000
FF0000
FF0000
FF0000
FF0000
FF0000
FF0000
FF0000
FF0000
FF0000
FF0000
FF0000
FF0000
FF0000
FF0000
FF0000
FF0000
FF0000
FF0000
FF0000
FF0000
FF0000
FF0000
FF0000
FF0000
FFFFFE
FFFFFE
FFFFFE
FFFFFE
FFFFFE
FFFFFE
ENDCHAR
STARTCHAR 013A
ENCODING 314
SWIDTH 300 0
DWIDTH 15 0
BBX 14 49 3 0
BITMAP
03FC
07F8
0FF0
1FE0
1FC0
3F00
7E00
FC00
0000
0000
0000
7F00
7F00
7F00
7F00
7F00
7F00
7F00
7F00
7F00
7F00
7F00
7F00
7F00
7F00
7F00
7F00
7F00
7F00
7F00
7F00
7F00
7F00
7F00
7F00
7F00
7F00
7F00
7F00
7F00
7F00
7F00
7F00
7F00
7F00
7F00
7F00
7F00
7F00
ENDCHAR
STARTCHAR 013B
ENCODING 315
SWIDTH 560 0
DWIDTH 28 0
BBX 23 47 4 -11
BITMAP
FF0000
FF0000
FF0000
FF0000
FF0000
FF0000
FF0000
FF0000
FF0000
FF0000
FF0000
FF0000
FF0000
FF0000
FF0000
FF0000
FF0000
FF0000
FF0000
FF0000
FF0000
FF0000
FF0000
FF0000
FF0000
FF0000
FF0000
FF0000
FF0000
FF0000
FFFFFE
FFFFFE
FFFFFE
FFFFFE
FFFFFE
FFFFFE
000000
000000
000000
007F00
00FE00
00FE00
00FC00
00FC00
00F800
01F000
01F000
ENDCHAR
STARTCHAR 013C
ENCODING 316
SWIDTH 300 0
DWIDTH 15 0
BBX 9 49 3 -11
BITMAP
7F00
7F00
7F00
7F00
7F00
7F00
7F00
7F00
7F00
7F00
7F00
7F00
7F00
7F00
7F00
7F00
7F00
7F00
7F00
7F00
7F00
7F00
7F00
7F00
7F00
7F00
7F00
7F00
7F00
7F00
7F00
7F00
7F00
7F00
7F00
7F00
7F00
7F00
0000
0000
0000
3F80
3F00
3F00
7E00
7E00
7C00
7C00
F800
ENDCHAR
STARTCHAR 013D
ENCODING 317
SWIDTH 560 0
DWIDTH 28 0
BBX 24 36 4 0
BITMAP
FF007F
FF007F
FF007E
FF007E
FF00FC
FF00FC
FF00F8
FF00F0
FF0000
FF0000
FF0000
FF0000
FF0000
FF0000
FF0000
FF0000
FF0000
FF0000
FF0000
FF0000
FF0000
FF0000
FF0000
FF0000
FF0000
FF0000
FF0000
FF0000
FF0000
FF0000
FFFFFE
FFFFFE
FFFFFE
FFFFFE
FFFFFE
FFFFFE
ENDCHAR
STARTCHAR 013E
ENCODING 318
SWIDTH 300 0
DWIDTH 15 0
BBX 17 38 4 0
BITMAP
FE3F80
FE3F80
FE3F00
FE3F00
FE7E00
FE7E00
FE7C00
FE7800
FE0000
FE0000
FE0000
FE0000
FE0000
FE0000
FE0000
FE0000
FE0000
FE0000
FE0000
FE0000
FE0000
FE0000
FE0000
FE0000
FE0000
FE0000
FE0000
FE0000
FE0000
FE0000
FE0000
FE0000
FE0000
FE0000
FE0000
FE0000
FE0000
FE0000
ENDCHAR
STARTCHAR 013F
ENCODING 319
SWIDTH 560 0
DWIDTH 28 0
BBX 23 36 4 0
BITMAP
FF0000
FF0000
FF0000
FF0000
FF0000
FF0000
FF0000
FF0000
FF0000
FF0000
FF0000
FF0000
FF0000
FF01F8
FF03FC
FF03FC
FF03FC
FF03FC
FF03FC
FF01F0
FF0000
FF0000
FF0000
FF0000
FF0000
FF0000
FF0000
FF0000
FF0000
FF0000
FFFFFE
FFFFFE
FFFFFE
FFFFFE
FFFFFE
FFFFFE
ENDCHAR
STARTCHAR 0140
ENCODING 320
SWIDTH 360 0
DWIDTH 18 0
BBX 17 38 4 0
BITMAP
FE0000
FE0000
FE0000
FE0000
FE0000
FE0000
FE0000
FE0000
FE0000
FE0000
FE0000
FE0000
FE0000
FE0000
FE0000
FE0800
FE7F00
FE7F00
FE7F80
FE7F80
FE7F80
FE7F00
FE1C00
FE0000
FE0000
FE0000
FE0000
FE0000
FE0000
FE0000
FE0000
FE0000
FE0000
FE0000
FE0000
FE0000
FE0000
FE0000
ENDCHAR
STARTCHAR 0141
ENCODING 321
SWIDTH 560 0
DWIDTH 28 0
BBX 27 36 0 0
BITMAP
0FF00000
0FF00000
0FF00000
0FF00000
0FF00000
0FF00000
0FF00000
0FF00000
0FF00000
0FF00000
0FF00000
0FF30000
0FF78000
0FFF8000
0FFFC000
0FFFC000
0FFF8000
0FFE0000
1FFC0000
7FF00000
FFF00000
7FF00000
7FF00000
3FF00000
1FF00000
0FF00000
0FF00000
0FF00000
0FF00000
0FF00000
0FFFFFE0
0FFFFFE0
0FFFFFE0
0FFFFFE0
0FFFFFE0
0FFFFFE0
ENDCHAR
STARTCHAR 0142
ENCODING 322
SWIDTH 300 0
DWIDTH 15 0
BBX 16 38 0 0
BITMAP
0FE0
0FE0
0FE0
0FE0
0FE0
0FE0
0FE0
0FE0
0FE0
0FE0
0FE0
0FE0
0FE0
0FE0
0FE0
0FFC
0FFC
0FFE
0FFF
0FFE
1FF8
7FF0
FFE0
FFE0
FFE0
7FE0
3FE0
0FE0
0FE0
0FE0
0FE0
0FE0
0FE0
0FE0
0FE0
0FE0
0FE0
0FE0
ENDCHAR
STARTCHAR 0143
ENCODING 323
SWIDTH 800 0
DWIDTH 40 0
BBX 32 47 4 0
BITMAP
00007FC0
00007F80
0000FF00
0001FE00
0003FC00
0003F000
0007E000
000FC000
00000000
00000000
00000000
FFC0007F
FFE0007F
FFE0007F
FFF0007F
FFF0007F
FFF8007F
FFFC007F
FFFC007F
FFFE007F
FFFE007F
FEFF007F
FEFF807F
FE7F807F
FE3FC07F
FE3FC07F
FE1FE07F
FE1FE07F
FE0FF07F
FE0FF87F
FE07F87F
FE03FC7F
FE03FC7F
FE01FE3F
FE01FE3F
FE00FF3F
FE007FBF
FE007FBF
FE003FFF
FE003FFF
FE001FFF
FE001FFF
FE000FFF
FE0007FF
FE0007FF
FE0003FF
FE0003FF
ENDCHAR
STARTCHAR 0144
ENCODING 324
SWIDTH 640 0
DWIDTH 32 0
BBX 25 38 4 0
BITMAP
0007FC00
000FF800
000FE000
001FC000
003F8000
007F0000
00FE0000
00F80000
00000000
00000000
0007C000
FC3FF800
FCFFFC00
FDFFFE00
FFFFFF00
FFFFFF00
FFE1FF80
FF80FF80
FF807F80
FF007F80
FF003F80
FF003F80
FE003F80
FE003F80
FE003F80
FE003F80
FE003F80
FE003F80
FE003F80
FE003F80
FE003F80
FE003F80
FE003F80
FE003F80
FE003F80
FE003F80
FE003F80
FE003F80
ENDCHAR
STARTCHAR 0145
ENCODING 325
SWIDTH 800 0
DWIDTH 40 0
BBX 32 47 4 -11
BITMAP
FFC0007F
FFE0007F
FFE0007F
FFF0007F
FFF0007F
FFF8007F
FFFC007F
FFFC007F
FFFE007F
FFFE007F
FEFF007F
FEFF807F
FE7F807F
FE3FC07F
FE3FC07F
FE1FE07F
FE1FE07F
FE0FF07F
FE0FF87F
FE07F87F
FE03FC7F
FE03FC7F
FE01FE3F
FE01FE3F
FE00FF3F
FE007FBF
FE007FBF
FE003FFF
FE003FFF
FE001FFF
FE001FFF
FE000FFF
FE0007FF
FE0007FF
FE0003FF
FE0003FF
00000000
00000000
00000000
0003F800
0007F000
0007F000
0007E000
0007E000
0007C000
000F8000
000F8000
ENDCHAR
STARTCHAR 0146
ENCODING 326
SWIDTH 640 0
DWIDTH 32 0
BBX 25 39 4 -11
BITMAP
0007C000
FC3FF800
FCFFFC00
FDFFFE00
FFFFFF00
FFFFFF00
FFE1FF80
FF80FF80
FF807F80
FF007F80
FF003F80
FF003F80
FE003F80
FE003F80
FE003F80
FE003F80
FE003F80
FE003F80
FE003F80
FE003F80
FE003F80
FE003F80
FE003F80
FE003F80
FE003F80
FE003F80
FE003F80
FE003F80
00000000
00000000
00000000
003F8000
003F0000
007F0000
007E0000
007E0000
007C0000
00FC0000
00F80000
ENDCHAR
STARTCHAR 0147
ENCODING 327
SWIDTH 800 0
DWIDTH 40 0
BBX 32 47 4 0
BITMAP
03E003E0
03F80FC0
01FC1FC0
00FE3F80
007FFF00
003FFE00
001FFC00
000FF800
00000000
00000000
00000000
FFC0007F
FFE0007F
FFE0007F
FFF0007F
FFF0007F
FFF8007F
FFFC007F
FFFC007F
FFFE007F
FFFE007F
FEFF007F
FEFF807F
FE7F807F
FE3FC07F
FE3FC07F
FE1FE07F
FE1FE07F
FE0FF07F
FE0FF87F
FE07F87F
FE03FC7F
FE03FC7F
FE01FE3F
FE01FE3F
FE00FF3F
FE007FBF
FE007FBF
FE003FFF
FE003FFF
FE001FFF
FE001FFF
FE000FFF
FE0007FF
FE0007FF
FE0003FF
FE0003FF
ENDCHAR
STARTCHAR 0148
ENCODING 328
SWIDTH 640 0
DWIDTH 32 0
BBX 25 38 4 0
BITMAP
3F007E00
1FC1FC00
0FE3F800
07F7F000
03FFE000
01FFE000
01FFC000
00FF8000
00000000
00000000
0007C000
FC3FF800
FCFFFC00
FDFFFE00
FFFFFF00
FFFFFF00
FFE1FF80
FF80FF80
FF807F80
FF007F80
FF003F80
FF003F80
FE003F80
FE003F80
FE003F80
FE003F80
FE003F80
FE003F80
FE003F80
FE003F80
FE003F80
FE003F80
FE003F80
FE003F80
FE003F80
FE003F80
FE003F80
FE003F80
ENDCHAR
STARTCHAR 0149
ENCODING 329
SWIDTH 760 0
DWIDTH 38 0
BBX 35 36 0 0
BITMAP
1FC0000000
3FC0000000
3F80000000
3F80000000
3F80000000
3F00000000
7F00000000
7F00000000
7E0001F000
7E3E1FFE00
7C3F3FFF00
FC3F7FFF80
F83FFFFFC0
003FFFFFC0
003FF87FC0
003FE03FE0
003FC01FE0
003FC01FE0
003F801FE0
003F801FE0
003F801FE0
003F801FE0
003F801FE0
003F801FE0
003F801FE0
003F801FE0
003F801FE0
003F801FE0
003F801FE0
003F801FE0
003F801FE0
003F801FE0
003F801FE0
003F801FE0
003F801FE0
003F801FE0
ENDCHAR
STARTCHAR 014A
ENCODING 330
SWIDTH 800 0
DWIDTH 40 0
BBX 32 47 4 -11
BITMAP
FFC0007F
FFE0007F
FFF0007F
FFF0007F
FFF8007F
FFFC007F
FFFC007F
FFFE007F
FFFF007F
FFFF807F
FEFF807F
FE7FC07F
FE7FE07F
FE3FE07F
FE1FF07F
FE1FF87F
FE0FF87F
FE07FC7F
FE03FE3F
FE03FF3F
FE01FF3F
FE00FFBF
FE00FFFF
FE007FFF
FE003FFF
FE003FFF
FE001FFF
FE000FFF
FE000FFF
FE0007FF
FE0003FF
FE0003FF
FE0001FF
FE0000FF
FE00007F
FE00007F
0000007F
0000007F
0000007F
000000FF
0000EFFE
0000FFFE
0000FFFC
0000FFF8
0000FFF0
0000FFC0
00000800
ENDCHAR
STARTCHAR 014B
ENCODING 331
SWIDTH 640 0
DWIDTH 32 0
BBX 25 40 4 -12
BITMAP
0007C000
FC3FF800
FCFFFC00
FCFFFE00
FFFFFF00
FFFFFF00
FFE1FF80
FF807F80
FF807F80
FF007F80
FF003F80
FF003F80
FE003F80
FE003F80
FE003F80
FE003F80
FE003F80
FE003F80
FE003F80
FE003F80
FE003F80
FE003F80
FE003F80
FE003F80
FE003F80
FE003F80
FE003F80
FE003F80
00003F80
00003F80
00003F80
00003F80
00007F80
0000FF80
000FFF80
000FFF00
000FFF00
000FFE00
000FFC00
000FF000
ENDCHAR
STARTCHAR 014C
ENCODING 332
SWIDTH 780 0
DWIDTH 39 0
BBX 34 44 3 0
BITMAP
007FFF8000
007FFF8000
007FFF8000
007FFF8000
007FFF8000
0000000000
0000000000
0000000000
001FFE0000
00FFFFC000
01FFFFE000
07FFFFF800
0FFFFFFC00
1FFFFFFC00
1FFC0FFE00
3FF003FF00
3FE001FF00
7FC000FF00
7F8000FF80
7F80007F80
FF80007F80
FF00007FC0
FF00003FC0
FF00003FC0
FF00003FC0
FF00003FC0
FF00003FC0
FF00003FC0
FF00003FC0
FF00003FC0
FF00003FC0
FF00007F80
7F80007F80
7F80007F80
7FC000FF80
3FC001FF00
3FE003FF00
1FF807FE00
1FFFFFFE00
0FFFFFFC00
07FFFFF800
03FFFFF000
00FFFFC000
003FFF0000
ENDCHAR
STARTCHAR 014D
ENCODING 333
SWIDTH 600 0
DWIDTH 30 0
BBX 27 35 2 0
BITMAP
07FFFC00
07FFFC00
07FFFC00
07FFFC00
07FFFC00
00000000
00000000
001F0000
01FFF000
07FFF800
0FFFFE00
1FFFFF00
3FFFFF00
3FF1FF80
7FC07F80
7F803FC0
7F803FC0
7F001FC0
FF001FE0
FF001FE0
FF001FE0
FF001FE0
FF001FE0
FF001FE0
FF001FE0
7F001FC0
7F803FC0
7F803FC0
3FC07F80
3FFFFF80
1FFFFF00
0FFFFE00
07FFFC00
03FFF800
00FFE000
ENDCHAR
STARTCHAR 014E
ENCODING 334
SWIDTH 780 0
DWIDTH 39 0
BBX 34 47 3 0
BITMAP
01F003E000
00F003C000
00F807C000
00FFFFC000
007FFF8000
003FFF0000
001FFE0000
000FF80000
0000000000
0000000000
0000000000
001FFE0000
00FFFFC000
01FFFFE000
07FFFFF800
0FFFFFFC00
1FFFFFFC00
1FFC0FFE00
3FF003FF00
3FE001FF00
7FC000FF00
7F8000FF80
7F80007F80
FF80007F80
FF00007FC0
FF00003FC0
FF00003FC0
FF00003FC0
FF00003FC0
FF00003FC0
FF00003FC0
FF00003FC0
FF00003FC0
FF00003FC0
FF00007F80
7F80007F80
7F80007F80
7FC000FF80
3FC001FF00
3FE003FF00
1FF807FE00
1FFFFFFE00
0FFFFFFC00
07FFFFF800
03FFFFF000
00FFFFC000
003FFF0000
ENDCHAR
STARTCHAR 014F
ENCODING 335
SWIDTH 600 0
DWIDTH 30 0
BBX 27 39 2 0
BITMAP
0F001E00
0F001E00
0F803E00
07FFFC00
07FFFC00
03FFF800
01FFF000
00FFE000
001F0000
00000000
00000000
001F0000
01FFF000
07FFF800
0FFFFE00
1FFFFF00
3FFFFF00
3FF1FF80
7FC07F80
7F803FC0
7F803FC0
7F001FC0
FF001FE0
FF001FE0
FF001FE0
FF001FE0
FF001FE0
FF001FE0
FF001FE0
7F001FC0
7F803FC0
7F803FC0
3FC07F80
3FFFFF80
1FFFFF00
0FFFFE00
07FFFC00
03FFF800
00FFE000
ENDCHAR
STARTCHAR 0150
ENCODING 336
SWIDTH 780 0
DWIDTH 39 0
BBX 34 47 3 0
BITMAP
0003FCFF00
0003F8FE00
0007F1FC00
0007E3F800
000FC3F000
001F87E000
001F0FC000
003E0F0000
0000000000
0000000000
0000000000
001FFE0000
00FFFFC000
01FFFFE000
07FFFFF800
0FFFFFFC00
1FFFFFFC00
1FFC0FFE00
3FF003FF00
3FE001FF00
7FC000FF00
7F8000FF80
7F80007F80
FF80007F80
FF00007FC0
FF00003FC0
FF00003FC0
FF00003FC0
FF00003FC0
FF00003FC0
FF00003FC0
FF00003FC0
FF00003FC0
FF00003FC0
FF00007F80
7F80007F80
7F80007F80
7FC000FF80
3FC001FF00
3FE003FF00
1FF807FE00
1FFFFFFE00
0FFFFFFC00
07FFFFF800
03FFFFF000
00FFFFC000
003FFF0000
ENDCHAR
STARTCHAR 0151
ENCODING 337
SWIDTH 600 0
DWIDTH 30 0
BBX 28 38 2 0
BITMAP
001FCFF0
003F8FE0
007F1FC0
007E1F80
00FC3F00
01F87E00
01F0FC00
03E0F000
00000000
00000000
001F0000
01FFF000
07FFF800
0FFFFE00
1FFFFF00
3FFFFF00
3FF1FF80
7FC07F80
7F803FC0
7F803FC0
7F001FC0
FF001FE0
FF001FE0
FF001FE0
FF001FE0
FF001FE0
FF001FE0
FF001FE0
7F001FC0
7F803FC0
7F803FC0
3FC07F80
3FFFFF80
1FFFFF00
0FFFFE00
07FFFC00
03FFF800
00FFE000
ENDCHAR
STARTCHAR 0152
ENCODING 338
SWIDTH 960 0
DWIDTH 48 0
BBX 43 36 3 0
BITMAP
003FFFFFFFE0
00FFFFFFFFE0
03FFFFFFFFE0
07FFFFFFFFE0
0FFFFFFFFFE0
1FFFFFFFFFE0
1FF80FFFFFE0
3FE007F80000
3FC007F80000
7FC007F80000
7F8007F80000
7F8007F80000
FF0007F80000
FF0007F80000
FF0007FFFFC0
FF0007FFFFC0
FF0007FFFFC0
FF0007FFFFC0
FF0007FFFFC0
FF0007FFFFC0
FF0007FFFFC0
FF0007F80000
FF0007F80000
FF0007F80000
7F8007F80000
7F8007F80000
7F8007F80000
3FC007F80000
3FE007F80000
3FF807F80000
1FFFFFFFFFE0
0FFFFFFFFFE0
07FFFFFFFFE0
03FFFFFFFFE0
01FFFFFFFFE0
007FFFFFFFE0
ENDCHAR
STARTCHAR 0153
ENCODING 339
SWIDTH 960 0
DWIDTH 48 0
BBX 45 28 2 0
BITMAP
001F0003F000
01FFE03FFE00
07FFF8FFFF00
0FFFFDFFFF80
1FFFFFFFFFC0
3FFFFFFFFFE0
3FF1FFF80FF0
7FC07FF007F0
7F803FE007F0
7F803FE003F0
7F001FE003F8
FF001FFFFFF8
FF001FFFFFF8
FF001FFFFFF8
FF001FFFFFF8
FF001FFFFFF8
FF001FE00000
FF001FE00000
7F001FE00000
7F803FE00000
7F803FF00000
3FC07FF80060
3FFFFFFE03E0
1FFFFFFFFFE0
0FFFFFFFFFE0
07FFFCFFFFE0
03FFF87FFFE0
00FFE01FFF80
ENDCHAR
STARTCHAR 0154
ENCODING 340
SWIDTH 660 0
DWIDTH 33 0
BBX 29 47 4 0
BITMAP
0003FE00
0007FC00
0007F800
000FE000
001FC000
003F8000
007F0000
007C0000
00000000
00000000
00000000
FFFE0000
FFFFE000
FFFFF800
FFFFFC00
FFFFFE00
FFFFFF00
FFFFFF00
FF00FF80
FF007F80
FF007F80
FF007F80
FF007F80
FF007F80
FF007F80
FF00FF80
FF01FF00
FFFFFE00
FFFFFE00
FFFFFC00
FFFFF000
FFFFE000
FFFFE000
FF0FF000
FF07F800
FF07F800
FF03FC00
FF01FE00
FF01FE00
FF00FF00
FF007F80
FF007F80
FF003FC0
FF003FE0
FF001FE0
FF000FF0
FF000FF8
ENDCHAR
STARTCHAR 0155
ENCODING 341
SWIDTH 440 0
DWIDTH 22 0
BBX 18 38 4 0
BITMAP
007FC0
007F80
00FF00
01FE00
03F800
03F000
07E000
0F8000
000000
000000
0007C0
FC1FC0
FC7FC0
FCFF80
FDFF80
FFFF80
FFFF80
FFF000
FFC000
FF8000
FF0000
FF0000
FF0000
FE0000
FE0000
FE0000
FE0000
FE0000
FE0000
FE0000
FE0000
FE0000
FE0000
FE0000
FE0000
FE0000
FE0000
FE0000
ENDCHAR
STARTCHAR 0156
ENCODING 342
SWIDTH 660 0
DWIDTH 33 0
BBX 29 47 4 -11
BITMAP
FFFE0000
FFFFE000
FFFFF800
FFFFFC00
FFFFFE00
FFFFFF00
FFFFFF00
FF00FF80
FF007F80
FF007F80
FF007F80
FF007F80
FF007F80
FF007F80
FF00FF80
FF01FF00
FFFFFE00
FFFFFE00
FFFFFC00
FFFFF000
FFFFE000
FFFFE000
FF0FF000
FF07F800
FF07F800
FF03FC00
FF01FE00
FF01FE00
FF00FF00
FF007F80
FF007F80
FF003FC0
FF003FE0
FF001FE0
FF000FF0
FF000FF8
00000000
00000000
00000000
001FC000
001FC000
001F8000
001F8000
003F0000
003F0000
003E0000
003C0000
ENDCHAR
STARTCHAR 0157
ENCODING 343
SWIDTH 440 0
DWIDTH 22 0
BBX 18 39 4 -11
BITMAP
0007C0
FC1FC0
FC7FC0
FCFF80
FDFF80
FFFF80
FFFF80
FFF000
FFC000
FF8000
FF0000
FF0000
FF0000
FE0000
FE0000
FE0000
FE0000
FE0000
FE0000
FE0000
FE0000
FE0000
FE0000
FE0000
FE0000
FE0000
FE0000
FE0000
000000
000000
000000
7F0000
7F0000
7E0000
FE0000
FC0000
F80000
F80000
F00000
ENDCHAR
STARTCHAR 0158
ENCODING 344
SWIDTH 660 0
DWIDTH 33 0
BBX 29 47 4 0
BITMAP
3F003F00
1F807E00
0FE1FC00
07F3F800
03FFF000
01FFE000
01FFE000
00FFC000
00000000
00000000
00000000
FFFE0000
FFFFE000
FFFFF800
FFFFFC00
FFFFFE00
FFFFFF00
FFFFFF00
FF00FF80
FF007F80
FF007F80
FF007F80
FF007F80
FF007F80
FF007F80
FF00FF80
FF01FF00
FFFFFE00
FFFFFE00
FFFFFC00
FFFFF000
FFFFE000
FFFFE000
FF0FF000
FF07F800
FF07F800
FF03FC00
FF01FE00
FF01FE00
FF00FF00
FF007F80
FF007F80
FF003FC0
FF003FE0
FF001FE0
FF000FF0
FF000FF8
ENDCHAR
STARTCHAR 0159
ENCODING 345
SWIDTH 440 0
DWIDTH 22 0
BBX 21 38 2 0
BITMAP
FC01F8
7F03F0
3F8FE0
1FDFC0
0FFFC0
07FF80
03FF00
03FE00
000000
000000
0001F0
3F07F0
3F1FF0
3F3FE0
3F7FE0
3FFFE0
3FFFE0
3FFC00
3FF000
3FE000
3FC000
3FC000
3FC000
3F8000
3F8000
3F8000
3F8000
3F8000
3F8000
3F8000
3F8000
3F8000
3F8000
3F8000
3F8000
3F8000
3F8000
3F8000
ENDCHAR
STARTCHAR 015A
ENCODING 346
SWIDTH 540 0
DWIDTH 27 0
BBX 24 47 2 0
BITMAP
0007FC
0007F8
000FF0
001FE0
003FC0
007F00
007E00
00FC00
000000
000000
000000
00FFC0
07FFF8
0FFFFE
1FFFFE
3FFFFC
3FFFFC
7FC0FC
7F8018
7F0000
7F0000
7F0000
7F8000
7FC000
7FE000
3FF800
3FFE00
1FFF80
0FFFE0
07FFF0
01FFF8
007FFC
001FFE
0007FE
0003FE
0001FE
0000FF
0000FF
8000FE
E000FE
FC03FE
FFFFFE
FFFFFC
FFFFF8
FFFFF0
7FFFE0
1FFF80
ENDCHAR
STARTCHAR 015B
ENCODING 347
SWIDTH 480 0
DWIDTH 24 0
BBX 21 38 2 0
BITMAP
001FF0
003FE0
003FC0
007F00
00FE00
01FC00
03F800
03E000
000000
000000
00FE00
0FFFE0
1FFFF8
3FFFF0
7FFFF0
7FFFE0
FF01E0
FF0020
FF0000
FF8000
7FE000
7FFC00
3FFF00
3FFFC0
0FFFE0
03FFF0
00FFF0
003FF8
000FF8
0007F8
0003F8
C007F8
FC0FF8
FFFFF0
FFFFF0
FFFFE0
FFFFC0
3FFF00
ENDCHAR
STARTCHAR 015C
ENCODING 348
SWIDTH 540 0
DWIDTH 27 0
BBX 24 47 2 0
BITMAP
00FF80
01FF80
03FFC0
07FFE0
07F7F0
0FE3F8
1F81FC
3F007E
000000
000000
000000
00FFC0
07FFF8
0FFFFE
1FFFFE
3FFFFC
3FFFFC
7FC0FC
7F8018
7F0000
7F0000
7F0000
7F8000
7FC000
7FE000
3FF800
3FFE00
1FFF80
0FFFE0
07FFF0
01FFF8
007FFC
001FFE
0007FE
0003FE
0001FE
0000FF
0000FF
8000FE
E000FE
FC03FE
FFFFFE
FFFFFC
FFFFF8
FFFFF0
7FFFE0
1FFF80
ENDCHAR
STARTCHAR 015D
ENCODING 349
SWIDTH 480 0
DWIDTH 24 0
BBX 21 38 2 0
BITMAP
03FE00
07FF00
0FFF80
1FDFC0
3F8FE0
7F07F0
FE03F8
F800F8
000000
000000
00FE00
0FFFE0
1FFFF8
3FFFF0
7FFFF0
7FFFE0
FF01E0
FF0020
FF0000
FF8000
7FE000
7FFC00
3FFF00
3FFFC0
0FFFE0
03FFF0
00FFF0
003FF8
000FF8
0007F8
0003F8
C007F8
FC0FF8
FFFFF0
FFFFF0
FFFFE0
FFFFC0
3FFF00
ENDCHAR
STARTCHAR 015E
ENCODING 350
SWIDTH 540 0
DWIDTH 27 0
BBX 24 48 2 -12
BITMAP
00FFC0
07FFF8
0FFFFE
1FFFFE
3FFFFC
3FFFFC
7FC0FC
7F8018
7F0000
7F0000
7F0000
7F8000
7FC000
7FE000
3FF800
3FFE00
1FFF80
0FFFE0
07FFF0
01FFF8
007FFC
001FFE
0007FE
0003FE
0001FE
0000FF
0000FF
8000FE
E000FE
FC03FE
FFFFFE
FFFFFC
FFFFF8
FFFFF0
7FFFE0
1FFF80
007C00
00F800
00FE00
01FF00
003F80
001F80
001F80
021F80
03FF80
03FF00
03FF00
03FC00
ENDCHAR
STARTCHAR 015F
ENCODING 351
SWIDTH 480 0
DWIDTH 24 0
BBX 21 40 2 -12
BITMAP
00FE00
0FFFE0
1FFFF8
3FFFF0
7FFFF0
7FFFE0
FF01E0
FF0020
FF0000
FF8000
7FE000
7FFC00
3FFF00
3FFFC0
0FFFE0
03FFF0
00FFF0
003FF8
000FF8
0007F8
0003F8
C007F8
FC0FF8
FFFFF0
FFFFF0
FFFFE0
FFFFC0
3FFF00
00F800
01F000
01FC00
03FE00
007F00
003F00
003F00
043F00
07FF00
07FE00
07FE00
07F800
ENDCHAR
STARTCHAR 0160
ENCODING 352
SWIDTH 540 0
DWIDTH 27 0
BBX 24 47 2 0
BITMAP
3E003E
3F00FC
1FC1F8
0FE7F0
07FFF0
03FFE0
01FFC0
01FF80
000000
000000
000000
00FFC0
07FFF8
0FFFFE
1FFFFE
3FFFFC
3FFFFC
7FC0FC
7F8018
7F0000
7F0000
7F0000
7F8000
7FC000
7FE000
3FF800
3FFE00
1FFF80
0FFFE0
07FFF0
01FFF8
007FFC
001FFE
0007FE
0003FE
0001FE
0000FF
0000FF
8000FE
E000FE
FC03FE
FFFFFE
FFFFFC
FFFFF8
FFFFF0
7FFFE0
1FFF80
ENDCHAR
STARTCHAR 0161
ENCODING 353
SWIDTH 480 0
DWIDTH 24 0
BBX 21 38 2 0
BITMAP
FC01F8
7F07F0
3F8FE0
1FDFC0
0FFF80
07FF80
07FF00
03FE00
000000
000000
00FE00
0FFFE0
1FFFF8
3FFFF0
7FFFF0
7FFFE0
FF01E0
FF0020
FF0000
FF8000
7FE000
7FFC00
3FFF00
3FFFC0
0FFFE0
03FFF0
00FFF0
003FF8
000FF8
0007F8
0003F8
C007F8
FC0FF8
FFFFF0
FFFFF0
FFFFE0
FFFFC0
3FFF00
ENDCHAR
STARTCHAR 0162
ENCODING 354
SWIDTH 560 0
DWIDTH 28 0
BBX 27 48 1 -12
BITMAP
FFFFFFE0
FFFFFFE0
FFFFFFE0
FFFFFFE0
FFFFFFE0
FFFFFFE0
FFFFFFE0
003F8000
003F8000
003F8000
003F8000
003F8000
003F8000
003F8000
003F8000
003F8000
003F8000
003F8000
003F8000
003F8000
003F8000
003F8000
003F8000
003F8000
003F8000
003F8000
003F8000
003F8000
003F8000
003F8000
003F8000
003F8000
003F8000
003F8000
003F8000
003F8000
001F0000
001E0000
003F8000
003FC000
000FE000
0007E000
0007E000
0087E000
00FFE000
00FFC000
00FFC000
00FF0000
ENDCHAR
STARTCHAR 0163
ENCODING 355
SWIDTH 420 0
DWIDTH 21 0
BBX 19 45 1 -12
BITMAP
03E000
03E000
07E000
07E000
07E000
0FE000
1FFFE0
7FFFE0
FFFFE0
FFFFE0
FFFFE0
0FE000
0FE000
0FE000
0FE000
0FE000
0FE000
0FE000
0FE000
0FE000
0FE000
0FE000
0FE000
0FE000
0FE000
0FE000
0FF000
0FFDE0
0FFFE0
07FFE0
07FFE0
03FFE0
01FFE0
007800
00F800
00FE00
01FF00
003F80
001F80
001F80
001F80
03FF00
03FF00
03FE00
03F800
ENDCHAR
STARTCHAR 0164
ENCODING 356
SWIDTH 560 0
DWIDTH 28 0
BBX 27 47 1 0
BITMAP
1F001F00
0FC07F00
0FE0FE00
07F1FC00
03FBF800
01FFF000
00FFE000
007FC000
00000000
00000000
00000000
FFFFFFE0
FFFFFFE0
FFFFFFE0
FFFFFFE0
FFFFFFE0
FFFFFFE0
FFFFFFE0
003F8000
003F8000
003F8000
003F8000
003F8000
003F8000
003F8000
003F8000
003F8000
003F8000
003F8000
003F8000
003F8000
003F8000
003F8000
003F8000
003F8000
003F8000
003F8000
003F8000
003F8000
003F8000
003F8000
003F8000
003F8000
003F8000
003F8000
003F8000
003F8000
ENDCHAR
STARTCHAR 0165
ENCODING 357
SWIDTH 420 0
DWIDTH 21 0
BBX 27 38 1 0
BITMAP
000007E0
00000FE0
00000FE0
00000FC0
00000F80
03E00F80
03E01F00
07E01F00
07E00000
07E00000
0FE00000
1FFFE000
7FFFE000
FFFFE000
FFFFE000
FFFFE000
0FE00000
0FE00000
0FE00000
0FE00000
0FE00000
0FE00000
0FE00000
0FE00000
0FE00000
0FE00000
0FE00000
0FE00000
0FE00000
0FE00000
0FE00000
0FF00000
0FFDE000
0FFFE000
07FFE000
07FFE000
03FFE000
01FFE000
ENDCHAR
STARTCHAR 0166
ENCODING 358
SWIDTH 560 0
DWIDTH 28 0
BBX 27 36 1 0
BITMAP
FFFFFFE0
FFFFFFE0
FFFFFFE0
FFFFFFE0
FFFFFFE0
FFFFFFE0
FFFFFFE0
003F8000
003F8000
003F8000
003F8000
003F8000
003F8000
003F8000
003F8000
0FFFFE00
0FFFFE00
0FFFFE00
0FFFFE00
0FFFFE00
0FFFFE00
003F8000
003F8000
003F8000
003F8000
003F8000
003F8000
003F8000
003F8000
003F8000
003F8000
003F8000
003F8000
003F8000
003F8000
003F8000
ENDCHAR
STARTCHAR 0167
ENCODING 359
SWIDTH 420 0
DWIDTH 21 0
BBX 19 33 1 0
BITMAP
03E000
03E000
07E000
07E000
07E000
0FE000
1FFFE0
7FFFE0
FFFFE0
FFFFE0
FFFFE0
0FE000
0FE000
0FE000
0FE000
0FE000
7FFFC0
7FFFC0
7FFFC0
7FFFC0
7FFFC0
0FE000
0FE000
0FE000
0FE000
0FE000
0FF000
0FFDE0
0FFFE0
07FFE0
07FFE0
03FFE0
01FFE0
ENDCHAR
STARTCHAR 0168
ENCODING 360
SWIDTH 740 0
DWIDTH 37 0
BBX 30 46 4 0
BITMAP
00FC0780
01FF0F80
03FFFF00
03FFFF00
07FFFF00
0787FE00
0781F800
00000000
00000000
00000000
FF0003FC
FF0003FC
FF0003FC
FF0003FC
FF0003FC
FF0003FC
FF0003FC
FF0003FC
FF0003FC
FF0003FC
FF0003FC
FF0003FC
FF0003FC
FF0003FC
FF0003FC
FF0003FC
FF0003FC
FF0003FC
FF0003FC
FF0003FC
FF0003FC
FF0003FC
FF0003FC
FF0003FC
FF0003FC
FF0003F8
7F0007F8
7F8007F8
7FC00FF8
7FE01FF0
3FFFFFF0
1FFFFFE0
0FFFFFC0
07FFFF80
03FFFF00
00FFF800
ENDCHAR
STARTCHAR 0169
ENCODING 361
SWIDTH 640 0
DWIDTH 32 0
BBX 25 38 4 0
BITMAP
01C01C00
07F83C00
0FFE7C00
1FFFFC00
1FFFF800
1E3FF800
3C0FF000
3C018000
00000000
00000000
00000000
FE003F80
FE003F80
FE003F80
FE003F80
FE003F80
FE003F80
FE003F80
FE003F80
FE003F80
FE003F80
FE003F80
FE003F80
FE003F80
FE007F80
FE007F80
FE007F80
FE007F80
FE007F80
FF007F80
FF00FF80
FF81FF80
FFEFFF80
7FFFFF80
7FFFFF80
3FFF9F80
1FFF1F80
0FFC1F80
ENDCHAR
STARTCHAR 016A
ENCODING 362
SWIDTH 740 0
DWIDTH 37 0
BBX 30 44 4 0
BITMAP
01FFFE00
01FFFE00
01FFFE00
01FFFE00
01FFFE00
00000000
00000000
00000000
FF0003FC
FF0003FC
FF0003FC
FF0003FC
FF0003FC
FF0003FC
FF0003FC
FF0003FC
FF0003FC
FF0003FC
FF0003FC
FF0003FC
FF0003FC
FF0003FC
FF0003FC
FF0003FC
FF0003FC
FF0003FC
FF0003FC
FF0003FC
FF0003FC
FF0003FC
FF0003FC
FF0003FC
FF0003FC
FF0003F8
7F0007F8
7F8007F8
7FC00FF8
7FE01FF0
3FFFFFF0
1FFFFFE0
0FFFFFC0
07FFFF80
03FFFF00
00FFF800
ENDCHAR
STARTCHAR 016B
ENCODING 363
SWIDTH 640 0
DWIDTH 32 0
BBX 25 35 4 0
BITMAP
0FFFF800
0FFFF800
0FFFF800
0FFFF800
0FFFF800
00000000
00000000
00000000
FE003F80
FE003F80
FE003F80
FE003F80
FE003F80
FE003F80
FE003F80
FE003F80
FE003F80
FE003F80
FE003F80
FE003F80
FE003F80
FE007F80
FE007F80
FE007F80
FE007F80
FE007F80
FF007F80
FF00FF80
FF81FF80
FFEFFF80
7FFFFF80
7FFFFF80
3FFF9F80
1FFF1F80
0FFC1F80
ENDCHAR
STARTCHAR 016C
ENCODING 364
SWIDTH 740 0
DWIDTH 37 0
BBX 30 47 4 0
BITMAP
07C00F80
03C00F00
03E01F00
03FFFF00
01FFFE00
00FFFC00
007FF800
003FE000
00000000
00000000
00000000
FF0003FC
FF0003FC
FF0003FC
FF0003FC
FF0003FC
FF0003FC
FF0003FC
FF0003FC
FF0003FC
FF0003FC
FF0003FC
FF0003FC
FF0003FC
FF0003FC
FF0003FC
FF0003FC
FF0003FC
FF0003FC
FF0003FC
FF0003FC
FF0003FC
FF0003FC
FF0003FC
FF0003FC
FF0003FC
FF0003F8
7F0007F8
7F8007F8
7FC00FF8
7FE01FF0
3FFFFFF0
1FFFFFE0
0FFFFFC0
07FFFF80
03FFFF00
00FFF800
ENDCHAR
STARTCHAR 016D
ENCODING 365
SWIDTH 640 0
DWIDTH 32 0
BBX 25 39 4 0
BITMAP
1E003C00
1E003C00
1F007C00
0FFFF800
0FFFF800
07FFF000
03FFE000
01FFC000
003E0000
00000000
00000000
00000000
FE003F80
FE003F80
FE003F80
FE003F80
FE003F80
FE003F80
FE003F80
FE003F80
FE003F80
FE003F80
FE003F80
FE003F80
FE003F80
FE007F80
FE007F80
FE007F80
FE007F80
FE007F80
FF007F80
FF00FF80
FF81FF80
FFEFFF80
7FFFFF80
7FFFFF80
3FFF9F80
1FFF1F80
0FFC1F80
ENDCHAR
STARTCHAR 016E
ENCODING 366
SWIDTH 740 0
DWIDTH 37 0
BBX 30 50 4 0
BITMAP
000FC000
003FF000
003FF000
007CF800
00787800
00787800
00787800
007CF800
003FF000
003FF000
001FC000
00000000
00000000
00000000
FF0003FC
FF0003FC
FF0003FC
FF0003FC
FF0003FC
FF0003FC
FF0003FC
FF0003FC
FF0003FC
FF0003FC
FF0003FC
FF0003FC
FF0003FC
FF0003FC
FF0003FC
FF0003FC
FF0003FC
FF0003FC
FF0003FC
FF0003FC
FF0003FC
FF0003FC
FF0003FC
FF0003FC
FF0003FC
FF0003F8
7F0007F8
7F8007F8
7FC00FF8
7FE01FF0
3FFFFFF0
1FFFFFE0
0FFFFFC0
07FFFF80
03FFFF00
00FFF800
ENDCHAR
STARTCHAR 016F
ENCODING 367
SWIDTH 640 0
DWIDTH 32 0
BBX 25 42 4 0
BITMAP
003E0000
00FF8000
01FFC000
01FFC000
01E3E000
03C1E000
03C1E000
01E3E000
01FFC000
01FFC000
00FF8000
001E0000
00000000
00000000
00000000
FE003F80
FE003F80
FE003F80
FE003F80
FE003F80
FE003F80
FE003F80
FE003F80
FE003F80
FE003F80
FE003F80
FE003F80
FE003F80
FE007F80
FE007F80
FE007F80
FE007F80
FE007F80
FF007F80
FF00FF80
FF81FF80
FFEFFF80
7FFFFF80
7FFFFF80
3FFF9F80
1FFF1F80
0FFC1F80
ENDCHAR
STARTCHAR 0170
ENCODING 368
SWIDTH 740 0
DWIDTH 37 0
BBX 30 47 4 0
BITMAP
000FF3FC
000FE3F8
001FC7F0
001F8FE0
003F0FC0
007E1F80
007C3F00
00F83C00
00000000
00000000
00000000
FF0003FC
FF0003FC
FF0003FC
FF0003FC
FF0003FC
FF0003FC
FF0003FC
FF0003FC
FF0003FC
FF0003FC
FF0003FC
FF0003FC
FF0003FC
FF0003FC
FF0003FC
FF0003FC
FF0003FC
FF0003FC
FF0003FC
FF0003FC
FF0003FC
FF0003FC
FF0003FC
FF0003FC
FF0003FC
FF0003F8
7F0007F8
7F8007F8
7FC00FF8
7FE01FF0
3FFFFFF0
1FFFFFE0
0FFFFFC0
07FFFF80
03FFFF00
00FFF800
ENDCHAR
STARTCHAR 0171
ENCODING 369
SWIDTH 640 0
DWIDTH 32 0
BBX 27 38 4 0
BITMAP
003F9FE0
007F1FC0
00FE3F80
00FC7F00
01F87E00
03F0FC00
03E1F800
07C1E000
00000000
00000000
00000000
FE003F80
FE003F80
FE003F80
FE003F80
FE003F80
FE003F80
FE003F80
FE003F80
FE003F80
FE003F80
FE003F80
FE003F80
FE003F80
FE007F80
FE007F80
FE007F80
FE007F80
FE007F80
FF007F80
FF00FF80
FF81FF80
FFEFFF80
7FFFFF80
7FFFFF80
3FFF9F80
1FFF1F80
0FFC1F80
ENDCHAR
STARTCHAR 0172
ENCODING 370
SWIDTH 740 0
DWIDTH 37 0
BBX 30 48 4 -12
BITMAP
FF0003FC
FF0003FC
FF0003FC
FF0003FC
FF0003FC
FF0003FC
FF0003FC
FF0003FC
FF0003FC
FF0003FC
FF0003FC
FF0003FC
FF0003FC
FF0003FC
FF0003FC
FF0003FC
FF0003FC
FF0003FC
FF0003FC
FF0003FC
FF0003FC
FF0003FC
FF0003FC
FF0003FC
FF0003FC
FF0003F8
7F0007F8
7F8007F8
7FC00FF8
7FE01FF0
3FFFFFF0
1FFFFFE0
0FFFFFC0
07FFFF80
03FFFF00
00FFFE00
00007C00
00007800
0000F800
0000F000
0001F000
0001F000
0001F800
0001FD80
0001FF80
0000FF80
00007F80
00003F80
ENDCHAR
STARTCHAR 0173
ENCODING 371
SWIDTH 640 0
DWIDTH 32 0
BBX 25 39 4 -12
BITMAP
FE003F80
FE003F80
FE003F80
FE003F80
FE003F80
FE003F80
FE003F80
FE003F80
FE003F80
FE003F80
FE003F80
FE003F80
FE003F80
FE007F80
FE007F80
FE007F80
FE007F80
FE007F80
FF007F80
FF00FF80
FF81FF80
FFEFFF80
7FFFFF80
7FFFFF80
3FFF9F80
1FFF1F80
0FFC1F80
00003E00
00007C00
0000F800
0001F000
0001F000
0001F000
0001F000
0001FF80
0001FF80
0001FF80
0000FF80
00003F00
ENDCHAR
STARTCHAR 0174
ENCODING 372
SWIDTH 960 0
DWIDTH 48 0
BBX 48 47 0 0
BITMAP
00000FF80000
00001FF80000
00003FFC0000
00007FFE0000
00007F7F0000
0000FE3F8000
0001F81FC000
0003F007E000
000000000000
000000000000
000000000000
FF0007F0007F
FF000FF0007F
7F000FF000FF
7F000FF800FF
7F001FF800FE
7F801FF800FE
3F801FF801FE
3F801FFC01FE
3F803FFC01FC
3FC03FFC01FC
1FC03FFC01FC
1FC03F7E03FC
1FC07F7E03F8
1FE07E7E03F8
0FE07E7E03F8
0FE07E7F07F0
0FE0FE3F07F0
0FE0FC3F07F0
07F0FC3F07F0
07F0FC3F8FE0
07F1FC1F8FE0
07F1F81F8FE0
03F9F81F8FE0
03F9F81FCFC0
03FBF80FDFC0
03FBF00FDFC0
01FBF00FDFC0
01FFF00FDF80
01FFF007FF80
01FFE007FF80
00FFE007FF80
00FFE007FF00
00FFE003FF00
00FFC003FF00
007FC003FF00
007FC001FE00
ENDCHAR
STARTCHAR 0175
ENCODING 373
SWIDTH 840 0
DWIDTH 42 0
BBX 41 38 1 0
BITMAP
0000FF800000
0001FFC00000
0003FFE00000
0007FFF00000
000FE3F80000
001FC1FC0000
003F80FE0000
003E003E0000
000000000000
000000000000
000000000000
FE00FF803F80
FE00FF803F80
FF00FF807F80
7F01FF807F00
7F01FFC07F00
7F01FFC0FF00
7F81F7C0FE00
3F83F7C0FE00
3F83F7E0FE00
3F83E7E1FE00
1FC3E3E1FC00
1FC7E3E1FC00
1FC7E3F1FC00
1FC7C3F3F800
0FE7C1F3F800
0FEFC1F3F800
0FEFC1F3F000
07EF81FBF000
07EF81FFF000
07EF80FFF000
07FF80FFE000
03FF80FFE000
03FF00FFE000
03FF007FC000
01FF007FC000
01FF007FC000
01FE007FC000
ENDCHAR
STARTCHAR 0176
ENCODING 374
SWIDTH 620 0
DWIDTH 31 0
BBX 31 47 0 0
BITMAP
001FF000
003FF800
003FFC00
007FFC00
00FEFE00
01FC7F00
03F81F80
07E00FC0
00000000
00000000
00000000
FF0001FE
7F8003FE
7F8003FC
3FC007F8
3FC007F8
1FE00FF0
1FE00FF0
0FF01FE0
0FF01FE0
07F83FC0
07F83FC0
03FC7F80
01FC7F80
01FEFF00
00FEFF00
00FFFE00
007FFC00
007FFC00
003FF800
003FF800
001FF000
001FF000
000FE000
000FE000
000FE000
000FE000
000FE000
000FE000
000FE000
000FE000
000FE000
000FE000
000FE000
000FE000
000FE000
000FE000
ENDCHAR
STARTCHAR 0177
ENCODING 375
SWIDTH 560 0
DWIDTH 28 0
BBX 28 50 0 -12
BITMAP
007FE000
007FF000
00FFF800
01FFFC00
03F9FE00
07F07E00
0FC03F00
0F800F80
00000000
00000000
00000000
FF000FF0
7F800FF0
7F800FE0
3F801FE0
3FC01FE0
3FC01FC0
1FC03FC0
1FE03FC0
0FE03F80
0FE07F80
0FF07F00
07F07F00
07F0FF00
03F8FE00
03F8FE00
03F9FE00
01FDFC00
01FDFC00
00FDF800
00FFF800
00FFF800
007FF000
007FF000
003FF000
003FE000
003FE000
001FC000
001FC000
003FC000
003F8000
007F8000
00FF8000
01FF0000
3FFE0000
3FFE0000
3FFC0000
3FF80000
3FE00000
3F800000
ENDCHAR
STARTCHAR 0178
ENCODING 376
SWIDTH 620 0
DWIDTH 31 0
BBX 31 46 0 0
BITMAP
00783C00
00FC7F00
01FC7F00
01FC7F00
01FC7F00
00F83E00
00200800
00000000
00000000
00000000
FF0001FE
7F8003FE
7F8003FC
3FC007F8
3FC007F8
1FE00FF0
1FE00FF0
0FF01FE0
0FF01FE0
07F83FC0
07F83FC0
03FC7F80
01FC7F80
01FEFF00
00FEFF00
00FFFE00
007FFC00
007FFC00
003FF800
003FF800
001FF000
001FF000
000FE000
000FE000
000FE000
000FE000
000FE000
000FE000
000FE000
000FE000
000FE000
000FE000
000FE000
000FE000
000FE000
000FE000
ENDCHAR
STARTCHAR 0179
ENCODING 377
SWIDTH 560 0
DWIDTH 28 0
BBX 27 47 1 0
BITMAP
0001FE00
0003FE00
0007F800
0007F000
000FE000
001FC000
003F8000
007E0000
00000000
00000000
00000000
7FFFFFC0
7FFFFFC0
7FFFFFC0
7FFFFFC0
7FFFFFC0
7FFFFFC0
7FFFFF80
00007F80
0000FF00
0001FE00
0001FE00
0003FC00
0007F800
000FF800
000FF000
001FE000
003FC000
003FC000
007F8000
00FF0000
00FF0000
01FE0000
03FC0000
07FC0000
07F80000
0FF00000
1FE00000
1FE00000
3FC00000
7F800000
7FFFFFE0
FFFFFFE0
FFFFFFE0
FFFFFFE0
FFFFFFE0
FFFFFFE0
ENDCHAR
STARTCHAR 017A
ENCODING 378
SWIDTH 480 0
DWIDTH 24 0
BBX 22 38 1 0
BITMAP
000FF0
001FE0
003FC0
003F80
007F00
00FE00
01F800
01F000
000000
000000
000000
7FFFF8
7FFFF8
7FFFF8
7FFFF8
7FFFF8
0007F8
000FF0
001FE0
001FE0
003FC0
007F80
00FF00
00FF00
01FE00
03FC00
03F800
07F800
0FF000
1FE000
1FE000
3FC000
7FFFFC
FFFFFC
FFFFFC
FFFFFC
FFFFFC
FFFFFC
ENDCHAR
STARTCHAR 017B
ENCODING 379
SWIDTH 560 0
DWIDTH 28 0
BBX 27 46 1 0
BITMAP
001F8000
003FC000
003FC000
003FC000
003FC000
003F8000
000F0000
00000000
00000000
00000000
7FFFFFC0
7FFFFFC0
7FFFFFC0
7FFFFFC0
7FFFFFC0
7FFFFFC0
7FFFFF80
00007F80
0000FF00
0001FE00
0001FE00
0003FC00
0007F800
000FF800
000FF000
001FE000
003FC000
003FC000
007F8000
00FF0000
00FF0000
01FE0000
03FC0000
07FC0000
07F80000
0FF00000
1FE00000
1FE00000
3FC00000
7F800000
7FFFFFE0
FFFFFFE0
FFFFFFE0
FFFFFFE0
FFFFFFE0
FFFFFFE0
ENDCHAR
STARTCHAR 017C
ENCODING 380
SWIDTH 480 0
DWIDTH 24 0
BBX 22 38 1 0
BITMAP
007C00
00FE00
01FE00
01FE00
01FE00
00FE00
00FC00
000000
000000
000000
000000
7FFFF8
7FFFF8
7FFFF8
7FFFF8
7FFFF8
0007F8
000FF0
001FE0
001FE0
003FC0
007F80
00FF00
00FF00
01FE00
03FC00
03F800
07F800
0FF000
1FE000
1FE000
3FC000
7FFFFC
FFFFFC
FFFFFC
FFFFFC
FFFFFC
FFFFFC
ENDCHAR
STARTCHAR 017D
ENCODING 381
SWIDTH 560 0
DWIDTH 28 0
BBX 27 47 1 0
BITMAP
1F801F00
0FC03F00
07E0FE00
03F9FC00
01FFF800
01FFF000
00FFE000
007FE000
00000000
00000000
00000000
7FFFFFC0
7FFFFFC0
7FFFFFC0
7FFFFFC0
7FFFFFC0
7FFFFFC0
7FFFFF80
00007F80
0000FF00
0001FE00
0001FE00
0003FC00
0007F800
000FF800
000FF000
001FE000
003FC000
003FC000
007F8000
00FF0000
00FF0000
01FE0000
03FC0000
07FC0000
07F80000
0FF00000
1FE00000
1FE00000
3FC00000
7F800000
7FFFFFE0
FFFFFFE0
FFFFFFE0
FFFFFFE0
FFFFFFE0
FFFFFFE0
ENDCHAR
STARTCHAR 017E
ENCODING 382
SWIDTH 480 0
DWIDTH 24 0
BBX 22 38 1 0
BITMAP
7E00FC
3F03F8
1FC7F0
0FEFE0
07FFC0
07FF80
03FF00
01FF00
000000
000000
000000
7FFFF8
7FFFF8
7FFFF8
7FFFF8
7FFFF8
0007F8
000FF0
001FE0
001FE0
003FC0
007F80
00FF00
00FF00
01FE00
03FC00
03F800
07F800
0FF000
1FE000
1FE000
3FC000
7FFFFC
FFFFFC
FFFFFC
FFFFFC
FFFFFC
FFFFFC
ENDCHAR
STARTCHAR 017F
ENCODING 383
SWIDTH 380 0
DWIDTH 19 0
BBX 16 38 4 0
BITMAP
07FE
1FFF
3FFF
7FFE
FFFE
FFFE
FF00
FF00
FE00
FE00
FE00
FE00
FE00
FE00
FE00
FE00
FE00
FE00
FE00
FE00
FE00
FE00
FE00
FE00
FE00
FE00
FE00
FE00
FE00
FE00
FE00
FE00
FE00
FE00
FE00
FE00
FE00
FE00
ENDCHAR
STARTCHAR 0192
ENCODING 402
SWIDTH 560 0
DWIDTH 28 0
BBX 21 48 5 -12
BITMAP
003FF0
00FFF8
01FFF8
01FFF0
03FFF0
03FFF0
03FC00
03F800
03F800
03F800
03F800
0FFFE0
3FFFE0
3FFFE0
3FFFE0
3FFFE0
03F800
03F800
03F800
03F800
03F800
03F800
03F800
03F800
03F800
03F800
03F800
03F800
03F800
03F800
03F800
03F800
03F800
03F800
03F800
03F800
03F800
03F800
03F800
03F800
07F800
0FF800
FFF800
FFF000
FFF000
FFE000
FFC000
FF0000
ENDCHAR
STARTCHAR 01A0
ENCODING 416
SWIDTH 820 0
DWIDTH 41 0
BBX 40 38 3 0
BITMAP
00000000FF
00000000FF
001FFE00FE
00FFFFC0FE
01FFFFE1FE
07FFFFF9FC
0FFFFFFFFC
1FFFFFFFF8
1FFC0FFFF0
3FF003FFE0
3FE001FFC0
7FC000FF80
7F8000FF80
7F80007F80
FF80007F80
FF00007FC0
FF00003FC0
FF00003FC0
FF00003FC0
FF00003FC0
FF00003FC0
FF00003FC0
FF00003FC0
FF00003FC0
FF00003FC0
FF00007F80
7F80007F80
7F80007F80
7FC000FF80
3FC001FF00
3FE003FF00
1FF807FE00
1FFFFFFE00
0FFFFFFC00
07FFFFF800
03FFFFF000
00FFFFC000
003FFF0000
ENDCHAR
STARTCHAR 01A1
ENCODING 417
SWIDTH 660 0
DWIDTH 33 0
BBX 34 31 2 0
BITMAP
0000003FC0
0000003FC0
0000003FC0
003F803F80
01FFF07F80
07FFFC7F00
0FFFFFFF00
1FFFFFFE00
3FFFFFFC00
3FF1FFF000
7FC07F8000
7F803FC000
7F803FC000
7F001FC000
FF001FE000
FF001FE000
FF001FE000
FF001FE000
FF001FE000
FF001FE000
FF001FC000
7F001FC000
7F803FC000
7F803FC000
3FC07F8000
3FFFFF8000
1FFFFF0000
0FFFFE0000
07FFFC0000
03FFF80000
00FFE00000
ENDCHAR
STARTCHAR 01AF
ENCODING 431
SWIDTH 880 0
DWIDTH 44 0
BBX 41 38 4 0
BITMAP
000000007F80
000000007F80
FF0003FC7F00
FF0003FC7F00
FF0003FCFF00
FF0003FCFE00
FF0003FFFE00
FF0003FFFC00
FF0003FFF800
FF0003FFE000
FF0003FF8000
FF0003FC0000
FF0003FC0000
FF0003FC0000
FF0003FC0000
FF0003FC0000
FF0003FC0000
FF0003FC0000
FF0003FC0000
FF0003FC0000
FF0003FC0000
FF0003FC0000
FF0003FC0000
FF0003FC0000
FF0003FC0000
FF0003FC0000
FF0003FC0000
FF0003F80000
7F0007F80000
7F8007F80000
7FC00FF80000
7FE01FF00000
3FFFFFF00000
1FFFFFE00000
0FFFFFC00000
07FFFF800000
03FFFF000000
00FFF8000000
ENDCHAR
STARTCHAR 01B0
ENCODING 432
SWIDTH 740 0
DWIDTH 37 0
BBX 36 31 4 0
BITMAP
00000007F0
0000000FF0
0000000FF0
0000000FE0
FE003F9FE0
FE003F9FE0
FE003FFFC0
FE003FFF80
FE003FFF00
FE003FFC00
FE003FF000
FE003F8000
FE003F8000
FE003F8000
FE003F8000
FE003F8000
FE003F8000
FE007F8000
FE007F8000
FE007F8000
FE007F8000
FE007F8000
FF007F8000
FF00FF8000
FF81FF8000
FFEFFF8000
7FFFFF8000
7FFFFF8000
3FFF9F8000
1FFF1F8000
0FFC1F8000
ENDCHAR
STARTCHAR 01EA
ENCODING 490
SWIDTH 780 0
DWIDTH 39 0
BBX 34 48 3 -12
BITMAP
001FFE0000
00FFFFC000
01FFFFE000
07FFFFF800
0FFFFFFC00
1FFFFFFC00
1FFC0FFE00
3FF003FF00
3FE001FF00
7FC000FF00
7F8000FF80
7F80007F80
FF80007F80
FF00007FC0
FF00003FC0
FF00003FC0
FF00003FC0
FF00003FC0
FF00003FC0
FF00003FC0
FF00003FC0
FF00003FC0
FF00003FC0
FF00007F80
7F80007F80
7F80007F80
7FC000FF80
3FC001FF00
3FE003FF00
1FF807FE00
1FFFFFFE00
0FFFFFFC00
07FFFFF800
03FFFFF000
00FFFFC000
003FFF0000
0000F00000
0003E00000
0003E00000
0007C00000
000F800000
000F800000
000F800000
000FEC0000
000FFC0000
0007FC0000
0003FC0000
0001FC0000
ENDCHAR
STARTCHAR 01EB
ENCODING 491
SWIDTH 600 0
DWIDTH 30 0
BBX 27 40 2 -12
BITMAP
001F0000
01FFF000
07FFF800
0FFFFE00
1FFFFF00
3FFFFF00
3FF1FF80
7FC07F80
7F803FC0
7F803FC0
7F001FC0
FF001FE0
FF001FE0
FF001FE0
FF001FE0
FF001FE0
FF001FE0
FF001FE0
7F001FC0
7F803FC0
7F803FC0
3FC07F80
3FFFFF80
1FFFFF00
0FFFFE00
07FFFC00
03FFF800
00FFE000
000F0000
003E0000
003E0000
007C0000
00F80000
00F80000
00F80000
00FEC000
007FC000
007FC000
003FC000
001FC000
ENDCHAR
STARTCHAR 01EC
ENCODING 492
SWIDTH 780 0
DWIDTH 39 0
BBX 34 56 3 -12
BITMAP
007FFF8000
007FFF8000
007FFF8000
007FFF8000
007FFF8000
0000000000
0000000000
0000000000
001FFE0000
00FFFFC000
01FFFFE000
07FFFFF800
0FFFFFFC00
1FFFFFFC00
1FFC0FFE00
3FF003FF00
3FE001FF00
7FC000FF00
7F8000FF80
7F80007F80
FF80007F80
FF00007FC0
FF00003FC0
FF00003FC0
FF00003FC0
FF00003FC0
FF00003FC0
FF00003FC0
FF00003FC0
FF00003FC0
FF00003FC0
FF00007F80
7F80007F80
7F80007F80
7FC000FF80
3FC001FF00
3FE003FF00
1FF807FE00
1FFFFFFE00
0FFFFFFC00
07FFFFF800
03FFFFF000
00FFFFC000
003FFF0000
0000F00000
0003E00000
0003E00000
0007C00000
000F800000
000F800000
000F800000
000FEC0000
000FFC0000
0007FC0000
0003FC0000
0001FC0000
ENDCHAR
STARTCHAR 01ED
ENCODING 493
SWIDTH 600 0
DWIDTH 30 0
BBX 27 47 2 -12
BITMAP
07FFFC00
07FFFC00
07FFFC00
07FFFC00
07FFFC00
00000000
00000000
001F0000
01FFF000
07FFF800
0FFFFE00
1FFFFF00
3FFFFF00
3FF1FF80
7FC07F80
7F803FC0
7F803FC0
7F001FC0
FF001FE0
FF001FE0
FF001FE0
FF001FE0
FF001FE0
FF001FE0
FF001FE0
7F001FC0
7F803FC0
7F803FC0
3FC07F80
3FFFFF80
1FFFFF00
0FFFFE00
07FFFC00
03FFF800
00FFE000
000F0000
003E0000
003E0000
007C0000
00F80000
00F80000
00F80000
00FEC000
007FC000
007FC000
003FC000
001FC000
ENDCHAR
STARTCHAR 01F0
ENCODING 496
SWIDTH 300 0
DWIDTH 15 0
BBX 21 50 -3 -12
BITMAP
FC01F8
7F03F0
3F8FE0
1FDFC0
0FFFC0
07FF80
03FF00
03FE00
000000
000000
000000
01FC00
01FC00
01FC00
01FC00
01FC00
01FC00
01FC00
01FC00
01FC00
01FC00
01FC00
01FC00
01FC00
01FC00
01FC00
01FC00
01FC00
01FC00
01FC00
01FC00
01FC00
01FC00
01FC00
01FC00
01FC00
01FC00
01FC00
01FC00
01FC00
01FC00
01FC00
03FC00
07FC00
FFFC00
FFF800
FFF800
FFF000
FFE000
FF8000
ENDCHAR
STARTCHAR 01FA
ENCODING 506
SWIDTH 680 0
DWIDTH 34 0
BBX 34 48 0 0
BITMAP
00003FE000
00007FC000
00007F0000
0000FC0000
0001F80000
0000000000
0000000000
0003F80000
000FFC0000
000FFE0000
001F1E0000
001E1E0000
001E0E0000
001E1E0000
001F3E0000
000FFE0000
000FFC0000
000FFE0000
001FFE0000
001FFF0000
003FBF0000
003FBF0000
003F3F8000
007F1F8000
007F1FC000
007E1FC000
00FE0FC000
00FE0FE000
01FC0FE000
01FC07E000
01F807F000
03F807F000
03F803F800
07F003F800
07FFFFF800
07FFFFFC00
0FFFFFFC00
0FFFFFFC00
0FFFFFFE00
1FFFFFFE00
1FE000FF00
3FC000FF00
3FC0007F00
3FC0007F80
7F80007F80
7F80003FC0
7F80003FC0
FF00003FC0
ENDCHAR
STARTCHAR 01FB
ENCODING 507
SWIDTH 600 0
DWIDTH 30 0
BBX 24 48 2 0
BITMAP
0007FC
0007F8
000FE0
001FC0
003F00
000000
000000
001F00
007F80
00FFC0
00FFE0
01E1E0
01E0F0
01E0F0
01E1E0
00FFE0
00FFC0
007F80
000E00
000000
007F80
07FFF0
1FFFF8
1FFFFC
0FFFFE
0FFFFF
0700FF
00007F
00007F
00007F
00007F
007FFF
07FFFF
1FFFFF
3FFFFF
7FFC7F
7FC07F
FF007F
FF007F
FF007F
FF00FF
FF00FF
FF83FF
7FFFFF
7FFFBF
3FFFBF
1FFE1F
0FFC1F
ENDCHAR
STARTCHAR 01FC
ENCODING 508
SWIDTH 940 0
DWIDTH 47 0
BBX 45 47 0 0
BITMAP
0000003FE000
0000003FC000
0000007F8000
000000FF0000
000001FE0000
000001F80000
000003F00000
000007E00000
000000000000
000000000000
000000000000
0000FFFFFFF8
0001FFFFFFF8
0001FFFFFFF8
0001FFFFFFF8
0003FFFFFFF8
0003FFFFFFF8
0007FFFFFFF8
0007F1FE0000
000FF1FE0000
000FE1FE0000
001FE1FE0000
001FC1FE0000
001FC1FE0000
003F81FE0000
003F81FFFFF0
007F81FFFFF0
007F01FFFFF0
00FF01FFFFF0
00FE01FFFFF0
01FE01FFFFF0
01FC01FFFFF0
03FFFFFE0000
03FFFFFE0000
03FFFFFE0000
07FFFFFE0000
07FFFFFE0000
0FFFFFFE0000
0FFFFFFE0000
1FE001FE0000
1FE001FE0000
3FC001FFFFF8
3FC001FFFFF8
3F8001FFFFF8
7F8001FFFFF8
7F0001FFFFF8
FF0001FFFFF8
ENDCHAR
STARTCHAR 01FD
ENCODING 509
SWIDTH 900 0
DWIDTH 45 0
BBX 42 38 2 0
BITMAP
000003FE0000
000007FC0000
000007F00000
00000FE00000
00001FC00000
00003F800000
00007E000000
00007C000000
000000000000
000000000000
007F001F8000
07FFE0FFF000
1FFFF3FFF800
1FFFFFFFFE00
0FFFFFFFFE00
0FFFFFFFFF00
0701FFC07F80
0000FF803F80
00007F803F80
00007F003F80
00007F001FC0
00FFFFFFFFC0
07FFFFFFFFC0
1FFFFFFFFFC0
3FFFFFFFFFC0
7FF87FFFFFC0
7F807F000000
FF007F000000
FF00FF000000
FF00FF800000
FF00FF800000
FF01FFC00300
FF83FFF01F00
7FFFFFFFFF00
7FFFE7FFFF00
3FFFC3FFFF00
1FFF81FFFF00
0FFE007FFC00
ENDCHAR
STARTCHAR 01FE
ENCODING 510
SWIDTH 780 0
DWIDTH 39 0
BBX 34 49 3 -2
BITMAP
00003FE000
00007FC000
00007F8000
0000FF0000
0001FC0000
0003F80000
0003F00000
0007E00000
0000000000
0000001000
0000001800
001FFE3E00
00FFFFFE00
01FFFFFC00
07FFFFFC00
0FFFFFF800
1FFFFFFC00
1FFC0FFE00
3FF007FF00
3FE007FF00
7FC00FFF00
7F801FFF80
7F801F7F80
FF803F7F80
FF007E3FC0
FF007C3FC0
FF00FC3FC0
FF01F83FC0
FF01F03FC0
FF03F03FC0
FF07E03FC0
FF07C03FC0
FF0FC03FC0
FF1F803FC0
FF1F007F80
7FBF007F80
7FFE007F80
7FFC00FF80
3FFC01FF00
3FF803FF00
1FF807FE00
1FFFFFFE00
0FFFFFFC00
07FFFFF800
0FFFFFF000
1FFFFFC000
1F3FFF0000
0F00000000
0600000000
ENDCHAR
STARTCHAR 01FF
ENCODING 511
SWIDTH 600 0
DWIDTH 30 0
BBX 27 39 2 -2
BITMAP
0003FE00
0003FC00
0007F800
000FE000
001FC000
003F8000
003F0000
007C0000
00000000
00000000
003F8C00
01FFFF00
07FFFF00
0FFFFF00
1FFFFF00
3FFFFF00
3FF1FF80
7FC0FF80
7F81FFC0
7F83FFC0
7F03FFC0
FF07DFE0
FF0FDFE0
FF0F9FE0
FF1F1FE0
FF3F1FE0
FF3E1FE0
FF7C1FC0
7FFC1FC0
7FF83FC0
7FF03FC0
3FF07F80
3FFFFF80
1FFFFF00
0FFFFE00
1FFFFC00
1FFFF800
1FFFE000
0E000000
ENDCHAR
STARTCHAR 0218
ENCODING 536
SWIDTH 540 0
DWIDTH 27 0
BBX 24 47 2 -11
BITMAP
00FFC0
07FFF8
0FFFFE
1FFFFE
3FFFFC
3FFFFC
7FC0FC
7F8018
7F0000
7F0000
7F0000
7F8000
7FC000
7FE000
3FF800
3FFE00
1FFF80
0FFFE0
07FFF0
01FFF8
007FFC
001FFE
0007FE
0003FE
0001FE
0000FF
0000FF
8000FE
E000FE
FC03FE
FFFFFE
FFFFFC
FFFFF8
FFFFF0
7FFFE0
1FFF80
000000
000000
000000
007F00
00FE00
00FE00
00FC00
00FC00
00F800
01F000
01F000
ENDCHAR
STARTCHAR 0219
ENCODING 537
SWIDTH 480 0
DWIDTH 24 0
BBX 21 39 2 -11
BITMAP
00FE00
0FFFE0
1FFFF8
3FFFF0
7FFFF0
7FFFE0
FF01E0
FF0020
FF0000
FF8000
7FE000
7FFC00
3FFF00
3FFFC0
0FFFE0
03FFF0
00FFF0
003FF8
000FF8
0007F8
0003F8
C007F8
FC0FF8
FFFFF0
FFFFF0
FFFFE0
FFFFC0
3FFF00
000000
000000
000000
00FE00
00FC00
01FC00
01F800
01F800
01F000
01F000
03E000
ENDCHAR
STARTCHAR 021A
ENCODING 538
SWIDTH 560 0
DWIDTH 28 0
BBX 27 47 1 -11
BITMAP
FFFFFFE0
FFFFFFE0
FFFFFFE0
FFFFFFE0
FFFFFFE0
FFFFFFE0
FFFFFFE0
003F8000
003F8000
003F8000
003F8000
003F8000
003F8000
003F8000
003F8000
003F8000
003F8000
003F8000
003F8000
003F8000
003F8000
003F8000
003F8000
003F8000
003F8000
003F8000
003F8000
003F8000
003F8000
003F8000
003F8000
003F8000
003F8000
003F8000
003F8000
003F8000
00000000
00000000
00000000
001FC000
001F8000
003F8000
003F0000
003F0000
003E0000
003E0000
007C0000
ENDCHAR
STARTCHAR 021B
ENCODING 539
SWIDTH 420 0
DWIDTH 21 0
BBX 19 44 1 -11
BITMAP
03E000
03E000
07E000
07E000
07E000
0FE000
1FFFE0
7FFFE0
FFFFE0
FFFFE0
FFFFE0
0FE000
0FE000
0FE000
0FE000
0FE000
0FE000
0FE000
0FE000
0FE000
0FE000
0FE000
0FE000
0FE000
0FE000
0FE000
0FF000
0FFDE0
0FFFE0
07FFE0
07FFE0
03FFE0
01FFE0
000000
000000
000000
00FE00
00FE00
00FC00
00FC00
00F800
01F800
01F000
01F000
ENDCHAR
STARTCHAR 0237
ENCODING 567
SWIDTH 300 0
DWIDTH 15 0
BBX 14 39 -3 -12
BITMAP
01FC
01FC
01FC
01FC
01FC
01FC
01FC
01FC
01FC
01FC
01FC
01FC
01FC
01FC
01FC
01FC
01FC
01FC
01FC
01FC
01FC
01FC
01FC
01FC
01FC
01FC
01FC
01FC
01FC
01FC
01FC
03FC
07FC
FFFC
FFF8
FFF8
FFF0
FFE0
FF80
ENDCHAR
STARTCHAR 0259
ENCODING 601
SWIDTH 580 0
DWIDTH 29 0
BBX 25 28 2 0
BITMAP
00FE0000
1FFFC000
3FFFF000
3FFFF800
3FFFFC00
3FFFFE00
3803FF00
2000FF00
00007F00
00007F80
00007F80
00003F80
FFFFFF80
FFFFFF80
FFFFFF80
FFFFFF80
FFFFFF80
FE003F80
FE007F80
FE007F80
7F007F00
7F00FF00
7FC1FE00
3FFFFE00
1FFFFC00
0FFFF800
07FFF000
01FFC000
ENDCHAR
STARTCHAR 02BC
ENCODING 700
SWIDTH 200 0
DWIDTH 10 0
BBX 9 13 1 23
BITMAP
3F80
3F80
3F80
7F80
7F00
7F00
7E00
7E00
FE00
FC00
FC00
F800
F800
ENDCHAR
STARTCHAR 02C6
ENCODING 710
SWIDTH 500 0
DWIDTH 25 0
BBX 21 8 2 30
BITMAP
03FE00
07FF00
0FFF80
1FDFC0
3F8FE0
7F07F0
7E03F8
F800F8
ENDCHAR
STARTCHAR 02C7
ENCODING 711
SWIDTH 500 0
DWIDTH 25 0
BBX 21 8 2 30
BITMAP
FC01F8
7F07F0
3F8FE0
1FDFC0
0FFF80
07FF80
07FF00
03FE00
ENDCHAR
STARTCHAR 02C9
ENCODING 713
SWIDTH 400 0
DWIDTH 20 0
BBX 17 5 2 30
BITMAP
FFFF80
FFFF80
FFFF80
FFFF80
FFFF80
ENDCHAR
STARTCHAR 02D8
ENCODING 728
SWIDTH 460 0
DWIDTH 23 0
BBX 19 9 2 30
BITMAP
F001E0
F001E0
F803E0
7FFFC0
7FFFC0
3FFF80
1FFF00
0FFE00
01F000
ENDCHAR
STARTCHAR 02D9
ENCODING 729
SWIDTH 240 0
DWIDTH 12 0
BBX 8 7 2 31
BITMAP
3C
FF
FF
FF
FF
FF
7E
ENDCHAR
STARTCHAR 02DA
ENCODING 730
SWIDTH 320 0
DWIDTH 16 0
BBX 12 12 2 30
BITMAP
0F00
3FC0
7FE0
FFF0
F0F0
F0F0
F0F0
F0F0
FFF0
7FE0
3FC0
0F00
ENDCHAR
STARTCHAR 02DB
ENCODING 731
SWIDTH 260 0
DWIDTH 13 0
BBX 10 13 2 -12
BITMAP
0600
1F00
3E00
7C00
7C00
F800
F800
F800
FEC0
FFC0
7FC0
3FC0
1FC0
ENDCHAR
STARTCHAR 02DC
ENCODING 732
SWIDTH 480 0
DWIDTH 24 0
BBX 20 8 2 30
BITMAP
0700F0
1FE0F0
3FF9F0
7FFFF0
7FFFE0
F8FFC0
F03F80
F00600
ENDCHAR
STARTCHAR 02DD
ENCODING 733
SWIDTH 500 0
DWIDTH 25 0
BBX 22 8 2 30
BITMAP
0FF3FC
0FE7F8
1FC7F0
3F8FE0
3F1FC0
7E1F00
FC3E00
F03C00
ENDCHAR
STARTCHAR 02F3
ENCODING 755
SWIDTH 320 0
DWIDTH 16 0
BBX 12 12 2 -15
BITMAP
0F80
3FC0
7FE0
7FF0
F0F0
F070
F0F0
F0F0
7FF0
7FE0
3FC0
0E00
ENDCHAR
STARTCHAR 0300
ENCODING 768
SWIDTH 0 0
DWIDTH 0 0
BBX 14 8 -26 30
BITMAP
FF00
7F80
3FC0
1FE0
0FE0
03F0
01F8
00FC
ENDCHAR
STARTCHAR 0301
ENCODING 769
SWIDTH 0 0
DWIDTH 0 0
BBX 13 8 -16 30
BITMAP
07F8
0FF0
1FE0
3FC0
3F80
7E00
FC00
F800
ENDCHAR
STARTCHAR 0302
ENCODING 770
SWIDTH 0 0
DWIDTH 0 0
BBX 22 8 -11 30
BITMAP
03FF00
07FF80
07FFC0
0FFFC0
1FCFE0
3F87F0
7E01F8
FC00FC
ENDCHAR
STARTCHAR 0303
ENCODING 771
SWIDTH 0 0
DWIDTH 0 0
BBX 20 8 -26 30
BITMAP
078070
1FE0F0
3FF9F0
7FFFF0
7FFFE0
78FFE0
F03FC0
F00600
ENDCHAR
STARTCHAR 0304
ENCODING 772
SWIDTH 0 0
DWIDTH 0 0
BBX 16 5 -8 30
BITMAP
FFFF
FFFF
FFFF
FFFF
FFFF
ENDCHAR
STARTCHAR 0306
ENCODING 774
SWIDTH 0 0
DWIDTH 0 0
BBX 19 9 -9 30
BITMAP
F003E0
F003E0
F807C0
FFFFC0
7FFF80
7FFF80
3FFF00
0FFC00
03E000
ENDCHAR
STARTCHAR 0307
ENCODING 775
SWIDTH 0 0
DWIDTH 0 0
BBX 8 7 -4 31
BITMAP
3C
FF
FF
FF
FF
FF
7E
ENDCHAR
STARTCHAR 0308
ENCODING 776
SWIDTH 0 0
DWIDTH 0 0
BBX 16 7 -8 31
BITMAP
300C
FC3F
FC3F
FC7F
FC3F
FC3F
781E
ENDCHAR
STARTCHAR 0309
ENCODING 777
SWIDTH 0 0
DWIDTH 0 0
BBX 11 11 -20 31
BITMAP
FF80
FFC0
FFE0
FFE0
07E0
07E0
07E0
1FE0
1FC0
1E00
1E00
ENDCHAR
STARTCHAR 030A
ENCODING 778
SWIDTH 0 0
DWIDTH 0 0
BBX 12 12 -6 30
BITMAP
0F00
3FC0
7FE0
FFF0
F0F0
F0F0
F0F0
F0F0
FFF0
7FE0
3FC0
0F00
ENDCHAR
STARTCHAR 030B
ENCODING 779
SWIDTH 0 0
DWIDTH 0 0
BBX 22 8 -8 30
BITMAP
07F3FC
0FF3F8
0FE7F0
1FC7E0
3F0FC0
3E1F80
7C1F00
F83C00
ENDCHAR
STARTCHAR 030C
ENCODING 780
SWIDTH 0 0
DWIDTH 0 0
BBX 21 8 -10 30
BITMAP
FC03F8
7E07F0
3F0FE0
3FDFC0
1FFF80
0FFF00
07FE00
03FE00
ENDCHAR
STARTCHAR 030F
ENCODING 783
SWIDTH 0 0
DWIDTH 0 0
BBX 21 8 -28 30
BITMAP
FE7F80
FF3F80
7F1FC0
3F8FC0
1F87E0
0FC3F0
03E1F0
01E0F8
ENDCHAR
STARTCHAR 0312
ENCODING 786
SWIDTH 0 0
DWIDTH 0 0
BBX 10 13 -5 23
BITMAP
0FC0
0FC0
0F80
1F80
1F80
3F80
3F00
3F00
7F00
7F00
7F00
FF00
7E00
ENDCHAR
STARTCHAR 0323
ENCODING 803
SWIDTH 0 0
DWIDTH 0 0
BBX 8 8 -20 -11
BITMAP
3C
7F
FF
FF
FF
7F
7F
08
ENDCHAR
STARTCHAR 0326
ENCODING 806
SWIDTH 0 0
DWIDTH 0 0
BBX 8 8 -4 -11
BITMAP
7F
7F
7E
7E
FC
FC
F8
F0
ENDCHAR
STARTCHAR 0327
ENCODING 807
SWIDTH 0 0
DWIDTH 0 0
BBX 12 12 -6 -12
BITMAP
1F00
1F00
3FC0
3FE0
0FE0
07F0
03F0
87E0
FFE0
FFE0
FFC0
FF00
ENDCHAR
STARTCHAR 0328
ENCODING 808
SWIDTH 0 0
DWIDTH 0 0
BBX 10 13 -5 -12
BITMAP
0600
1F00
3E00
7E00
7C00
F800
F800
F800
FEC0
FFC0
7FC0
3FC0
1FC0
ENDCHAR
STARTCHAR 0384
ENCODING 900
SWIDTH 560 0
DWIDTH 28 0
BBX 9 10 12 30
BITMAP
3F80
3F00
7F00
7E00
7E00
7C00
FC00
F800
F800
F000
ENDCHAR
STARTCHAR 0385
ENCODING 901
SWIDTH 560 0
DWIDTH 28 0
BBX 20 11 5 31
BITMAP
007E00
007E00
00FC00
00FC00
30F880
7CF3E0
FCF7F0
FDE7F0
FC07F0
FC03E0
7801C0
ENDCHAR
STARTCHAR 0386
ENCODING 902
SWIDTH 680 0
DWIDTH 34 0
BBX 35 37 0 0
BITMAP
3F80000000
3F87FE0000
3F07FE0000
3F07FF0000
3E0FFF0000
7E0FFF0000
7C0FFF8000
7C1FFF8000
F81FDF8000
001F9FC000
003F9FC000
003F8FE000
003F8FE000
007F0FE000
007F07F000
007F07F000
00FE07F000
00FE07F800
01FE03F800
01FC03F800
01FC03FC00
03FC01FC00
03FFFFFC00
03FFFFFE00
07FFFFFE00
07FFFFFE00
07FFFFFF00
0FFFFFFF00
0FFFFFFF80
0FE0007F80
1FE0007F80
1FE0003FC0
1FE0003FC0
3FC0003FC0
3FC0001FE0
3FC0001FE0
7F80001FE0
ENDCHAR
STARTCHAR 0387
ENCODING 903
SWIDTH 280 0
DWIDTH 14 0
BBX 8 8 3 19
BITMAP
3C
7F
FF
FF
FF
FF
FF
7E
ENDCHAR
STARTCHAR 0388
ENCODING 904
SWIDTH 660 0
DWIDTH 33 0
BBX 31 37 0 0
BITMAP
3F800000
3F3FFFFE
7F3FFFFE
7E3FFFFE
7E3FFFFE
7C3FFFFE
7C3FFFFE
F83FFFFE
F83FC000
003FC000
003FC000
003FC000
003FC000
003FC000
003FC000
003FFFFC
003FFFFC
003FFFFC
003FFFFC
003FFFFC
003FFFFC
003FFFFC
003FC000
003FC000
003FC000
003FC000
003FC000
003FC000
003FC000
003FC000
003FC000
003FFFFE
003FFFFE
003FFFFE
003FFFFE
003FFFFE
003FFFFE
ENDCHAR
STARTCHAR 0389
ENCODING 905
SWIDTH 880 0
DWIDTH 44 0
BBX 40 37 0 0
BITMAP
3F80000000
3F3FC000FF
7F3FC000FF
7E3FC000FF
7E3FC000FF
7C3FC000FF
7C3FC000FF
F83FC000FF
F83FC000FF
003FC000FF
003FC000FF
003FC000FF
003FC000FF
003FC000FF
003FC000FF
003FFFFFFF
003FFFFFFF
003FFFFFFF
003FFFFFFF
003FFFFFFF
003FFFFFFF
003FFFFFFF
003FC000FF
003FC000FF
003FC000FF
003FC000FF
003FC000FF
003FC000FF
003FC000FF
003FC000FF
003FC000FF
003FC000FF
003FC000FF
003FC000FF
003FC000FF
003FC000FF
003FC000FF
ENDCHAR
STARTCHAR 038A
ENCODING 906
SWIDTH 440 0
DWIDTH 22 0
BBX 18 37 0 0
BITMAP
3F8000
3F3FC0
7F3FC0
7E3FC0
7E3FC0
7C3FC0
7C3FC0
F83FC0
F83FC0
003FC0
003FC0
003FC0
003FC0
003FC0
003FC0
003FC0
003FC0
003FC0
003FC0
003FC0
003FC0
003FC0
003FC0
003FC0
003FC0
003FC0
003FC0
003FC0
003FC0
003FC0
003FC0
003FC0
003FC0
003FC0
003FC0
003FC0
003FC0
ENDCHAR
STARTCHAR 038C
ENCODING 908
SWIDTH 840 0
DWIDTH 42 0
BBX 40 37 0 0
BITMAP
3F80000000
3F007FF800
7F03FFFF00
7E07FFFF80
7E1FFFFFE0
7C3FFFFFF0
7C7FFFFFF0
F87FF03FF8
F8FFC00FFC
00FF8007FC
01FF0003FE
01FE0001FE
01FE0001FE
03FE0001FE
03FC0000FF
03FC0000FF
03FC0000FF
03FC0000FF
03FC0000FF
03FC0000FF
03FC0000FF
03FC0000FF
03FC0000FF
03FC0000FF
03FE0001FE
01FE0001FE
01FE0001FE
01FF0003FE
00FF0007FC
00FFC00FFC
007FE01FF8
007FFFFFF8
003FFFFFF0
001FFFFFE0
000FFFFFC0
0003FFFF00
0000FFFC00
ENDCHAR
STARTCHAR 038E
ENCODING 910
SWIDTH 800 0
DWIDTH 40 0
BBX 41 37 0 0
BITMAP
3F8000000000
3F7FC000FF80
7F3FC000FF00
7E1FE001FE00
7E1FE001FE00
7C0FF003FC00
7C0FF003FC00
F807F807F800
F807F807F800
0003FC0FF000
0003FC0FF000
0001FE1FE000
0001FE1FE000
0000FF3FC000
0000FF3F8000
00007FFF8000
00003FFF0000
00003FFF0000
00001FFE0000
00001FFE0000
00000FFC0000
00000FFC0000
000007F80000
000007F80000
000007F80000
000007F80000
000007F80000
000007F80000
000007F80000
000007F80000
000007F80000
000007F80000
000007F80000
000007F80000
000007F80000
000007F80000
000007F80000
ENDCHAR
STARTCHAR 038F
ENCODING 911
SWIDTH 860 0
DWIDTH 43 0
BBX 42 37 0 0
BITMAP
3F8000000000
3F003FFC0000
7F01FFFF0000
7E07FFFFC000
7E0FFFFFF000
7C3FFFFFF800
7C3FFFFFFC00
F87FF01FFC00
F8FFC007FE00
00FF8003FE00
01FF0001FF00
01FF0000FF00
01FE0000FF00
01FE0000FF00
01FE00007F80
01FC00007F80
01FC00007F80
01FC00007F80
01FC00007F00
01FC00007F00
01FE00007F00
01FE0000FF00
00FE0000FE00
00FE0000FE00
007F0000FE00
007F0001FC00
003F8003F800
001F8003F800
000FC007F000
0007F01FC000
0003F83F8000
07FFF83FFFC0
07FFF83FFFC0
07FFF83FFFC0
07FFF83FFFC0
07FFF83FFFC0
07FFF83FFFC0
ENDCHAR
STARTCHAR 0390
ENCODING 912
SWIDTH 400 0
DWIDTH 20 0
BBX 20 42 -1 0
BITMAP
00FE00
00FC00
00FC00
00F800
20F980
F9F7E0
FDE7E0
FDE7E0
FC07E0
FC07E0
7003C0
000000
000000
000000
000000
07F000
07F000
07F000
07F000
07F000
07F000
07F000
07F000
07F000
07F000
07F000
07F000
07F000
07F000
07F000
07F000
07F000
07F000
07F000
07F000
07F800
07FEF0
07FFF0
03FFF0
03FFF0
01FFF0
007FF0
ENDCHAR
STARTCHAR 0391
ENCODING 913
SWIDTH 680 0
DWIDTH 34 0
BBX 34 36 0 0
BITMAP
000FFC0000
000FFC0000
000FFE0000
001FFE0000
001FFE0000
001FFF0000
003FFF0000
003FBF0000
003F3F8000
007F3F8000
007F1FC000
007F1FC000
00FE1FC000
00FE0FE000
00FE0FE000
01FC0FE000
01FC0FF000
03FC07F000
03F807F000
03F807F800
07F803F800
07FFFFF800
07FFFFFC00
0FFFFFFC00
0FFFFFFC00
0FFFFFFE00
1FFFFFFE00
1FFFFFFF00
1FC000FF00
3FC000FF00
3FC0007F80
3FC0007F80
7F80007F80
7F80003FC0
7F80003FC0
FF00003FC0
ENDCHAR
STARTCHAR 0392
ENCODING 914
SWIDTH 660 0
DWIDTH 33 0
BBX 27 36 4 0
BITMAP
FFFE0000
FFFFF800
FFFFFE00
FFFFFF00
FFFFFF80
FFFFFF80
FFFFFFC0
FF007FC0
FF003FC0
FF003FC0
FF003FC0
FF003FC0
FF003FC0
FF007F80
FFFFFF80
FFFFFF00
FFFFFC00
FFFFF800
FFFFFF00
FFFFFF80
FF07FFC0
FF007FC0
FF003FE0
FF001FE0
FF001FE0
FF001FE0
FF001FE0
FF003FE0
FF003FE0
FF01FFC0
FFFFFFC0
FFFFFF80
FFFFFF00
FFFFFE00
FFFFF800
FFFFC000
ENDCHAR
STARTCHAR 0393
ENCODING 915
SWIDTH 560 0
DWIDTH 28 0
BBX 23 36 4 0
BITMAP
FFFFFE
FFFFFE
FFFFFE
FFFFFE
FFFFFE
FFFFFE
FFFFFE
FF0000
FF0000
FF0000
FF0000
FF0000
FF0000
FF0000
FF0000
FF0000
FF0000
FF0000
FF0000
FF0000
FF0000
FF0000
FF0000
FF0000
FF0000
FF0000
FF0000
FF0000
FF0000
FF0000
FF0000
FF0000
FF0000
FF0000
FF0000
FF0000
ENDCHAR
STARTCHAR 0394
ENCODING 916
SWIDTH 640 0
DWIDTH 32 0
BBX 31 36 1 0
BITMAP
001FF000
001FF000
003FF800
003FF800
003FF800
007FFC00
007FFC00
007EFC00
00FEFE00
00FEFE00
00FC7E00
01FC7F00
01FC7F00
01F87F00
03F83F80
03F83F80
03F03F80
07F01FC0
07F01FC0
07E01FC0
0FE00FE0
0FE00FE0
0FC00FE0
1FC007F0
1FC007F0
3FC007F0
3F8003F8
3F8003F8
7F8003F8
7F0001FC
7FFFFFFC
FFFFFFFC
FFFFFFFE
FFFFFFFE
FFFFFFFE
FFFFFFFE
ENDCHAR
STARTCHAR 0395
ENCODING 917
SWIDTH 560 0
DWIDTH 28 0
BBX 21 36 4 0
BITMAP
FFFFF8
FFFFF8
FFFFF8
FFFFF8
FFFFF8
FFFFF8
FFFFF8
FF0000
FF0000
FF0000
FF0000
FF0000
FF0000
FF0000
FFFFF0
FFFFF0
FFFFF0
FFFFF0
FFFFF0
FFFFF0
FFFFF0
FF0000
FF0000
FF0000
FF0000
FF0000
FF0000
FF0000
FF0000
FF0000
FFFFF8
FFFFF8
FFFFF8
FFFFF8
FFFFF8
FFFFF8
ENDCHAR
STARTCHAR 0396
ENCODING 918
SWIDTH 560 0
DWIDTH 28 0
BBX 27 36 1 0
BITMAP
7FFFFFC0
7FFFFFC0
7FFFFFC0
7FFFFFC0
7FFFFFC0
7FFFFFC0
7FFFFF80
00007F80
0000FF00
0001FE00
0001FE00
0003FC00
0007F800
000FF800
000FF000
001FE000
003FC000
003FC000
007F8000
00FF0000
00FF0000
01FE0000
03FC0000
07FC0000
07F80000
0FF00000
1FE00000
1FE00000
3FC00000
7F800000
7FFFFFE0
FFFFFFE0
FFFFFFE0
FFFFFFE0
FFFFFFE0
FFFFFFE0
ENDCHAR
STARTCHAR 0397
ENCODING 919
SWIDTH 760 0
DWIDTH 38 0
BBX 30 36 4 0
BITMAP
FF0003FC
FF0003FC
FF0003FC
FF0003FC
FF0003FC
FF0003FC
FF0003FC
FF0003FC
FF0003FC
FF0003FC
FF0003FC
FF0003FC
FF0003FC
FF0003FC
FFFFFFFC
FFFFFFFC
FFFFFFFC
FFFFFFFC
FFFFFFFC
FFFFFFFC
FFFFFFFC
FF0003FC
FF0003FC
FF0003FC
FF0003FC
FF0003FC
FF0003FC
FF0003FC
FF0003FC
FF0003FC
FF0003FC
FF0003FC
FF0003FC
FF0003FC
FF0003FC
FF0003FC
ENDCHAR
STARTCHAR 0398
ENCODING 920
SWIDTH 780 0
DWIDTH 39 0
BBX 34 36 3 0
BITMAP
001FFE0000
00FFFFC000
01FFFFE000
07FFFFF800
0FFFFFFC00
1FFFFFFC00
1FFC0FFE00
3FF003FF00
3FE001FF00
7FC000FF00
7F8000FF80
7F80007F80
FF80007F80
FF00007FC0
FF00003FC0
FF1FFE3FC0
FF1FFE3FC0
FF1FFE3FC0
FF1FFE3FC0
FF1FFE3FC0
FF1FFE3FC0
FF00003FC0
FF00003FC0
FF00007F80
7F80007F80
7F80007F80
7FC000FF80
3FC001FF00
3FE003FF00
1FF807FE00
1FFFFFFE00
0FFFFFFC00
07FFFFF800
03FFFFF000
00FFFFC000
003FFF0000
ENDCHAR
STARTCHAR 0399
ENCODING 921
SWIDTH 320 0
DWIDTH 16 0
BBX 8 36 4 0
BITMAP
FF
FF
FF
FF
FF
FF
FF
FF
FF
FF
FF
FF
FF
FF
FF
FF
FF
FF
FF
FF
FF
FF
FF
FF
FF
FF
FF
FF
FF
FF
FF
FF
FF
FF
FF
FF
ENDCHAR
STARTCHAR 039A
ENCODING 922
SWIDTH 660 0
DWIDTH 33 0
BBX 29 36 4 0
BITMAP
FF0007F8
FF000FF0
FF001FE0
FF003FE0
FF007FC0
FF007F80
FF00FF00
FF01FE00
FF03FE00
FF07FC00
FF07F800
FF0FF000
FF1FF000
FF3FE000
FF3FC000
FF7F8000
FFFF8000
FFFFC000
FFFFC000
FFFFE000
FFFFE000
FFEFF000
FF8FF800
FF07F800
FF07FC00
FF03FE00
FF01FE00
FF01FF00
FF00FF00
FF007F80
FF007FC0
FF003FC0
FF003FE0
FF001FF0
FF000FF0
FF000FF8
ENDCHAR
STARTCHAR 039B
ENCODING 923
SWIDTH 640 0
DWIDTH 32 0
BBX 32 36 0 0
BITMAP
000FF000
000FF800
001FF800
001FF800
001FFC00
003FFC00
003FFC00
003FFE00
007F7E00
007F7E00
007E7F00
00FE7F00
00FE3F80
00FE3F80
01FC3F80
01FC3FC0
01FC1FC0
03FC1FC0
03F81FE0
03F80FE0
07F80FE0
07F00FF0
07F007F0
0FF007F0
0FE007F8
0FE003F8
1FE003F8
1FC003FC
1FC001FC
3FC001FC
3F8001FE
3F8001FE
7F8000FE
7F0000FF
FF0000FF
FF00007F
ENDCHAR
STARTCHAR 039C
ENCODING 924
SWIDTH 940 0
DWIDTH 47 0
BBX 39 36 4 0
BITMAP
FFE0000FFE
FFE0000FFE
FFE0000FFE
FFF0001FFE
FFF0001FFE
FFF0001FFE
FFF8003FFE
FFF8003FFE
FFF8003FFE
FFFC007EFE
FEFC007EFE
FEFC007EFE
FEFE00FCFE
FE7E00FCFE
FE7E00FCFE
FE7F01F8FE
FE3F01F8FE
FE3F01F8FE
FE3F03F0FE
FE1F83F0FE
FE1F83F0FE
FE1F87E0FE
FE1FC7E0FE
FE0FC7E0FE
FE0FCFC0FE
FE0FEFC0FE
FE07EFC0FE
FE07FF80FE
FE07FF80FE
FE03FF80FE
FE03FF00FE
FE03FF00FE
FE01FF00FE
FE01FE00FE
FE01FE00FE
FE01FE00FE
ENDCHAR
STARTCHAR 039D
ENCODING 925
SWIDTH 800 0
DWIDTH 40 0
BBX 32 36 4 0
BITMAP
FFC0007F
FFE0007F
FFE0007F
FFF0007F
FFF0007F
FFF8007F
FFFC007F
FFFC007F
FFFE007F
FFFE007F
FEFF007F
FEFF807F
FE7F807F
FE3FC07F
FE3FC07F
FE1FE07F
FE1FE07F
FE0FF07F
FE0FF87F
FE07F87F
FE03FC7F
FE03FC7F
FE01FE3F
FE01FE3F
FE00FF3F
FE007FBF
FE007FBF
FE003FFF
FE003FFF
FE001FFF
FE001FFF
FE000FFF
FE0007FF
FE0007FF
FE0003FF
FE0003FF
ENDCHAR
STARTCHAR 039E
ENCODING 926
SWIDTH 560 0
DWIDTH 28 0
BBX 25 36 2 0
BITMAP
7FFFFF00
7FFFFF00
7FFFFF00
7FFFFF00
7FFFFF00
7FFFFF00
7FFFFF00
00000000
00000000
00000000
00000000
00000000
00000000
00000000
1FFFFC00
1FFFFC00
1FFFFC00
1FFFFC00
1FFFFC00
1FFFFC00
1FFFFC00
00000000
00000000
00000000
00000000
00000000
00000000
00000000
00000000
00000000
FFFFFF80
FFFFFF80
FFFFFF80
FFFFFF80
FFFFFF80
FFFFFF80
ENDCHAR
STARTCHAR 039F
ENCODING 927
SWIDTH 780 0
DWIDTH 39 0
BBX 34 36 3 0
BITMAP
001FFE0000
00FFFFC000
01FFFFE000
07FFFFF800
0FFFFFFC00
1FFFFFFC00
1FFC0FFE00
3FF003FF00
3FE001FF00
7FC000FF00
7F8000FF80
7F80007F80
FF80007F80
FF00007FC0
FF00003FC0
FF00003FC0
FF00003FC0
FF00003FC0
FF00003FC0
FF00003FC0
FF00003FC0
FF00003FC0
FF00003FC0
FF00007F80
7F80007F80
7F80007F80
7FC000FF80
3FC001FF00
3FE003FF00
1FF807FE00
1FFFFFFE00
0FFFFFFC00
07FFFFF800
03FFFFF000
00FFFFC000
003FFF0000
ENDCHAR
STARTCHAR 03A0
ENCODING 928
SWIDTH 740 0
DWIDTH 37 0
BBX 29 36 4 0
BITMAP
FFFFFFF8
FFFFFFF8
FFFFFFF8
FFFFFFF8
FFFFFFF8
FFFFFFF8
FFFFFFF8
FF0007F8
FF0007F8
FF0007F8
FF0007F8
FF0007F8
FF0007F8
FF0007F8
FF0007F8
FF0007F8
FF0007F8
FF0007F8
FF0007F8
FF0007F8
FF0007F8
FF0007F8
FF0007F8
FF0007F8
FF0007F8
FF0007F8
FF0007F8
FF0007F8
FF0007F8
FF0007F8
FF0007F8
FF0007F8
FF0007F8
FF0007F8
FF0007F8
FF0007F8
ENDCHAR
STARTCHAR 03A1
ENCODING 929
SWIDTH 620 0
DWIDTH 31 0
BBX 25 36 4 0
BITMAP
FFFE0000
FFFFE000
FFFFF800
FFFFFC00
FFFFFE00
FFFFFF00
FFFFFF00
FF00FF80
FF007F80
FF007F80
FF007F80
FF003F80
FF007F80
FF007F80
FF007F80
FF00FF80
FF03FF00
FFFFFF00
FFFFFE00
FFFFFC00
FFFFF800
FFFFF000
FFFF8000
FF000000
FF000000
FF000000
FF000000
FF000000
FF000000
FF000000
FF000000
FF000000
FF000000
FF000000
FF000000
FF000000
ENDCHAR
STARTCHAR 03A3
ENCODING 931
SWIDTH 580 0
DWIDTH 29 0
BBX 26 36 2 0
BITMAP
FFFFFF00
FFFFFF00
FFFFFF00
FFFFFF00
FFFFFF00
FFFFFF00
7F8FFF00
3FC00000
1FE00000
0FF00000
07F80000
03FC0000
01FE0000
00FF0000
007F8000
003FC000
001FE000
001FE000
003FC000
007F8000
007F0000
00FE0000
01FE0000
03FC0000
07F80000
0FF00000
1FE00000
3FC00000
7F800000
FF000000
FFFFFFC0
FFFFFFC0
FFFFFFC0
FFFFFFC0
FFFFFFC0
FFFFFFC0
ENDCHAR
STARTCHAR 03A4
ENCODING 932
SWIDTH 560 0
DWIDTH 28 0
BBX 27 36 1 0
BITMAP
FFFFFFE0
FFFFFFE0
FFFFFFE0
FFFFFFE0
FFFFFFE0
FFFFFFE0
FFFFFFE0
003F8000
003F8000
003F8000
003F8000
003F8000
003F8000
003F8000
003F8000
003F8000
003F8000
003F8000
003F8000
003F8000
003F8000
003F8000
003F8000
003F8000
003F8000
003F8000
003F8000
003F8000
003F8000
003F8000
003F8000
003F8000
003F8000
003F8000
003F8000
003F8000
ENDCHAR
STARTCHAR 03A5
ENCODING 933
SWIDTH 620 0
DWIDTH 31 0
BBX 31 36 0 0
BITMAP
FF0001FE
7F8003FE
7F8003FC
3FC007F8
3FC007F8
1FE00FF0
1FE00FF0
0FF01FE0
0FF01FE0
07F83FC0
07F83FC0
03FC7F80
01FC7F80
01FEFF00
00FEFF00
00FFFE00
007FFC00
007FFC00
003FF800
003FF800
001FF000
001FF000
000FE000
000FE000
000FE000
000FE000
000FE000
000FE000
000FE000
000FE000
000FE000
000FE000
000FE000
000FE000
000FE000
000FE000
ENDCHAR
STARTCHAR 03A6
ENCODING 934
SWIDTH 860 0
DWIDTH 43 0
BBX 39 36 2 0
BITMAP
0000FE0000
0000FE0000
0000FE0000
0000FE0000
000FFFE000
00FFFFFE00
03FFFFFF80
07FFFFFFC0
0FFFFFFFE0
1FFFFFFFF0
3FF8FE3FF8
3FC0FE07F8
7F80FE03FC
7F00FE01FC
7F00FE01FC
FF00FE01FE
FE00FE00FE
FE00FE00FE
FE00FE00FE
FF00FE01FE
7F00FE01FC
7F00FE01FC
7F80FE03FC
3FC0FE07F8
3FF0FE1FF8
1FFFFFFFF0
0FFFFFFFE0
07FFFFFFC0
03FFFFFF80
00FFFFFE00
001FFFF000
0000FE0000
0000FE0000
0000FE0000
0000FE0000
0000FE0000
ENDCHAR
STARTCHAR 03A7
ENCODING 935
SWIDTH 660 0
DWIDTH 33 0
BBX 33 36 0 0
BITMAP
7F8000FF00
7FC000FF00
3FC001FE00
1FE003FC00
1FF003FC00
0FF007F800
07F807F800
07F80FF000
03FC0FE000
01FE1FE000
01FE3FC000
00FF3F8000
007F7F8000
007FFF0000
003FFF0000
003FFE0000
001FFC0000
000FFC0000
001FFC0000
001FFC0000
003FFE0000
007FFF0000
007FFF0000
00FF7F8000
01FE3FC000
01FE3FC000
03FC1FE000
07F81FF000
07F80FF000
0FF007F800
0FF007FC00
1FE003FC00
3FC001FE00
3FC001FF00
7F8000FF00
FF0000FF80
ENDCHAR
STARTCHAR 03A8
ENCODING 936
SWIDTH 860 0
DWIDTH 43 0
BBX 38 36 3 0
BITMAP
FE01FC01FC
FE01FC01FC
FE01FC01FC
FE01FC01FC
FE01FC01FC
FE01FC01FC
FE01FC01FC
FE01FC01FC
FE01FC01FC
FE01FC01FC
FE01FC01FC
FE01FC01FC
FE01FC01FC
FE01FC01FC
FE01FC01FC
FE01FC01FC
FF01FC03FC
FF81FC07F8
7FC1FC1FF8
7FFFFFFFF8
3FFFFFFFF0
1FFFFFFFE0
0FFFFFFFC0
07FFFFFF80
00FFFFFC00
0001FC0000
0001FC0000
0001FC0000
0001FC0000
0001FC0000
0001FC0000
0001FC0000
0001FC0000
0001FC0000
0001FC0000
0001FC0000
ENDCHAR
STARTCHAR 03A9
ENCODING 937
SWIDTH 780 0
DWIDTH 39 0
BBX 37 36 1 0
BITMAP
0007FF8000
003FFFE000
00FFFFF800
01FFFFFE00
03FFFFFF00
07FFFFFF80
0FFE03FF80
1FF800FFC0
1FF0007FC0
3FE0003FE0
3FE0001FE0
3FC0001FE0
3FC0001FE0
3FC0000FF0
3FC0000FF0
3F80000FF0
3F80000FF0
3F80000FE0
3FC0000FE0
3FC0000FE0
3FC0001FE0
1FC0001FC0
1FC0001FC0
0FE0001FC0
0FE0003F80
07F0007F00
03F8007F00
01FC00FE00
00FE03F800
007F07F000
FFFF07FFF8
FFFF07FFF8
FFFF07FFF8
FFFF07FFF8
FFFF07FFF8
FFFF07FFF8
ENDCHAR
STARTCHAR 03AA
ENCODING 938
SWIDTH 320 0
DWIDTH 16 0
BBX 17 46 0 0
BITMAP
781E00
FC3F00
FE3F80
FE3F80
FE3F00
7C1F00
100800
000000
000000
000000
0FF000
0FF000
0FF000
0FF000
0FF000
0FF000
0FF000
0FF000
0FF000
0FF000
0FF000
0FF000
0FF000
0FF000
0FF000
0FF000
0FF000
0FF000
0FF000
0FF000
0FF000
0FF000
0FF000
0FF000
0FF000
0FF000
0FF000
0FF000
0FF000
0FF000
0FF000
0FF000
0FF000
0FF000
0FF000
0FF000
ENDCHAR
STARTCHAR 03AB
ENCODING 939
SWIDTH 620 0
DWIDTH 31 0
BBX 31 46 0 0
BITMAP
00783C00
00FC7F00
01FC7F00
01FC7F00
01FC7F00
00F83E00
00200800
00000000
00000000
00000000
FF0001FE
7F8003FE
7F8003FC
3FC007F8
3FC007F8
1FE00FF0
1FE00FF0
0FF01FE0
0FF01FE0
07F83FC0
07F83FC0
03FC7F80
01FC7F80
01FEFF00
00FEFF00
00FFFE00
007FFC00
007FFC00
003FF800
003FF800
001FF000
001FF000
000FE000
000FE000
000FE000
000FE000
000FE000
000FE000
000FE000
000FE000
000FE000
000FE000
000FE000
000FE000
000FE000
000FE000
ENDCHAR
STARTCHAR 03AC
ENCODING 940
SWIDTH 640 0
DWIDTH 32 0
BBX 29 40 2 0
BITMAP
0007F000
0007F000
0007E000
0007E000
000FC000
000FC000
000F8000
000F8000
001F0000
001F0000
00000000
00000000
007C0000
03FF87E0
07FFCFE0
0FFFEFE0
1FFFFFE0
3FFFFFC0
3FE1FFC0
7FC07FC0
7F803FC0
7F803FC0
7F003FC0
FF001FC0
FF001FC0
FF001FC0
FF001FC0
FF001FC0
FF001FC0
FF001FC0
7F003FC0
7F803FC0
7F803FC0
7FC07FC0
3FFBFFF8
3FFFFFF8
1FFFFFF8
0FFFCFF8
07FF87F8
03FF03F8
ENDCHAR
STARTCHAR 03AD
ENCODING 941
SWIDTH 540 0
DWIDTH 27 0
BBX 24 40 2 0
BITMAP
0007F0
0007F0
0007E0
000FE0
000FC0
000FC0
000F80
001F80
001F00
001E00
000000
000000
007FC0
03FFFC
0FFFFF
1FFFFE
3FFFFE
3FFFFE
7F803C
7F0004
7F0000
3F0000
3FC000
1FFFE0
0FFFE0
03FFE0
0FFFE0
3FFFE0
7FF800
FF0000
FF0000
FE0000
FE0000
FF0003
FFE07F
7FFFFF
7FFFFF
3FFFFF
1FFFFF
07FFF8
ENDCHAR
STARTCHAR 03AE
ENCODING 942
SWIDTH 640 0
DWIDTH 32 0
BBX 25 52 4 -12
BITMAP
000FE000
000FE000
000FC000
000FC000
001F8000
001F8000
001F0000
001F0000
003E0000
003E0000
00000000
00000000
0007C000
FC3FF800
FCFFFC00
FDFFFE00
FFFFFF00
FFFFFF00
FFE1FF80
FF80FF80
FF807F80
FF007F80
FF003F80
FF003F80
FE003F80
FE003F80
FE003F80
FE003F80
FE003F80
FE003F80
FE003F80
FE003F80
FE003F80
FE003F80
FE003F80
FE003F80
FE003F80
FE003F80
FE003F80
FE003F80
00003F80
00003F80
00003F80
00003F80
00003F80
00003F80
00003F80
00003F80
00003F80
00003F80
00003F80
00003F80
ENDCHAR
STARTCHAR 03AF
ENCODING 943
SWIDTH 400 0
DWIDTH 20 0
BBX 15 40 4 0
BITMAP
1FC0
1FC0
1F80
1F80
3F80
3F00
3E00
3E00
7C00
7C00
0000
0000
0000
FE00
FE00
FE00
FE00
FE00
FE00
FE00
FE00
FE00
FE00
FE00
FE00
FE00
FE00
FE00
FE00
FE00
FE00
FE00
FE00
FF00
FFDE
FFFE
7FFE
7FFE
3FFE
0FFE
ENDCHAR
STARTCHAR 03B0
ENCODING 944
SWIDTH 640 0
DWIDTH 32 0
BBX 27 42 3 0
BITMAP
000FE000
000FC000
000FC000
000F8000
021F1000
0F9F7C00
1F9E7E00
1FDC7E00
1FC07E00
0F807E00
07003C00
00000000
00000000
00000000
00000000
FF003F80
FF003F80
FF003FC0
FF003FC0
FF003FC0
FF001FC0
FF001FC0
FF001FC0
FF001FC0
FF001FE0
FF001FE0
FF001FE0
FF001FE0
FF001FE0
FF001FE0
7F001FC0
7F001FC0
7F003FC0
7F003FC0
7F803FC0
7FC07F80
3FFFFF80
3FFFFF00
1FFFFE00
0FFFFC00
07FFF800
01FFE000
ENDCHAR
STARTCHAR 03B1
ENCODING 945
SWIDTH 640 0
DWIDTH 32 0
BBX 29 28 2 0
BITMAP
007C0000
03FF87E0
07FFCFE0
0FFFEFE0
1FFFFFE0
3FFFFFC0
3FE1FFC0
7FC07FC0
7F803FC0
7F803FC0
7F003FC0
FF001FC0
FF001FC0
FF001FC0
FF001FC0
FF001FC0
FF001FC0
FF001FC0
7F003FC0
7F803FC0
7F803FC0
7FC07FC0
3FFBFFF8
3FFFFFF8
1FFFFFF8
0FFFCFF8
07FF87F8
03FF03F8
ENDCHAR
STARTCHAR 03B2
ENCODING 946
SWIDTH 660 0
DWIDTH 33 0
BBX 27 50 4 -12
BITMAP
00FFC000
07FFF800
0FFFFC00
1FFFFE00
3FFFFF00
7FFFFF80
7F80FF80
FF007F80
FF003F80
FF003F80
FE003F80
FE003F80
FE007F80
FE007F00
FE00FF00
FE1FFE00
FE1FFC00
FE1FE000
FE1FF800
FE1FFE00
FE1FFF80
FE01FFC0
FE003FC0
FE001FE0
FE001FE0
FE001FE0
FE000FE0
FE000FE0
FE001FE0
FE001FE0
FE003FE0
FF807FE0
FFFBFFC0
FFFFFFC0
FFFFFF80
FFFFFF00
FFFFFE00
FE7FF800
FE000000
FE000000
FE000000
FE000000
FE000000
FE000000
FE000000
FE000000
FE000000
FE000000
FE000000
FE000000
ENDCHAR
STARTCHAR 03B3
ENCODING 947
SWIDTH 560 0
DWIDTH 28 0
BBX 28 39 0 -12
BITMAP
FF000FF0
7F000FF0
7F800FE0
3F801FE0
3F801FE0
3FC01FC0
1FC03FC0
1FC03F80
1FE03F80
0FE07F80
0FE07F00
07F07F00
07F07F00
07F0FE00
03F8FE00
03F8FC00
01F9FC00
01F9FC00
01FDF800
00FDF800
00FFF800
00FFF000
007FF000
007FE000
003FE000
003FE000
003FC000
003FC000
003FC000
003F8000
007F8000
007F8000
007F8000
007F0000
00FF0000
00FF0000
00FF0000
00FF0000
00FF0000
ENDCHAR
STARTCHAR 03B4
ENCODING 948
SWIDTH 600 0
DWIDTH 30 0
BBX 27 38 2 0
BITMAP
003FF800
01FFFF00
03FFFFC0
07FFFFC0
07FFFF80
0FF87F80
0FF00700
0FE00100
0FE00000
0FF00000
07F80000
07FE0000
03FF0000
01FFC000
00FFF000
003FFC00
01FFFE00
07FFFF00
0FFFFF80
1FF0FF80
3FE07FC0
3FC03FC0
7F803FC0
7F801FE0
FF001FE0
FF001FE0
FF001FE0
FF001FE0
FF001FC0
FF003FC0
7F803FC0
7FC07FC0
7FFFFF80
3FFFFF80
1FFFFF00
0FFFFE00
07FFFC00
01FFE000
ENDCHAR
STARTCHAR 03B5
ENCODING 949
SWIDTH 540 0
DWIDTH 27 0
BBX 24 28 2 0
BITMAP
007FC0
03FFFC
0FFFFF
1FFFFE
3FFFFE
3FFFFE
7F803C
7F0004
7F0000
3F0000
3FC000
1FFFE0
0FFFE0
03FFE0
0FFFE0
3FFFE0
7FF800
FF0000
FF0000
FE0000
FE0000
FF0003
FFE07F
7FFFFF
7FFFFF
3FFFFF
1FFFFF
07FFF8
ENDCHAR
STARTCHAR 03B6
ENCODING 950
SWIDTH 480 0
DWIDTH 24 0
BBX 23 47 2 -9
BITMAP
3FFFFE
3FFFFE
3FFFFE
3FFFFE
3FFFFC
0003F8
000FF0
001FE0
003FC0
007F80
00FF00
01FE00
03FC00
07F800
07F000
0FF000
1FE000
1FC000
3FC000
3F8000
7F8000
7F8000
7F0000
FF0000
FF0000
FF0000
FF0000
FF0000
FF0000
7F8000
7F8000
7FE000
3FFC00
3FFFC0
1FFFF0
07FFF8
01FFFC
007FFC
0003FE
0001FE
0001FE
0001FC
0001FC
0003FC
0003F8
0007F0
000FF0
ENDCHAR
STARTCHAR 03B7
ENCODING 951
SWIDTH 640 0
DWIDTH 32 0
BBX 25 40 4 -12
BITMAP
0007C000
FC3FF800
FCFFFC00
FDFFFE00
FFFFFF00
FFFFFF00
FFE1FF80
FF80FF80
FF807F80
FF007F80
FF003F80
FF003F80
FE003F80
FE003F80
FE003F80
FE003F80
FE003F80
FE003F80
FE003F80
FE003F80
FE003F80
FE003F80
FE003F80
FE003F80
FE003F80
FE003F80
FE003F80
FE003F80
00003F80
00003F80
00003F80
00003F80
00003F80
00003F80
00003F80
00003F80
00003F80
00003F80
00003F80
00003F80
ENDCHAR
STARTCHAR 03B8
ENCODING 952
SWIDTH 600 0
DWIDTH 30 0
BBX 27 38 2 0
BITMAP
007FC000
01FFF000
07FFF800
0FFFFC00
1FFFFE00
1FF1FF00
3FC07F00
3FC07F80
3F803F80
7F803F80
7F803FC0
7F001FC0
7F001FC0
7F001FC0
FF001FC0
FF001FC0
FFFFFFE0
FFFFFFE0
FFFFFFE0
FFFFFFE0
FFFFFFE0
FFFFFFE0
FF001FE0
FF001FC0
7F001FC0
7F001FC0
7F001FC0
7F003FC0
7F803FC0
3F803F80
3F807F80
3FC07F80
1FE0FF00
0FFFFE00
0FFFFE00
07FFFC00
03FFF800
00FFE000
ENDCHAR
STARTCHAR 03B9
ENCODING 953
SWIDTH 400 0
DWIDTH 20 0
BBX 15 27 4 0
BITMAP
FE00
FE00
FE00
FE00
FE00
FE00
FE00
FE00
FE00
FE00
FE00
FE00
FE00
FE00
FE00
FE00
FE00
FE00
FE00
FE00
FF00
FFDE
FFFE
7FFE
7FFE
3FFE
0FFE
ENDCHAR
STARTCHAR 03BA
ENCODING 954
SWIDTH 620 0
DWIDTH 31 0
BBX 27 27 4 0
BITMAP
FE003FC0
FE007F80
FE00FF00
FE01FE00
FE03FC00
FE07F800
FE07F800
FE0FF000
FE1FE000
FE3FC000
FE7F8000
FEFF0000
FEFF0000
FFFF8000
FFFF8000
FFFFC000
FFFFE000
FF9FF000
FF0FF000
FE07F800
FE03FC00
FE03FE00
FE01FF00
FE00FF00
FE007F80
FE007FC0
FE003FE0
ENDCHAR
STARTCHAR 03BB
ENCODING 955
SWIDTH 600 0
DWIDTH 30 0
BBX 31 38 0 0
BITMAP
1FF00000
1FF80000
1FFE0000
1FFE0000
1FFF0000
1FFF8000
00FF8000
003F8000
003FC000
001FC000
001FE000
001FE000
000FE000
001FF000
001FF000
003FF000
003FF800
007FF800
007FF800
00FFFC00
00FFFC00
00FFFE00
01FDFE00
01FCFE00
03FCFF00
03F8FF00
07F87F00
07F07F80
0FF03F80
0FF03FC0
0FE03FC0
1FE01FE0
1FC01FFE
3FC01FFE
3F800FFE
7F800FFE
7F8007FE
FF0003FE
ENDCHAR
STARTCHAR 03BC
ENCODING 956
SWIDTH 660 0
DWIDTH 33 0
BBX 25 39 4 -12
BITMAP
FE003F80
FE003F80
FE003F80
FE003F80
FE003F80
FE003F80
FE003F80
FE003F80
FE003F80
FE003F80
FE003F80
FE003F80
FE003F80
FE003F80
FE003F80
FE007F80
FE007F80
FE007F80
FF007F80
FF00FF80
FF81FF80
FFEFFF80
FFFFFF80
FFFFFF80
FFFF9F80
FFFF9F80
FEFE1F80
FE000000
FE000000
FE000000
FE000000
FE000000
FE000000
FE000000
FE000000
FE000000
FE000000
FE000000
FE000000
ENDCHAR
STARTCHAR 03BD
ENCODING 957
SWIDTH 580 0
DWIDTH 29 0
BBX 28 27 0 0
BITMAP
FF000FF0
7F000FF0
7F800FF0
3F800FF0
3F800FF0
3FC00FF0
1FC00FE0
1FE00FE0
1FE00FE0
0FE00FE0
0FF01FE0
07F01FC0
07F01FC0
07F81FC0
03F83FC0
03F83F80
03FC7F80
01FC7F00
01FCFF00
00FEFE00
00FFFC00
00FFFC00
007FF800
007FF000
007FE000
003FE000
003FC000
ENDCHAR
STARTCHAR 03BE
ENCODING 958
SWIDTH 480 0
DWIDTH 24 0
BBX 23 47 2 -9
BITMAP
3FFFF8
3FFFF8
3FFFF8
3FFFF8
3FFFF8
00FF00
07F800
0FE000
1FC000
3FC000
3F8000
3F8000
3F8000
3FC000
3FE000
1FFC00
0FFFF0
03FFF0
01FFF0
07FFF0
1FFFF0
3FE000
3FC000
7F8000
7F0000
FF0000
FF0000
FF0000
FF0000
FF0000
7F8000
7FE000
3FFC00
3FFFC0
1FFFF0
07FFF8
03FFFC
007FFC
0003FE
0001FE
0001FE
0001FC
0001FC
0003FC
0003F8
0007F0
000FF0
ENDCHAR
STARTCHAR 03BF
ENCODING 959
SWIDTH 600 0
DWIDTH 30 0
BBX 27 28 2 0
BITMAP
001F0000
01FFF000
07FFF800
0FFFFE00
1FFFFF00
3FFFFF00
3FF1FF80
7FC07F80
7F803FC0
7F803FC0
7F001FC0
FF001FE0
FF001FE0
FF001FE0
FF001FE0
FF001FE0
FF001FE0
FF001FE0
7F001FC0
7F803FC0
7F803FC0
3FC07F80
3FFFFF80
1FFFFF00
0FFFFE00
07FFFC00
03FFF800
00FFE000
ENDCHAR
STARTCHAR 03C0
ENCODING 960
SWIDTH 720 0
DWIDTH 36 0
BBX 34 27 1 0
BITMAP
1FFFFFFFC0
7FFFFFFFC0
FFFFFFFFC0
FFFFFFFFC0
FFFFFFFFC0
07F807F000
07F807F000
07F807F000
07F807F000
07F807F000
07F807F000
07F807F000
07F807F000
07F807F000
07F807F000
07F807F000
07F807F000
07F807F000
07F807F000
07F807F000
07F807F800
07F807FCC0
07F807FFC0
07F803FFC0
07F803FFC0
07F801FFC0
07F800FF80
ENDCHAR
STARTCHAR 03C1
ENCODING 961
SWIDTH 600 0
DWIDTH 30 0
BBX 26 40 3 -12
BITMAP
003F0000
01FFE000
07FFF000
0FFFFC00
1FFFFE00
3FFFFE00
3FE3FF00
7F80FF00
7F007F80
FF007F80
FF003F80
FF003F80
FE003FC0
FE003FC0
FE003FC0
FE003FC0
FE003FC0
FE003F80
FE003F80
FE007F80
FF007F80
FF80FF80
FFFFFF00
FFFFFF00
FFFFFE00
FFFFFC00
FFFFF800
FE7FE000
FE000000
FE000000
FE000000
FE000000
FE000000
FE000000
FE000000
FE000000
FE000000
FE000000
FE000000
FE000000
ENDCHAR
STARTCHAR 03C2
ENCODING 962
SWIDTH 480 0
DWIDTH 24 0
BBX 23 37 2 -9
BITMAP
001F80
01FFF8
07FFFC
0FFFFC
1FFFFC
3FFFF8
3FF0F8
7FC008
7F8000
7F8000
7F0000
7F0000
FF0000
FF0000
FF0000
FF0000
FF0000
FF0000
FF0000
7F8000
7FC000
3FF800
3FFF80
1FFFE0
0FFFF8
03FFFC
00FFFC
000FFE
0001FE
0001FE
0001FC
0001FC
0001FC
0003F8
0003F8
0007F0
000FF0
ENDCHAR
STARTCHAR 03C3
ENCODING 963
SWIDTH 640 0
DWIDTH 32 0
BBX 30 27 2 0
BITMAP
007FFFFC
01FFFFFC
07FFFFFC
0FFFFFFC
1FFFFFFC
3FF07E00
3FC07F00
7F803F80
7F803F80
7F001FC0
FF001FC0
FF001FE0
FF001FE0
FF001FE0
FF001FE0
FF001FE0
FF001FE0
7F001FE0
7F801FE0
7F803FC0
3FC07FC0
3FFFFFC0
1FFFFF80
1FFFFF00
0FFFFE00
03FFFC00
00FFF000
ENDCHAR
STARTCHAR 03C4
ENCODING 964
SWIDTH 520 0
DWIDTH 26 0
BBX 24 27 1 0
BITMAP
1FFFFF
7FFFFF
FFFFFF
FFFFFF
FFFFFF
01FC00
01FC00
01FC00
01FC00
01FC00
01FC00
01FC00
01FC00
01FC00
01FC00
01FC00
01FC00
01FC00
01FC00
01FC00
01FE00
01FFBC
01FFFC
00FFFC
00FFFC
007FFC
001FFC
ENDCHAR
STARTCHAR 03C5
ENCODING 965
SWIDTH 640 0
DWIDTH 32 0
BBX 27 27 3 0
BITMAP
FF003F80
FF003F80
FF003FC0
FF003FC0
FF003FC0
FF001FC0
FF001FC0
FF001FC0
FF001FC0
FF001FE0
FF001FE0
FF001FE0
FF001FE0
FF001FE0
FF001FE0
7F001FC0
7F001FC0
7F003FC0
7F003FC0
7F803FC0
7FC07F80
3FFFFF80
3FFFFF00
1FFFFE00
0FFFFC00
07FFF800
01FFE000
ENDCHAR
STARTCHAR 03C6
ENCODING 966
SWIDTH 780 0
DWIDTH 39 0
BBX 35 40 2 -12
BITMAP
0000078000
07003FF800
0F807FFE00
1FE0FFFF00
1FE1FFFF80
3FC1FFFF80
3F83FC3FC0
7F83F81FC0
7F03F81FE0
7F03F80FE0
7F03F80FE0
FF03F80FE0
FE03F80FE0
FE03F80FE0
FE03F80FE0
FE03F80FE0
FE03F80FE0
FF03F80FE0
7F03F81FE0
7F83F83FC0
7F83F83FC0
3FE3F8FF80
3FFBFFFF00
1FFFFFFF00
0FFFFFFC00
07FFFFF800
01FFFFE000
003FFF8000
0003F80000
0003F80000
0003F80000
0003F80000
0003F80000
0003F80000
0003F80000
0003F80000
0003F80000
0003F80000
0003F80000
0003F80000
ENDCHAR
STARTCHAR 03C7
ENCODING 967
SWIDTH 580 0
DWIDTH 29 0
BBX 31 40 -1 -12
BITMAP
07800000
3FE001FC
3FF003FC
3FF803F8
3FFC07F8
3FFC07F0
3FFC0FE0
01FE0FE0
00FE1FC0
007F3FC0
007F3F80
007F7F00
003FFF00
003FFE00
001FFE00
001FFC00
001FF800
000FF800
000FF000
001FF000
001FF000
003FF800
003FF800
007FFC00
007FFC00
00FEFC00
01FEFE00
01FCFE00
03FC7F00
03F87F00
07F87F00
07F03F80
0FF03F80
1FE03FE0
1FE01FFE
3FC01FFE
3FC00FFE
7F800FFE
7F8007FE
FF0001FC
ENDCHAR
STARTCHAR 03C8
ENCODING 968
SWIDTH 820 0
DWIDTH 41 0
BBX 36 50 3 -12
BITMAP
0001FC0000
0001FC0000
0001FC0000
0001FC0000
0001FC0000
0001FC0000
0001FC0000
0001FC0000
0001FC0000
0001FC0000
0001FC0000
FF01FC0FE0
FF01FC0FE0
FF01FC0FE0
FF01FC0FE0
FF01FC0FE0
FF01FC07F0
FF01FC07F0
FF01FC07F0
FF01FC07F0
FF01FC07F0
FF01FC07F0
FF01FC07F0
FF01FC07F0
FF01FC07F0
FF01FC07F0
7F01FC07F0
7F01FC07F0
7F01FC07F0
7F01FC0FE0
7F81FC1FE0
3FC1FC3FE0
3FF9FDFFC0
1FFFFFFF80
0FFFFFFF00
07FFFFFE00
03FFFFFC00
007FFFE000
0001FC0000
0001FC0000
0001FC0000
0001FC0000
0001FC0000
0001FC0000
0001FC0000
0001FC0000
0001FC0000
0001FC0000
0001FC0000
0001FC0000
ENDCHAR
STARTCHAR 03C9
ENCODING 969
SWIDTH 860 0
DWIDTH 43 0
BBX 37 27 3 0
BITMAP
3F80000FE0
3F80000FE0
7F000007F0
7F000007F0
7F000007F0
7E000003F8
FE000003F8
FE000003F8
FE01FC03F8
FE01FC03F8
FE01FC03F8
FE01FC01F8
FE01FC01F8
FE01FC01F8
FE01FC01F8
FE01FC01F8
FE01FC03F8
FE01FC03F8
FE01FC03F8
FF01FE07F8
7F03FE07F0
7FC7FF9FF0
3FFFDFFFE0
3FFFDFFFE0
1FFF8FFFC0
0FFF07FF80
03FE03FE00
ENDCHAR
STARTCHAR 03CA
ENCODING 970
SWIDTH 400 0
DWIDTH 20 0
BBX 19 38 0 0
BITMAP
300C00
FC3F00
FC3F00
FC7F00
FC3F00
FC3F00
781E00
000000
000000
000000
000000
0FE000
0FE000
0FE000
0FE000
0FE000
0FE000
0FE000
0FE000
0FE000
0FE000
0FE000
0FE000
0FE000
0FE000
0FE000
0FE000
0FE000
0FE000
0FE000
0FE000
0FF000
0FFDE0
0FFFE0
07FFE0
07FFE0
03FFE0
00FFE0
ENDCHAR
STARTCHAR 03CB
ENCODING 971
SWIDTH 640 0
DWIDTH 32 0
BBX 27 38 3 0
BITMAP
01004000
07E1F000
07E3F800
0FE3F800
0FE3F800
07E1F800
03C0F000
00000000
00000000
00000000
00000000
FF003F80
FF003F80
FF003FC0
FF003FC0
FF003FC0
FF001FC0
FF001FC0
FF001FC0
FF001FC0
FF001FE0
FF001FE0
FF001FE0
FF001FE0
FF001FE0
FF001FE0
7F001FC0
7F001FC0
7F003FC0
7F003FC0
7F803FC0
7FC07F80
3FFFFF80
3FFFFF00
1FFFFE00
0FFFFC00
07FFF800
01FFE000
ENDCHAR
STARTCHAR 03CC
ENCODING 972
SWIDTH 600 0
DWIDTH 30 0
BBX 27 40 2 0
BITMAP
0007F000
0007E000
000FE000
000FC000
000FC000
000F8000
001F8000
001F0000
001F0000
001E0000
00000000
00000000
001F0000
01FFF000
07FFF800
0FFFFE00
1FFFFF00
3FFFFF00
3FF1FF80
7FC07F80
7F803FC0
7F803FC0
7F001FC0
FF001FE0
FF001FE0
FF001FE0
FF001FE0
FF001FE0
FF001FE0
FF001FE0
7F001FC0
7F803FC0
7F803FC0
3FC07F80
3FFFFF80
1FFFFF00
0FFFFE00
07FFFC00
03FFF800
00FFE000
ENDCHAR
STARTCHAR 03CD
ENCODING 973
SWIDTH 640 0
DWIDTH 32 0
BBX 27 40 3 0
BITMAP
000FE000
000FE000
000FC000
001FC000
001F8000
001F8000
001F0000
003F0000
003E0000
003E0000
00000000
00000000
00000000
FF003F80
FF003F80
FF003FC0
FF003FC0
FF003FC0
FF001FC0
FF001FC0
FF001FC0
FF001FC0
FF001FE0
FF001FE0
FF001FE0
FF001FE0
FF001FE0
FF001FE0
7F001FC0
7F001FC0
7F003FC0
7F003FC0
7F803FC0
7FC07F80
3FFFFF80
3FFFFF00
1FFFFE00
0FFFFC00
07FFF800
01FFE000
ENDCHAR
STARTCHAR 03CE
ENCODING 974
SWIDTH 860 0
DWIDTH 43 0
BBX 37 40 3 0
BITMAP
00003F8000
00003F8000
00003F0000
00007F0000
00007E0000
00007E0000
00007C0000
0000FC0000
0000F80000
0000F80000
0000000000
0000000000
0000000000
3F80000FE0
3F80000FE0
7F000007F0
7F000007F0
7F000007F0
7E000003F8
FE000003F8
FE000003F8
FE01FC03F8
FE01FC03F8
FE01FC03F8
FE01FC01F8
FE01FC01F8
FE01FC01F8
FE01FC01F8
FE01FC01F8
FE01FC03F8
FE01FC03F8
FE01FC03F8
FF01FE07F8
7F03FE07F0
7FC7FF9FF0
3FFFDFFFE0
3FFFDFFFE0
1FFF8FFFC0
0FFF07FF80
03FE03FE00
ENDCHAR
STARTCHAR 03D1
ENCODING 977
SWIDTH 720 0
DWIDTH 36 0
BBX 34 38 1 0
BITMAP
000FFC0000
003FFF0000
007FFF8000
00FFFFC000
01FFFFE000
01FF3FF000
03FC0FF000
03FC07F800
03FC03F800
03FC03FC00
01FC03FC00
01FE01FC00
01FF81FC00
00FFF1FC00
007FFFFFC0
003FFFFFC0
001FFFFFC0
0007FFFFC0
0FC1FFFFC0
7FE003FE00
FFF001FE00
7FF001FE00
7FF001FE00
7FF001FE00
07F001FE00
07F001FE00
07F001FE00
07F001FC00
07F003FC00
07F003FC00
07F007F800
07F80FF800
07FE3FF000
03FFFFF000
03FFFFE000
01FFFFC000
00FFFF0000
003FFC0000
ENDCHAR
STARTCHAR 03D2
ENCODING 978
SWIDTH 620 0
DWIDTH 31 0
BBX 31 36 0 0
BITMAP
FF00007E
7F8001FE
7F8003FE
3FC007FE
3FC007FE
1FE00FFE
1FE00FF0
0FF01FE0
0FF01FC0
07F83FC0
07F83F80
03FC7F80
01FC7F00
01FEFF00
00FEFE00
00FFFE00
007FFC00
007FFC00
003FF800
003FF800
001FF000
001FF000
000FE000
000FE000
000FE000
000FE000
000FE000
000FE000
000FE000
000FE000
000FE000
000FE000
000FE000
000FE000
000FE000
000FE000
ENDCHAR
STARTCHAR 03D6
ENCODING 982
SWIDTH 980 0
DWIDTH 49 0
BBX 48 27 1 0
BITMAP
1FFFFFFFFFFF
7FFFFFFFFFFF
FFFFFFFFFFFF
FFFFFFFFFFFF
FFFFFFFFFFFF
01F800001F80
03F800001FC0
03F800001FC0
03F800001FC0
03F000000FC0
07F000000FE0
07F000000FE0
07F007E00FE0
07F007E00FE0
07F007E00FE0
07F007E00FE0
07F007E00FE0
07F00FF00FE0
07F00FF00FE0
03F80FF01FC0
03FC0FF81FC0
03FF3FFCFFC0
01FFFFFFFF80
01FFFE7FFF80
00FFFE7FFF00
007FFC3FFE00
001FF00FF800
ENDCHAR
STARTCHAR 0400
ENCODING 1024
SWIDTH 560 0
DWIDTH 28 0
BBX 21 47 4 0
BITMAP
7FC000
3FE000
1FE000
0FF000
03F800
01FC00
00FE00
003E00
000000
000000
000000
FFFFF8
FFFFF8
FFFFF8
FFFFF8
FFFFF8
FFFFF8
FFFFF8
FF0000
FF0000
FF0000
FF0000
FF0000
FF0000
FF0000
FFFFF0
FFFFF0
FFFFF0
FFFFF0
FFFFF0
FFFFF0
FFFFF0
FF0000
FF0000
FF0000
FF0000
FF0000
FF0000
FF0000
FF0000
FF0000
FFFFF8
FFFFF8
FFFFF8
FFFFF8
FFFFF8
FFFFF8
ENDCHAR
STARTCHAR 0401
ENCODING 1025
SWIDTH 560 0
DWIDTH 28 0
BBX 21 46 4 0
BITMAP
0F03C0
1F87E0
1F87E0
1F87E0
1F87E0
1F87E0
040080
000000
000000
000000
FFFFF8
FFFFF8
FFFFF8
FFFFF8
FFFFF8
FFFFF8
FFFFF8
FF0000
FF0000
FF0000
FF0000
FF0000
FF0000
FF0000
FFFFF0
FFFFF0
FFFFF0
FFFFF0
FFFFF0
FFFFF0
FFFFF0
FF0000
FF0000
FF0000
FF0000
FF0000
FF0000
FF0000
FF0000
FF0000
FFFFF8
FFFFF8
FFFFF8
FFFFF8
FFFFF8
FFFFF8
ENDCHAR
STARTCHAR 0402
ENCODING 1026
SWIDTH 800 0
DWIDTH 40 0
BBX 37 36 1 0
BITMAP
FFFFFFE000
FFFFFFE000
FFFFFFE000
FFFFFFE000
FFFFFFE000
FFFFFFE000
FFFFFFE000
007F800000
007F800000
007F800000
007F800000
007F800000
007F800000
007FFFF000
007FFFFF00
007FFFFF80
007FFFFFC0
007FFFFFE0
007FFFFFF0
007FFFFFF0
007F800FF0
007F8007F8
007F8007F8
007F8007F8
007F8007F8
007F8007F8
007F8007F8
007F8007F8
007F8007F0
007F800FF0
007F83FFF0
007F83FFF0
007F83FFE0
007F83FFC0
007F83FF80
007F83FF00
ENDCHAR
STARTCHAR 0403
ENCODING 1027
SWIDTH 560 0
DWIDTH 28 0
BBX 23 47 4 0
BITMAP
0007FC
0007F8
000FF0
001FE0
003FC0
003F00
007E00
00FC00
000000
000000
000000
FFFFFE
FFFFFE
FFFFFE
FFFFFE
FFFFFE
FFFFFE
FFFFFE
FF0000
FF0000
FF0000
FF0000
FF0000
FF0000
FF0000
FF0000
FF0000
FF0000
FF0000
FF0000
FF0000
FF0000
FF0000
FF0000
FF0000
FF0000
FF0000
FF0000
FF0000
FF0000
FF0000
FF0000
FF0000
FF0000
FF0000
FF0000
FF0000
ENDCHAR
STARTCHAR 0404
ENCODING 1028
SWIDTH 660 0
DWIDTH 33 0
BBX 29 36 3 0
BITMAP
000FFF00
007FFFE0
01FFFFF8
03FFFFF8
07FFFFF0
0FFFFFF0
1FFE07E0
1FF000E0
3FE00000
3FC00000
7F800000
7F800000
7F000000
FF000000
FF000000
FFFFFE00
FFFFFE00
FFFFFE00
FFFFFE00
FFFFFE00
FFFFFE00
FF000000
FF000000
FF000000
7F000000
7F800000
7F800000
3FC00000
3FE00010
1FF801F0
1FFFFFF0
0FFFFFF0
07FFFFF0
03FFFFF0
00FFFFF0
003FFF80
ENDCHAR
STARTCHAR 0405
ENCODING 1029
SWIDTH 540 0
DWIDTH 27 0
BBX 24 36 2 0
BITMAP
00FFC0
07FFF8
0FFFFE
1FFFFE
3FFFFC
3FFFFC
7FC0FC
7F8018
7F0000
7F0000
7F0000
7F8000
7FC000
7FE000
3FF800
3FFE00
1FFF80
0FFFE0
07FFF0
01FFF8
007FFC
001FFE
0007FE
0003FE
0001FE
0000FF
0000FF
8000FE
E000FE
FC03FE
FFFFFE
FFFFFC
FFFFF8
FFFFF0
7FFFE0
1FFF80
ENDCHAR
STARTCHAR 0406
ENCODING 1030
SWIDTH 320 0
DWIDTH 16 0
BBX 8 36 4 0
BITMAP
FF
FF
FF
FF
FF
FF
FF
FF
FF
FF
FF
FF
FF
FF
FF
FF
FF
FF
FF
FF
FF
FF
FF
FF
FF
FF
FF
FF
FF
FF
FF
FF
FF
FF
FF
FF
ENDCHAR
STARTCHAR 0407
ENCODING 1031
SWIDTH 320 0
DWIDTH 16 0
BBX 17 46 0 0
BITMAP
781E00
FC3F00
FE3F80
FE3F80
FE3F00
7C1F00
100800
000000
000000
000000
0FF000
0FF000
0FF000
0FF000
0FF000
0FF000
0FF000
0FF000
0FF000
0FF000
0FF000
0FF000
0FF000
0FF000
0FF000
0FF000
0FF000
0FF000
0FF000
0FF000
0FF000
0FF000
0FF000
0FF000
0FF000
0FF000
0FF000
0FF000
0FF000
0FF000
0FF000
0FF000
0FF000
0FF000
0FF000
0FF000
ENDCHAR
STARTCHAR 0408
ENCODING 1032
SWIDTH 320 0
DWIDTH 16 0
BBX 16 47 -4 -11
BITMAP
00FF
00FF
00FF
00FF
00FF
00FF
00FF
00FF
00FF
00FF
00FF
00FF
00FF
00FF
00FF
00FF
00FF
00FF
00FF
00FF
00FF
00FF
00FF
00FF
00FF
00FF
00FF
00FF
00FF
00FF
00FF
00FF
00FF
00FF
00FF
00FF
00FF
00FF
01FF
03FE
FFFE
FFFC
FFFC
FFF8
FFF0
FFC0
0800
ENDCHAR
STARTCHAR 0409
ENCODING 1033
SWIDTH 980 0
DWIDTH 49 0
BBX 48 36 0 0
BITMAP
003FFFFE0000
003FFFFE0000
003FFFFE0000
003FFFFE0000
003FFFFE0000
003FFFFE0000
007FFFFE0000
007F00FE0000
007F00FE0000
007F00FE0000
007F00FE0000
007F00FE0000
007F00FE0000
00FF00FE0000
00FE00FFFE00
00FE00FFFFC0
00FE00FFFFF0
00FE00FFFFF8
00FE00FFFFFC
01FE00FFFFFC
01FE00FE0FFE
01FC00FE01FE
01FC00FE00FE
01FC00FE00FF
01FC00FE00FF
03FC00FE00FF
03FC00FE00FF
03F800FE01FE
07F800FE01FE
07F800FE0FFE
FFF000FFFFFC
FFF000FFFFFC
FFF000FFFFF8
FFE000FFFFF0
FFC000FFFFC0
FF8000FFFE00
ENDCHAR
STARTCHAR 040A
ENCODING 1034
SWIDTH 1000 0
DWIDTH 50 0
BBX 44 36 4 0
BITMAP
FF000FE00000
FF000FE00000
FF000FE00000
FF000FE00000
FF000FE00000
FF000FE00000
FF000FE00000
FF000FE00000
FF000FE00000
FF000FE00000
FF000FE00000
FF000FE00000
FF000FE00000
FF000FE00000
FFFFFFFFE000
FFFFFFFFFC00
FFFFFFFFFF00
FFFFFFFFFF80
FFFFFFFFFFC0
FFFFFFFFFFE0
FFFFFFE0FFE0
FF000FE01FE0
FF000FE00FF0
FF000FE00FF0
FF000FE00FF0
FF000FE00FF0
FF000FE00FF0
FF000FE00FF0
FF000FE01FE0
FF000FE0FFE0
FF000FFFFFE0
FF000FFFFFC0
FF000FFFFF80
FF000FFFFF00
FF000FFFFC00
FF000FFFE000
ENDCHAR
STARTCHAR 040B
ENCODING 1035
SWIDTH 800 0
DWIDTH 40 0
BBX 37 36 1 0
BITMAP
FFFFFFE000
FFFFFFE000
FFFFFFE000
FFFFFFE000
FFFFFFE000
FFFFFFE000
FFFFFFE000
007F800000
007F800000
007F800000
007F800000
007F800000
007F800000
007FFFF800
007FFFFF00
007FFFFF80
007FFFFFC0
007FFFFFE0
007FFFFFF0
007FFFFFF0
007F800FF0
007F8007F8
007F8007F8
007F8007F8
007F8007F8
007F8007F8
007F8007F8
007F8007F8
007F8007F8
007F8007F8
007F8007F8
007F8007F8
007F8007F8
007F8007F8
007F8007F8
007F8007F8
ENDCHAR
STARTCHAR 040C
ENCODING 1036
SWIDTH 660 0
DWIDTH 33 0
BBX 29 47 4 0
BITMAP
0001FF00
0001FE00
0003FC00
0007F800
000FF000
000FC000
001F8000
003F0000
00000000
00000000
00000000
FF0007F8
FF000FF0
FF001FE0
FF003FE0
FF003FC0
FF007F80
FF00FF00
FF00FE00
FF01FE00
FF03FC00
FF07F800
FF07F000
FF0FF000
FF1FE000
FF3FC000
FF3F8000
FF7F8000
FFFF0000
FFFF8000
FF7F8000
FF3FC000
FF1FE000
FF1FF000
FF0FF000
FF07F800
FF07FC00
FF03FE00
FF01FE00
FF00FF00
FF00FF80
FF007FC0
FF003FC0
FF003FE0
FF001FF0
FF000FF0
FF0007F8
ENDCHAR
STARTCHAR 040D
ENCODING 1037
SWIDTH 820 0
DWIDTH 41 0
BBX 33 47 4 0
BITMAP
00FF000000
00FF800000
007FC00000
001FC00000
000FE00000
0007F00000
0003F80000
0000FC0000
0000000000
0000000000
0000000000
FE0001FF80
FE0001FF80
FE0003FF80
FE0003FF80
FE0007FF80
FE000FFF80
FE000FFF80
FE001FFF80
FE001FFF80
FE003FFF80
FE007FBF80
FE007F3F80
FE00FF3F80
FE00FE3F80
FE01FE3F80
FE03FC3F80
FE03F83F80
FE07F83F80
FE07F03F80
FE0FF03F80
FE1FE03F80
FE1FC03F80
FE3FC03F80
FE7F803F80
FE7F803F80
FEFF003F80
FEFE003F80
FFFE003F80
FFFC003F80
FFFC003F80
FFF8003F80
FFF0003F80
FFF0003F80
FFE0003F80
FFE0003F80
FFC0003F80
ENDCHAR
STARTCHAR 040E
ENCODING 1038
SWIDTH 660 0
DWIDTH 33 0
BBX 32 47 1 0
BITMAP
0FE007F0
07E007F0
07F00FE0
07F81FE0
03FFFFC0
03FFFF80
00FFFF00
003FFC00
00000000
00000000
00000000
FF0000FF
FF0000FF
7F0001FE
7F8001FE
7F8001FC
3FC003FC
3FC003F8
1FE007F8
1FE007F8
0FE007F0
0FF00FF0
07F00FE0
07F81FE0
03F81FC0
03FC3FC0
01FC3FC0
01FC3F80
00FE7F80
00FE7F00
007FFF00
007FFE00
003FFE00
003FFC00
001FFC00
001FFC00
000FF800
000FF800
001FF000
003FF000
407FE000
7FFFE000
7FFFC000
7FFF8000
7FFF0000
7FFE0000
7FF80000
ENDCHAR
STARTCHAR 040F
ENCODING 1039
SWIDTH 740 0
DWIDTH 37 0
BBX 29 46 4 -10
BITMAP
FF0007F8
FF0007F8
FF0007F8
FF0007F8
FF0007F8
FF0007F8
FF0007F8
FF0007F8
FF0007F8
FF0007F8
FF0007F8
FF0007F8
FF0007F8
FF0007F8
FF0007F8
FF0007F8
FF0007F8
FF0007F8
FF0007F8
FF0007F8
FF0007F8
FF0007F8
FF0007F8
FF0007F8
FF0007F8
FF0007F8
FF0007F8
FF0007F8
FF0007F8
FF0007F8
FFFFFFF8
FFFFFFF8
FFFFFFF8
FFFFFFF8
FFFFFFF8
FFFFFFF8
001FC000
001FC000
001FC000
001FC000
001FC000
001FC000
001FC000
001FC000
001FC000
001FC000
ENDCHAR
STARTCHAR 0410
ENCODING 1040
SWIDTH 680 0
DWIDTH 34 0
BBX 34 36 0 0
BITMAP
000FFC0000
000FFC0000
000FFE0000
001FFE0000
001FFE0000
001FFF0000
003FFF0000
003FBF0000
003F3F8000
007F3F8000
007F1FC000
007F1FC000
00FE1FC000
00FE0FE000
00FE0FE000
01FC0FE000
01FC0FF000
03FC07F000
03F807F000
03F807F800
07F803F800
07FFFFF800
07FFFFFC00
0FFFFFFC00
0FFFFFFC00
0FFFFFFE00
1FFFFFFE00
1FFFFFFF00
1FC000FF00
3FC000FF00
3FC0007F80
3FC0007F80
7F80007F80
7F80003FC0
7F80003FC0
FF00003FC0
ENDCHAR
STARTCHAR 0411
ENCODING 1041
SWIDTH 620 0
DWIDTH 31 0
BBX 26 36 4 0
BITMAP
FFFFFE00
FFFFFE00
FFFFFE00
FFFFFE00
FFFFFE00
FFFFFE00
FFFFFE00
FF000000
FF000000
FF000000
FF000000
FF000000
FF000000
FF000000
FFFF0000
FFFFF000
FFFFF800
FFFFFE00
FFFFFF00
FFFFFF00
FF07FF80
FF007F80
FF007F80
FF003FC0
FF003FC0
FF003FC0
FF003FC0
FF007F80
FF00FF80
FF03FF80
FFFFFF00
FFFFFF00
FFFFFE00
FFFFFC00
FFFFF000
FFFF0000
ENDCHAR
STARTCHAR 0412
ENCODING 1042
SWIDTH 660 0
DWIDTH 33 0
BBX 27 36 4 0
BITMAP
FFFE0000
FFFFF800
FFFFFE00
FFFFFF00
FFFFFF80
FFFFFF80
FFFFFFC0
FF007FC0
FF003FC0
FF003FC0
FF003FC0
FF003FC0
FF003FC0
FF007F80
FFFFFF80
FFFFFF00
FFFFFC00
FFFFF800
FFFFFF00
FFFFFF80
FF07FFC0
FF007FC0
FF003FE0
FF001FE0
FF001FE0
FF001FE0
FF001FE0
FF003FE0
FF003FE0
FF01FFC0
FFFFFFC0
FFFFFF80
FFFFFF00
FFFFFE00
FFFFF800
FFFFC000
ENDCHAR
STARTCHAR 0413
ENCODING 1043
SWIDTH 560 0
DWIDTH 28 0
BBX 23 36 4 0
BITMAP
FFFFFE
FFFFFE
FFFFFE
FFFFFE
FFFFFE
FFFFFE
FFFFFE
FF0000
FF0000
FF0000
FF0000
FF0000
FF0000
FF0000
FF0000
FF0000
FF0000
FF0000
FF0000
FF0000
FF0000
FF0000
FF0000
FF0000
FF0000
FF0000
FF0000
FF0000
FF0000
FF0000
FF0000
FF0000
FF0000
FF0000
FF0000
FF0000
ENDCHAR
STARTCHAR 0414
ENCODING 1044
SWIDTH 760 0
DWIDTH 38 0
BBX 37 46 0 -10
BITMAP
000FFFFF00
001FFFFF00
001FFFFF00
001FFFFF00
001FFFFF00
001FFFFF00
001FFFFF00
003FC07F00
003F807F00
003F807F00
003F807F00
003F807F00
007F807F00
007F007F00
007F007F00
007F007F00
00FF007F00
00FE007F00
00FE007F00
01FE007F00
01FC007F00
01FC007F00
03FC007F00
03F8007F00
07F8007F00
07F8007F00
0FF0007F00
0FF0007F00
0FF0007F00
1FE0007F00
FFFFFFFFF8
FFFFFFFFF8
FFFFFFFFF8
FFFFFFFFF8
FFFFFFFFF8
FFFFFFFFF8
FF000003F8
FF000003F8
FF000003F8
FF000003F8
FF000003F8
FF000003F8
FF000003F8
FF000003F8
FF000003F8
FF000003F8
ENDCHAR
STARTCHAR 0415
ENCODING 1045
SWIDTH 560 0
DWIDTH 28 0
BBX 21 36 4 0
BITMAP
FFFFF8
FFFFF8
FFFFF8
FFFFF8
FFFFF8
FFFFF8
FFFFF8
FF0000
FF0000
FF0000
FF0000
FF0000
FF0000
FF0000
FFFFF0
FFFFF0
FFFFF0
FFFFF0
FFFFF0
FFFFF0
FFFFF0
FF0000
FF0000
FF0000
FF0000
FF0000
FF0000
FF0000
FF0000
FF0000
FFFFF8
FFFFF8
FFFFF8
FFFFF8
FFFFF8
FFFFF8
ENDCHAR
STARTCHAR 0416
ENCODING 1046
SWIDTH 940 0
DWIDTH 47 0
BBX 47 36 0 0
BITMAP
7F800FE003FC
3F800FE003FC
3FC00FE007F8
1FE00FE00FF0
0FE00FE00FF0
0FF00FE01FE0
07F80FE03FC0
03F80FE03F80
03FC0FE07F80
01FE0FE0FF00
00FE0FE0FE00
007F0FE1FE00
007F8FE3FC00
003F8FE3F800
001FCFE7F800
001FEFEFF000
000FEFEFE000
0007FFFFE000
000FFFFFE000
001FEFEFF000
001FCFE7F800
003FCFE7F800
007F8FE3FC00
007F0FE1FE00
00FF0FE1FE00
01FE0FE0FF00
03FC0FE07F80
03FC0FE07F80
07F80FE03FC0
0FF00FE01FE0
0FF00FE01FE0
1FE00FE00FF0
3FC00FE007F8
3FC00FE007F8
7F800FE003FC
FF000FE001FE
ENDCHAR
STARTCHAR 0417
ENCODING 1047
SWIDTH 640 0
DWIDTH 32 0
BBX 27 36 3 0
BITMAP
01FFE000
0FFFF800
7FFFFE00
FFFFFF00
FFFFFF80
FFFFFF80
7F00FFC0
38003FC0
20001FC0
00001FC0
00001FC0
00003FC0
00003F80
0000FF80
07FFFF00
07FFFC00
07FFF000
07FFC000
07FFFC00
07FFFF00
003FFF80
0000FFC0
00003FE0
00001FE0
00000FE0
00000FE0
00000FE0
00001FE0
00003FE0
E0007FE0
FFCFFFC0
FFFFFF80
FFFFFF80
FFFFFE00
FFFFFC00
3FFFF000
ENDCHAR
STARTCHAR 0418
ENCODING 1048
SWIDTH 820 0
DWIDTH 41 0
BBX 33 36 4 0
BITMAP
FE0001FF80
FE0001FF80
FE0003FF80
FE0003FF80
FE0007FF80
FE000FFF80
FE000FFF80
FE001FFF80
FE001FFF80
FE003FFF80
FE007FBF80
FE007F3F80
FE00FF3F80
FE00FE3F80
FE01FE3F80
FE03FC3F80
FE03F83F80
FE07F83F80
FE07F03F80
FE0FF03F80
FE1FE03F80
FE1FC03F80
FE3FC03F80
FE7F803F80
FE7F803F80
FEFF003F80
FEFE003F80
FFFE003F80
FFFC003F80
FFFC003F80
FFF8003F80
FFF0003F80
FFF0003F80
FFE0003F80
FFE0003F80
FFC0003F80
ENDCHAR
STARTCHAR 0419
ENCODING 1049
SWIDTH 820 0
DWIDTH 41 0
BBX 33 47 4 0
BITMAP
03F003F800
03F803F800
03F807F800
03FC0FF000
01FFFFF000
00FFFFE000
007FFF8000
001FFE0000
0000000000
0000000000
0000000000
FE0001FF80
FE0001FF80
FE0003FF80
FE0003FF80
FE0007FF80
FE000FFF80
FE000FFF80
FE001FFF80
FE001FFF80
FE003FFF80
FE007FBF80
FE007F3F80
FE00FF3F80
FE00FE3F80
FE01FE3F80
FE03FC3F80
FE03F83F80
FE07F83F80
FE07F03F80
FE0FF03F80
FE1FE03F80
FE1FC03F80
FE3FC03F80
FE7F803F80
FE7F803F80
FEFF003F80
FEFE003F80
FFFE003F80
FFFC003F80
FFFC003F80
FFF8003F80
FFF0003F80
FFF0003F80
FFE0003F80
FFE0003F80
FFC0003F80
ENDCHAR
STARTCHAR 041A
ENCODING 1050
SWIDTH 660 0
DWIDTH 33 0
BBX 29 36 4 0
BITMAP
FF0007F8
FF000FF0
FF001FE0
FF003FE0
FF003FC0
FF007F80
FF00FF00
FF00FE00
FF01FE00
FF03FC00
FF07F800
FF07F000
FF0FF000
FF1FE000
FF3FC000
FF3F8000
FF7F8000
FFFF0000
FFFF8000
FF7F8000
FF3FC000
FF1FE000
FF1FF000
FF0FF000
FF07F800
FF07FC00
FF03FE00
FF01FE00
FF00FF00
FF00FF80
FF007FC0
FF003FC0
FF003FE0
FF001FF0
FF000FF0
FF0007F8
ENDCHAR
STARTCHAR 041B
ENCODING 1051
SWIDTH 740 0
DWIDTH 37 0
BBX 33 36 0 0
BITMAP
003FFFFF80
003FFFFF80
003FFFFF80
003FFFFF80
003FFFFF80
003FFFFF80
007FFFFF80
007F007F80
007F007F80
007F007F80
007F007F80
007F007F80
007F007F80
00FF007F80
00FE007F80
00FE007F80
00FE007F80
00FE007F80
00FE007F80
01FE007F80
01FE007F80
01FC007F80
01FC007F80
01FC007F80
01FC007F80
03FC007F80
03FC007F80
03F8007F80
07F8007F80
07F8007F80
FFF0007F80
FFF0007F80
FFF0007F80
FFE0007F80
FFC0007F80
FF80007F80
ENDCHAR
STARTCHAR 041C
ENCODING 1052
SWIDTH 940 0
DWIDTH 47 0
BBX 39 36 4 0
BITMAP
FFE0000FFE
FFE0000FFE
FFE0000FFE
FFF0001FFE
FFF0001FFE
FFF0001FFE
FFF8003FFE
FFF8003FFE
FFF8003FFE
FFFC007EFE
FEFC007EFE
FEFC007EFE
FEFE00FCFE
FE7E00FCFE
FE7E00FCFE
FE7F01F8FE
FE3F01F8FE
FE3F01F8FE
FE3F03F0FE
FE1F83F0FE
FE1F83F0FE
FE1F87E0FE
FE1FC7E0FE
FE0FC7E0FE
FE0FCFC0FE
FE0FEFC0FE
FE07EFC0FE
FE07FF80FE
FE07FF80FE
FE03FF80FE
FE03FF00FE
FE03FF00FE
FE01FF00FE
FE01FE00FE
FE01FE00FE
FE01FE00FE
ENDCHAR
STARTCHAR 041D
ENCODING 1053
SWIDTH 760 0
DWIDTH 38 0
BBX 30 36 4 0
BITMAP
FF0003FC
FF0003FC
FF0003FC
FF0003FC
FF0003FC
FF0003FC
FF0003FC
FF0003FC
FF0003FC
FF0003FC
FF0003FC
FF0003FC
FF0003FC
FF0003FC
FFFFFFFC
FFFFFFFC
FFFFFFFC
FFFFFFFC
FFFFFFFC
FFFFFFFC
FFFFFFFC
FF0003FC
FF0003FC
FF0003FC
FF0003FC
FF0003FC
FF0003FC
FF0003FC
FF0003FC
FF0003FC
FF0003FC
FF0003FC
FF0003FC
FF0003FC
FF0003FC
FF0003FC
ENDCHAR
STARTCHAR 041E
ENCODING 1054
SWIDTH 780 0
DWIDTH 39 0
BBX 34 36 3 0
BITMAP
001FFE0000
00FFFFC000
01FFFFE000
07FFFFF800
0FFFFFFC00
1FFFFFFC00
1FFC0FFE00
3FF003FF00
3FE001FF00
7FC000FF00
7F8000FF80
7F80007F80
FF80007F80
FF00007FC0
FF00003FC0
FF00003FC0
FF00003FC0
FF00003FC0
FF00003FC0
FF00003FC0
FF00003FC0
FF00003FC0
FF00003FC0
FF00007F80
7F80007F80
7F80007F80
7FC000FF80
3FC001FF00
3FE003FF00
1FF807FE00
1FFFFFFE00
0FFFFFFC00
07FFFFF800
03FFFFF000
00FFFFC000
003FFF0000
ENDCHAR
STARTCHAR 041F
ENCODING 1055
SWIDTH 740 0
DWIDTH 37 0
BBX 29 36 4 0
BITMAP
FFFFFFF8
FFFFFFF8
FFFFFFF8
FFFFFFF8
FFFFFFF8
FFFFFFF8
FFFFFFF8
FF0007F8
FF0007F8
FF0007F8
FF0007F8
FF0007F8
FF0007F8
FF0007F8
FF0007F8
FF0007F8
FF0007F8
FF0007F8
FF0007F8
FF0007F8
FF0007F8
FF0007F8
FF0007F8
FF0007F8
FF0007F8
FF0007F8
FF0007F8
FF0007F8
FF0007F8
FF0007F8
FF0007F8
FF0007F8
FF0007F8
FF0007F8
FF0007F8
FF0007F8
ENDCHAR
STARTCHAR 0420
ENCODING 1056
SWIDTH 620 0
DWIDTH 31 0
BBX 25 36 4 0
BITMAP
FFFE0000
FFFFE000
FFFFF800
FFFFFC00
FFFFFE00
FFFFFF00
FFFFFF00
FF00FF80
FF007F80
FF007F80
FF007F80
FF003F80
FF007F80
FF007F80
FF007F80
FF00FF80
FF03FF00
FFFFFF00
FFFFFE00
FFFFFC00
FFFFF800
FFFFF000
FFFF8000
FF000000
FF000000
FF000000
FF000000
FF000000
FF000000
FF000000
FF000000
FF000000
FF000000
FF000000
FF000000
FF000000
ENDCHAR
STARTCHAR 0421
ENCODING 1057
SWIDTH 620 0
DWIDTH 31 0
BBX 27 36 3 0
BITMAP
001FFC00
007FFF80
01FFFFE0
03FFFFE0
07FFFFC0
0FFFFFC0
1FFC0F80
3FF00380
3FE00000
7FC00000
7F800000
7F800000
7F000000
FF000000
FF000000
FF000000
FF000000
FF000000
FF000000
FF000000
FF000000
FF000000
FF000000
FF000000
7F800000
7F800000
7F800000
7FC00000
3FE00040
3FF803C0
1FFFFFC0
0FFFFFC0
07FFFFC0
03FFFFC0
01FFFFC0
007FFE00
ENDCHAR
STARTCHAR 0422
ENCODING 1058
SWIDTH 560 0
DWIDTH 28 0
BBX 27 36 1 0
BITMAP
FFFFFFE0
FFFFFFE0
FFFFFFE0
FFFFFFE0
FFFFFFE0
FFFFFFE0
FFFFFFE0
003F8000
003F8000
003F8000
003F8000
003F8000
003F8000
003F8000
003F8000
003F8000
003F8000
003F8000
003F8000
003F8000
003F8000
003F8000
003F8000
003F8000
003F8000
003F8000
003F8000
003F8000
003F8000
003F8000
003F8000
003F8000
003F8000
003F8000
003F8000
003F8000
ENDCHAR
STARTCHAR 0423
ENCODING 1059
SWIDTH 660 0
DWIDTH 33 0
BBX 32 36 1 0
BITMAP
FF0000FF
FF0000FF
7F0001FE
7F8001FE
7F8001FC
3FC003FC
3FC003F8
1FE007F8
1FE007F8
0FE007F0
0FF00FF0
07F00FE0
07F81FE0
03F81FC0
03FC3FC0
01FC3FC0
01FC3F80
00FE7F80
00FE7F00
007FFF00
007FFE00
003FFE00
003FFC00
001FFC00
001FFC00
000FF800
000FF800
001FF000
003FF000
407FE000
7FFFE000
7FFFC000
7FFF8000
7FFF0000
7FFE0000
7FF80000
ENDCHAR
STARTCHAR 0424
ENCODING 1060
SWIDTH 860 0
DWIDTH 43 0
BBX 39 36 2 0
BITMAP
0000FE0000
0000FE0000
0000FE0000
0000FE0000
000FFFE000
00FFFFFE00
03FFFFFF80
07FFFFFFC0
0FFFFFFFE0
1FFFFFFFF0
3FF8FE3FF8
3FC0FE07F8
7F80FE03FC
7F00FE01FC
7F00FE01FC
FF00FE01FE
FE00FE00FE
FE00FE00FE
FE00FE00FE
FF00FE01FE
7F00FE01FC
7F00FE01FC
7F80FE03FC
3FC0FE07F8
3FF0FE1FF8
1FFFFFFFF0
0FFFFFFFE0
07FFFFFFC0
03FFFFFF80
00FFFFFE00
001FFFF000
0000FE0000
0000FE0000
0000FE0000
0000FE0000
0000FE0000
ENDCHAR
STARTCHAR 0425
ENCODING 1061
SWIDTH 660 0
DWIDTH 33 0
BBX 33 36 0 0
BITMAP
7F8000FF00
7FC000FF00
3FC001FE00
1FE003FC00
1FF003FC00
0FF007F800
07F807F800
07F80FF000
03FC0FE000
01FE1FE000
01FE3FC000
00FF3F8000
007F7F8000
007FFF0000
003FFF0000
003FFE0000
001FFC0000
000FFC0000
001FFC0000
001FFC0000
003FFE0000
007FFF0000
007FFF0000
00FF7F8000
01FE3FC000
01FE3FC000
03FC1FE000
07F81FF000
07F80FF000
0FF007F800
0FF007FC00
1FE003FC00
3FC001FE00
3FC001FF00
7F8000FF00
FF0000FF80
ENDCHAR
STARTCHAR 0426
ENCODING 1062
SWIDTH 780 0
DWIDTH 39 0
BBX 34 46 4 -10
BITMAP
FF0007F800
FF0007F800
FF0007F800
FF0007F800
FF0007F800
FF0007F800
FF0007F800
FF0007F800
FF0007F800
FF0007F800
FF0007F800
FF0007F800
FF0007F800
FF0007F800
FF0007F800
FF0007F800
FF0007F800
FF0007F800
FF0007F800
FF0007F800
FF0007F800
FF0007F800
FF0007F800
FF0007F800
FF0007F800
FF0007F800
FF0007F800
FF0007F800
FF0007F800
FF0007F800
FFFFFFFFC0
FFFFFFFFC0
FFFFFFFFC0
FFFFFFFFC0
FFFFFFFFC0
FFFFFFFFC0
0000001FC0
0000001FC0
0000001FC0
0000001FC0
0000001FC0
0000001FC0
0000001FC0
0000001FC0
0000001FC0
0000001FC0
ENDCHAR
STARTCHAR 0427
ENCODING 1063
SWIDTH 720 0
DWIDTH 36 0
BBX 29 36 3 0
BITMAP
FE0007F8
FE0007F8
FE0007F8
FE0007F8
FE0007F8
FE0007F8
FE0007F8
FE0007F8
FE0007F8
FE0007F8
FE0007F8
FE0007F8
FE0007F8
FE0007F8
FE0007F8
FF0007F8
FF0007F8
FF807FF8
FFFFFFF8
7FFFFFF8
7FFFFFF8
3FFFFFF8
1FFFFFF8
07FF87F8
000007F8
000007F8
000007F8
000007F8
000007F8
000007F8
000007F8
000007F8
000007F8
000007F8
000007F8
000007F8
ENDCHAR
STARTCHAR 0428
ENCODING 1064
SWIDTH 1060 0
DWIDTH 53 0
BBX 45 36 4 0
BITMAP
FF001FE003F8
FF001FE003F8
FF001FE003F8
FF001FE003F8
FF001FE003F8
FF001FE003F8
FF001FE003F8
FF001FE003F8
FF001FE003F8
FF001FE003F8
FF001FE003F8
FF001FE003F8
FF001FE003F8
FF001FE003F8
FF001FE003F8
FF001FE003F8
FF001FE003F8
FF001FE003F8
FF001FE003F8
FF001FE003F8
FF001FE003F8
FF001FE003F8
FF001FE003F8
FF001FE003F8
FF001FE003F8
FF001FE003F8
FF001FE003F8
FF001FE003F8
FF001FE003F8
FF001FE003F8
FFFFFFFFFFF8
FFFFFFFFFFF8
FFFFFFFFFFF8
FFFFFFFFFFF8
FFFFFFFFFFF8
FFFFFFFFFFF8
ENDCHAR
STARTCHAR 0429
ENCODING 1065
SWIDTH 1100 0
DWIDTH 55 0
BBX 51 46 4 -10
BITMAP
FF001FE003F800
FF001FE003F800
FF001FE003F800
FF001FE003F800
FF001FE003F800
FF001FE003F800
FF001FE003F800
FF001FE003F800
FF001FE003F800
FF001FE003F800
FF001FE003F800
FF001FE003F800
FF001FE003F800
FF001FE003F800
FF001FE003F800
FF001FE003F800
FF001FE003F800
FF001FE003F800
FF001FE003F800
FF001FE003F800
FF001FE003F800
FF001FE003F800
FF001FE003F800
FF001FE003F800
FF001FE003F800
FF001FE003F800
FF001FE003F800
FF001FE003F800
FF001FE003F800
FF001FE003F800
FFFFFFFFFFFFE0
FFFFFFFFFFFFE0
FFFFFFFFFFFFE0
FFFFFFFFFFFFE0
FFFFFFFFFFFFE0
FFFFFFFFFFFFE0
00000000001FE0
00000000001FE0
00000000001FE0
00000000001FE0
00000000001FE0
00000000001FE0
00000000001FE0
00000000001FE0
00000000001FE0
00000000001FE0
ENDCHAR
STARTCHAR 042A
ENCODING 1066
SWIDTH 720 0
DWIDTH 36 0
BBX 34 36 0 0
BITMAP
FFFF800000
FFFF800000
FFFF800000
FFFF800000
FFFF800000
FFFF800000
FFFF800000
007F800000
007F800000
007F800000
007F800000
007F800000
007F800000
007F800000
007FFF8000
007FFFF000
007FFFFC00
007FFFFE00
007FFFFF00
007FFFFF80
007F83FF80
007F807FC0
007F803FC0
007F803FC0
007F803FC0
007F803FC0
007F803FC0
007F803FC0
007F807FC0
007F83FF80
007FFFFF80
007FFFFF00
007FFFFE00
007FFFFC00
007FFFF000
007FFF8000
ENDCHAR
STARTCHAR 042B
ENCODING 1067
SWIDTH 900 0
DWIDTH 45 0
BBX 37 36 4 0
BITMAP
FF000007F8
FF000007F8
FF000007F8
FF000007F8
FF000007F8
FF000007F8
FF000007F8
FF000007F8
FF000007F8
FF000007F8
FF000007F8
FF000007F8
FF000007F8
FF000007F8
FFFF0007F8
FFFFE007F8
FFFFF807F8
FFFFFC07F8
FFFFFE07F8
FFFFFF07F8
FF07FF07F8
FF00FF07F8
FF007F87F8
FF007F87F8
FF007F87F8
FF007F87F8
FF007F87F8
FF007F87F8
FF00FF07F8
FF07FF07F8
FFFFFF07F8
FFFFFE07F8
FFFFFC07F8
FFFFF807F8
FFFFE007F8
FFFF0007F8
ENDCHAR
STARTCHAR 042C
ENCODING 1068
SWIDTH 620 0
DWIDTH 31 0
BBX 26 36 4 0
BITMAP
FF000000
FF000000
FF000000
FF000000
FF000000
FF000000
FF000000
FF000000
FF000000
FF000000
FF000000
FF000000
FF000000
FF000000
FFFF0000
FFFFF000
FFFFF800
FFFFFE00
FFFFFF00
FFFFFF00
FF07FF80
FF007F80
FF007F80
FF003FC0
FF003FC0
FF003FC0
FF003FC0
FF007F80
FF00FF80
FF03FF80
FFFFFF00
FFFFFF00
FFFFFE00
FFFFFC00
FFFFF000
FFFF0000
ENDCHAR
STARTCHAR 042D
ENCODING 1069
SWIDTH 660 0
DWIDTH 33 0
BBX 28 36 2 0
BITMAP
07FF8000
3FFFF000
FFFFF800
FFFFFE00
7FFFFF00
7FFFFF80
7F03FF80
38007FC0
00003FC0
00001FE0
00001FE0
00000FE0
00000FF0
00000FF0
00000FF0
07FFFFF0
07FFFFF0
07FFFFF0
07FFFFF0
07FFFFF0
07FFFFF0
00000FF0
00000FF0
00000FF0
00000FF0
00001FE0
00001FE0
00003FE0
80007FC0
F801FFC0
FFFFFF80
FFFFFF00
FFFFFE00
FFFFFC00
FFFFF000
1FFFC000
ENDCHAR
STARTCHAR 042E
ENCODING 1070
SWIDTH 1060 0
DWIDTH 53 0
BBX 47 36 4 0
BITMAP
FF00007FF000
FF0001FFFE00
FF0007FFFF00
FF000FFFFFC0
FF001FFFFFE0
FF003FFFFFE0
FF007FF03FF0
FF007FC01FF0
FF00FF800FF8
FF00FF0007F8
FF00FF0003FC
FF00FF0003FC
FF01FE0003FC
FF01FE0003FC
FFFFFE0001FC
FFFFFE0001FE
FFFFFE0001FE
FFFFFE0001FE
FFFFFE0001FE
FFFFFE0001FE
FFFFFE0001FE
FF01FE0001FC
FF01FE0003FC
FF01FE0003FC
FF01FF0003FC
FF00FF0003FC
FF00FF0007F8
FF00FF800FF8
FF007FC00FF8
FF007FF03FF0
FF003FFFFFE0
FF001FFFFFE0
FF000FFFFFC0
FF0007FFFF80
FF0003FFFE00
FF0000FFF800
ENDCHAR
STARTCHAR 042F
ENCODING 1071
SWIDTH 660 0
DWIDTH 33 0
BBX 29 36 0 0
BITMAP
0003FFF8
003FFFF8
00FFFFF8
01FFFFF8
03FFFFF8
07FFFFF8
0FFFFFF8
0FF807F8
0FF007F8
0FF007F8
0FE007F8
0FE007F8
0FE007F8
0FF007F8
0FF807F8
07FC07F8
07FFFFF8
03FFFFF8
01FFFFF8
00FFFFF8
003FFFF8
007FFFF8
00FF07F8
00FF07F8
01FE07F8
01FE07F8
03FC07F8
07F807F8
07F807F8
0FF007F8
1FF007F8
1FE007F8
3FC007F8
7FC007F8
7F8007F8
FF0007F8
ENDCHAR
STARTCHAR 0430
ENCODING 1072
SWIDTH 600 0
DWIDTH 30 0
BBX 24 28 2 0
BITMAP
007F80
07FFF0
1FFFF8
1FFFFC
0FFFFE
0FFFFF
0700FF
00007F
00007F
00007F
00007F
007FFF
07FFFF
1FFFFF
3FFFFF
7FFC7F
7FC07F
FF007F
FF007F
FF007F
FF00FF
FF00FF
FF83FF
7FFFFF
7FFFBF
3FFFBF
1FFE1F
0FFC1F
ENDCHAR
STARTCHAR 0431
ENCODING 1073
SWIDTH 620 0
DWIDTH 31 0
BBX 27 38 2 0
BITMAP
00000FC0
0003FFC0
003FFFC0
00FFFFC0
01FFFFE0
07FFFFE0
0FFFFF80
0FFF8000
1FF00000
1FE00000
3FC00000
3F800000
7F800000
7F0FF800
7F3FFE00
7F7FFF00
7FFFFF80
FFFFFF80
FFF07FC0
FFC03FC0
FF803FC0
FF001FE0
FF001FE0
FF001FE0
FF001FE0
FF001FE0
7F001FE0
7F001FE0
7F801FC0
7F801FC0
3FC03FC0
3FE07FC0
1FFFFF80
1FFFFF00
0FFFFF00
07FFFE00
03FFF800
00FFE000
ENDCHAR
STARTCHAR 0432
ENCODING 1074
SWIDTH 620 0
DWIDTH 31 0
BBX 25 27 4 0
BITMAP
FFFFE000
FFFFF800
FFFFFE00
FFFFFE00
FFFFFF00
FE01FF00
FE00FF00
FE007F00
FE00FF00
FE00FE00
FFFFFE00
FFFFFC00
FFFFE000
FFFFF800
FFFFFE00
FE07FF00
FE00FF00
FE007F80
FE007F80
FE007F80
FE007F80
FE01FF80
FFFFFF00
FFFFFE00
FFFFFC00
FFFFF800
FFFFC000
ENDCHAR
STARTCHAR 0433
ENCODING 1075
SWIDTH 460 0
DWIDTH 23 0
BBX 19 27 4 0
BITMAP
FFFFE0
FFFFE0
FFFFE0
FFFFE0
FFFFE0
FE0000
FE0000
FE0000
FE0000
FE0000
FE0000
FE0000
FE0000
FE0000
FE0000
FE0000
FE0000
FE0000
FE0000
FE0000
FE0000
FE0000
FE0000
FE0000
FE0000
FE0000
FE0000
ENDCHAR
STARTCHAR 0434
ENCODING 1076
SWIDTH 660 0
DWIDTH 33 0
BBX 31 37 1 -10
BITMAP
00FFFFE0
00FFFFE0
00FFFFE0
00FFFFE0
00FFFFE0
01FC0FE0
01FC0FE0
01FC0FE0
01FC0FE0
01FC0FE0
03FC0FE0
03F80FE0
03F80FE0
03F80FE0
07F80FE0
07F00FE0
07F00FE0
0FF00FE0
0FE00FE0
1FE00FE0
1FC00FE0
3FC00FE0
FFFFFFFE
FFFFFFFE
FFFFFFFE
FFFFFFFE
FFFFFFFE
FC00007E
FC00007E
FC00007E
FC00007E
FC00007E
FC00007E
FC00007E
FC00007E
FC00007E
FC00007E
ENDCHAR
STARTCHAR 0435
ENCODING 1077
SWIDTH 580 0
DWIDTH 29 0
BBX 25 28 2 0
BITMAP
003F0000
01FFE000
07FFF800
0FFFFC00
1FFFFE00
3FFFFF00
3FC0FF00
7F807F80
7F803F80
7F003F80
7F003F80
FFFFFF80
FFFFFF80
FFFFFF80
FFFFFF80
FFFFFF80
FF000000
FF000000
7F000000
7F800000
7F800000
3FC00300
3FF01F00
1FFFFF00
0FFFFF00
07FFFF00
03FFFF00
00FFFC00
ENDCHAR
STARTCHAR 0436
ENCODING 1078
SWIDTH 860 0
DWIDTH 43 0
BBX 43 27 0 0
BITMAP
7F803F803FC0
3FC03F803F80
1FE03F807F80
0FE03F80FF00
07F03F81FE00
07F83F81FC00
03FC3F83F800
01FC3F87F800
00FE3F87F000
00FF3F8FE000
007FBF9FC000
003FBFBFC000
001FFFBF8000
003FFFFF8000
003FBFBFC000
007FBF9FE000
00FF3F8FF000
01FE3F87F000
01FC3F87F800
03FC3F83FC00
07F83F81FE00
0FF03F80FE00
1FE03F80FF00
1FE03F807F80
3FC03F803FC0
7F803F801FE0
FF003F801FE0
ENDCHAR
STARTCHAR 0437
ENCODING 1079
SWIDTH 540 0
DWIDTH 27 0
BBX 24 28 2 0
BITMAP
01FE00
3FFFE0
FFFFF8
7FFFFC
7FFFFC
7FFFFE
3801FE
0000FE
0000FE
0000FE
0001FC
03FFF8
03FFF0
03FFC0
03FFF0
03FFFC
001FFE
0001FE
0000FF
00007F
0000FF
C000FF
FC07FE
FFFFFE
FFFFFC
FFFFF8
FFFFF0
3FFFC0
ENDCHAR
STARTCHAR 0438
ENCODING 1080
SWIDTH 720 0
DWIDTH 36 0
BBX 28 27 4 0
BITMAP
FE001FF0
FE003FF0
FE007FF0
FE007FF0
FE00FFF0
FE01FFF0
FE01FFF0
FE03FFF0
FE07FFF0
FE07F7F0
FE0FF7F0
FE1FE7F0
FE1FC7F0
FE3FC7F0
FE7F87F0
FE7F07F0
FEFF07F0
FFFE07F0
FFFC07F0
FFFC07F0
FFF807F0
FFF007F0
FFF007F0
FFE007F0
FFE007F0
FFC007F0
FF8007F0
ENDCHAR
STARTCHAR 0439
ENCODING 1081
SWIDTH 720 0
DWIDTH 36 0
BBX 28 39 4 0
BITMAP
3F801FC0
1F801FC0
1FC01FC0
1FC03F80
0FFFFF80
0FFFFF00
07FFFE00
01FFF800
001FC000
00000000
00000000
00000000
FE001FF0
FE003FF0
FE007FF0
FE007FF0
FE00FFF0
FE01FFF0
FE01FFF0
FE03FFF0
FE07FFF0
FE07F7F0
FE0FF7F0
FE1FE7F0
FE1FC7F0
FE3FC7F0
FE7F87F0
FE7F07F0
FEFF07F0
FFFE07F0
FFFC07F0
FFFC07F0
FFF807F0
FFF007F0
FFF007F0
FFE007F0
FFE007F0
FFC007F0
FF8007F0
ENDCHAR
STARTCHAR 043A
ENCODING 1082
SWIDTH 600 0
DWIDTH 30 0
BBX 27 27 4 0
BITMAP
FE007FC0
FE00FF80
FE00FF00
FE01FE00
FE03FC00
FE07F800
FE0FF000
FE0FF000
FE1FE000
FE3FC000
FE7F8000
FE7F0000
FEFE0000
FFFF0000
FEFF8000
FE7F8000
FE3FC000
FE1FE000
FE0FF000
FE0FF800
FE07FC00
FE03FC00
FE01FE00
FE00FF00
FE00FF80
FE007FC0
FE003FE0
ENDCHAR
STARTCHAR 043B
ENCODING 1083
SWIDTH 640 0
DWIDTH 32 0
BBX 28 27 0 0
BITMAP
00FFFFF0
00FFFFF0
01FFFFF0
01FFFFF0
01FFFFF0
01FC07F0
01FC07F0
01FC07F0
01FC07F0
01FC07F0
01FC07F0
01F807F0
03F807F0
03F807F0
03F807F0
03F807F0
03F807F0
07F007F0
07F007F0
07F007F0
0FF007F0
FFE007F0
FFE007F0
FFE007F0
FFC007F0
FF8007F0
FF0007F0
ENDCHAR
STARTCHAR 043C
ENCODING 1084
SWIDTH 840 0
DWIDTH 42 0
BBX 34 27 4 0
BITMAP
FFE000FFC0
FFE001FFC0
FFE001FFC0
FFF001FFC0
FFF003FFC0
FFF803FFC0
FFF803EFC0
FFF807EFC0
FEFC07FFC0
FEFC0FDFC0
FEFC0FDFC0
FE7E0FDFC0
FE7E1F9FC0
FE7F1F9FC0
FE3F1F9FC0
FE3F3F1FC0
FE3FBF1FC0
FE1FFE1FC0
FE1FFE1FC0
FE0FFE1FC0
FE0FFC1FC0
FE0FFC1FC0
FE07FC1FC0
FE07F81FC0
FE07F81FC0
FE03F81FC0
FE03F01FC0
ENDCHAR
STARTCHAR 043D
ENCODING 1085
SWIDTH 660 0
DWIDTH 33 0
BBX 25 27 4 0
BITMAP
FE003F80
FE003F80
FE003F80
FE003F80
FE003F80
FE003F80
FE003F80
FE003F80
FE003F80
FE003F80
FFFFFF80
FFFFFF80
FFFFFF80
FFFFFF80
FFFFFF80
FFFFFF80
FE003F80
FE003F80
FE003F80
FE003F80
FE003F80
FE003F80
FE003F80
FE003F80
FE003F80
FE003F80
FE003F80
ENDCHAR
STARTCHAR 043E
ENCODING 1086
SWIDTH 600 0
DWIDTH 30 0
BBX 27 28 2 0
BITMAP
001F0000
01FFF000
07FFF800
0FFFFE00
1FFFFF00
3FFFFF00
3FF1FF80
7FC07F80
7F803FC0
7F803FC0
7F001FC0
FF001FE0
FF001FE0
FF001FE0
FF001FE0
FF001FE0
FF001FE0
FF001FE0
7F001FC0
7F803FC0
7F803FC0
3FC07F80
3FFFFF80
1FFFFF00
0FFFFE00
07FFFC00
03FFF800
00FFE000
ENDCHAR
STARTCHAR 043F
ENCODING 1087
SWIDTH 640 0
DWIDTH 32 0
BBX 25 27 4 0
BITMAP
FFFFFF80
FFFFFF80
FFFFFF80
FFFFFF80
FFFFFF80
FE007F80
FE007F80
FE007F80
FE007F80
FE007F80
FE007F80
FE007F80
FE007F80
FE007F80
FE007F80
FE007F80
FE007F80
FE007F80
FE007F80
FE007F80
FE007F80
FE007F80
FE007F80
FE007F80
FE007F80
FE007F80
FE007F80
ENDCHAR
STARTCHAR 0440
ENCODING 1088
SWIDTH 620 0
DWIDTH 31 0
BBX 25 40 4 -12
BITMAP
000FC000
FC3FF000
FE7FF800
FEFFFC00
FFFFFE00
FFFFFF00
FFE3FF00
FF80FF00
FF007F80
FF007F80
FF007F80
FE003F80
FE003F80
FE003F80
FE003F80
FE003F80
FE003F80
FF007F80
FF007F80
FF007F80
FF80FF80
FFC0FF00
FFFFFF00
FFFFFE00
FFFFFE00
FEFFFC00
FE7FF800
FE3FE000
FE000000
FE000000
FE000000
FE000000
FE000000
FE000000
FE000000
FE000000
FE000000
FE000000
FE000000
FE000000
ENDCHAR
STARTCHAR 0441
ENCODING 1089
SWIDTH 500 0
DWIDTH 25 0
BBX 22 28 2 0
BITMAP
001F80
01FFF8
07FFFC
0FFFFC
1FFFF8
3FFFF8
3FF0F0
7FC010
7F8000
7F8000
7F0000
FF0000
FF0000
FF0000
FF0000
FF0000
FF0000
FF0000
7F0000
7F8000
7F8000
7FC018
3FFFF8
3FFFF8
1FFFF8
0FFFF8
07FFF8
01FFE0
ENDCHAR
ENDFONT
